{"glyphs":{"0":{"ha":817,"x_min":83,"x_max":733,"o":"m 408 -14 q 591 53 519 -14 q 698 235 663 121 q 733 486 733 349 q 698 738 733 625 q 591 919 663 851 q 408 986 519 986 q 226 919 299 986 q 119 738 154 851 q 83 486 83 625 q 119 235 83 349 q 226 53 154 121 q 408 -14 299 -14 m 408 44 q 260 101 319 44 q 172 258 201 158 q 142 486 142 358 q 172 715 142 615 q 260 872 201 815 q 408 928 319 928 q 556 872 497 928 q 645 715 615 815 q 675 486 675 615 q 645 258 675 358 q 556 101 615 158 q 408 44 497 44 "},"1":{"ha":504,"x_min":35,"x_max":338,"o":"m 308 0 q 329 8 321 0 q 338 28 338 17 l 338 944 q 332 963 338 956 q 317 972 326 971 q 306 973 311 974 q 293 968 300 972 l 50 808 q 35 785 35 800 q 44 765 35 775 q 65 754 53 754 q 81 760 72 754 l 293 900 l 279 908 l 279 28 q 288 8 279 17 q 308 0 296 0 "},"2":{"ha":763,"x_min":83,"x_max":693,"o":"m 665 56 l 163 56 l 175 39 l 474 378 q 613 564 568 481 q 657 718 657 647 q 622 860 657 800 q 524 953 588 919 q 375 986 461 986 q 260 962 318 986 q 158 899 203 938 q 90 814 113 860 q 85 799 86 804 q 83 789 83 794 q 92 773 83 779 q 111 767 100 767 q 128 772 122 767 q 140 789 135 776 q 192 860 157 828 q 275 911 228 892 q 371 931 322 931 q 535 871 474 931 q 596 713 596 811 q 555 578 596 653 q 428 411 514 504 l 101 47 q 94 29 94 38 q 106 6 94 13 q 129 0 117 0 l 665 0 q 685 8 676 0 q 693 28 693 15 q 685 47 693 39 q 665 56 676 56 "},"3":{"ha":721,"x_min":69,"x_max":640,"o":"m 113 125 q 92 115 100 125 q 83 94 83 106 q 85 84 83 89 q 92 75 88 79 q 192 8 135 29 q 308 -14 249 -14 q 473 26 397 -14 q 594 139 549 67 q 640 307 640 211 q 595 479 640 411 q 480 581 550 547 q 336 614 410 614 q 299 610 322 614 q 276 601 276 606 l 304 593 l 597 915 q 605 926 603 921 q 607 936 607 931 q 601 953 607 942 q 578 965 596 965 l 97 965 q 78 958 86 965 q 69 938 69 950 q 78 918 69 926 q 97 910 86 910 l 544 910 l 536 929 l 242 607 q 233 594 236 600 q 231 583 231 589 q 238 561 231 569 q 258 553 246 553 q 270 554 260 553 q 293 556 281 556 q 315 557 306 557 q 440 531 379 557 q 542 451 501 506 q 582 307 582 396 q 545 171 582 231 q 447 78 508 111 q 308 44 385 44 q 211 61 254 44 q 138 111 168 78 q 124 123 129 121 q 113 125 118 125 "},"4":{"ha":703,"x_min":21,"x_max":661,"o":"m 500 0 q 519 8 511 0 q 528 28 528 17 l 528 944 q 520 964 528 956 q 500 972 513 972 q 491 971 499 972 q 476 961 483 969 l 28 360 q 21 342 21 353 q 28 322 21 332 q 49 313 36 313 l 633 313 q 653 320 644 313 q 661 339 661 328 q 653 358 661 350 q 633 365 644 365 l 86 365 l 90 350 l 488 885 l 472 896 l 472 28 q 480 8 472 17 q 500 0 488 0 "},"5":{"ha":743,"x_min":90,"x_max":667,"o":"m 322 1 q 505 44 428 1 q 624 161 582 86 q 667 336 667 236 q 626 497 667 428 q 515 604 585 565 q 357 643 446 643 q 260 633 306 643 q 180 608 215 622 q 122 579 144 593 l 150 572 l 214 918 l 201 906 l 614 906 q 633 914 625 906 q 642 935 642 922 q 633 956 642 947 q 614 964 625 964 l 190 964 q 169 956 176 964 q 160 940 161 947 l 94 558 q 96 541 93 549 q 105 529 99 533 q 118 525 111 525 q 164 541 133 525 q 239 573 194 557 q 336 589 283 589 q 484 556 422 589 q 578 466 546 524 q 611 332 611 408 q 576 188 611 250 q 475 91 540 125 q 322 57 410 57 q 226 74 274 57 q 138 124 178 90 q 118 132 129 132 q 99 121 107 132 q 90 100 90 110 q 93 89 90 94 q 101 79 96 83 q 206 21 149 40 q 322 1 263 1 "},"6":{"ha":740,"x_min":83,"x_max":699,"o":"m 400 -14 q 555 30 488 -14 q 660 144 622 74 q 699 293 699 214 q 679 409 699 353 q 623 510 660 465 q 534 583 586 556 q 415 610 482 610 q 301 588 356 610 q 202 528 246 567 q 132 436 158 489 l 160 461 q 210 611 174 536 q 297 753 246 686 q 409 873 349 821 q 532 953 469 925 q 547 963 542 957 q 551 978 551 969 q 542 1002 551 994 q 521 1010 533 1010 q 508 1007 517 1010 q 366 918 432 975 q 248 790 300 861 q 159 638 196 718 q 103 476 122 557 q 83 322 83 396 q 101 199 83 260 q 158 91 119 139 q 256 15 196 43 q 400 -14 317 -14 m 397 42 q 258 77 315 42 q 170 169 200 113 q 140 288 140 225 q 172 419 140 358 q 262 516 203 479 q 406 553 321 553 q 537 515 485 553 q 615 419 589 478 q 640 293 640 360 q 609 162 640 218 q 523 74 578 106 q 397 42 468 42 "},"7":{"ha":696,"x_min":83,"x_max":654,"o":"m 236 -3 q 253 2 246 -3 q 264 15 261 7 l 651 926 q 654 940 654 932 q 650 958 654 951 q 631 965 646 965 l 111 965 q 92 958 100 965 q 83 938 83 950 q 92 917 83 925 q 111 910 100 910 l 604 910 l 588 922 l 210 36 q 207 22 207 28 q 217 4 207 11 q 236 -3 226 -3 "},"8":{"ha":746,"x_min":83,"x_max":663,"o":"m 494 488 q 565 539 532 506 q 617 617 597 572 q 638 714 638 661 q 602 846 638 788 q 506 938 567 904 q 372 972 446 972 q 238 938 299 972 q 141 846 176 904 q 106 714 106 788 q 126 616 106 661 q 180 538 147 571 q 250 486 213 504 l 253 492 q 169 440 208 474 q 107 358 131 406 q 83 249 83 310 q 122 117 83 176 q 225 22 160 57 q 372 -14 290 -14 q 520 22 454 -14 q 624 117 586 57 q 663 249 663 176 q 638 358 663 310 q 575 442 614 407 q 490 493 536 476 l 494 488 m 164 714 q 222 860 164 804 q 372 917 279 917 q 522 860 464 917 q 579 714 579 804 q 550 607 579 653 q 474 535 521 561 q 372 510 426 510 q 270 535 318 510 q 193 607 222 561 q 164 714 164 653 m 372 42 q 205 100 268 42 q 142 249 142 158 q 174 358 142 310 q 258 433 206 406 q 372 460 311 460 q 488 433 435 460 q 572 358 540 406 q 604 249 604 310 q 540 100 604 158 q 372 42 476 42 "},"9":{"ha":771,"x_min":83,"x_max":699,"o":"m 382 986 q 227 942 294 986 q 122 829 160 899 q 83 679 83 760 q 117 528 83 600 q 215 411 151 457 q 367 365 279 365 q 482 386 428 365 q 580 445 536 407 q 650 536 624 483 l 622 511 q 547 318 604 413 q 413 151 490 224 q 250 40 335 78 q 235 30 240 36 q 231 15 231 24 q 240 -6 231 4 q 261 -17 249 -17 q 274 -14 265 -17 q 416 73 350 18 q 534 197 482 128 q 623 342 586 265 q 679 498 660 419 q 699 650 699 576 q 681 773 699 713 q 624 881 663 833 q 526 958 586 929 q 382 986 465 986 m 385 931 q 525 895 468 931 q 612 804 582 860 q 642 685 642 749 q 610 554 642 614 q 520 458 579 494 q 376 422 461 422 q 246 459 299 422 q 167 555 193 496 q 142 679 142 614 q 173 811 142 754 q 259 899 204 868 q 385 931 314 931 "},"A":{"ha":901,"x_min":47,"x_max":853,"o":"m 454 901 l 433 913 l 796 18 q 806 5 799 10 q 824 0 814 0 q 844 7 836 0 q 853 26 853 14 q 851 38 853 33 l 478 957 q 468 970 475 965 q 450 975 461 975 q 434 972 440 975 q 424 957 428 968 l 50 38 q 49 24 47 29 q 57 7 50 14 q 78 0 64 0 q 93 5 86 0 q 103 18 100 10 l 454 901 m 197 301 l 681 301 l 667 357 l 217 357 l 197 301 "},"Á":{"ha":901,"x_min":47,"x_max":853,"o":"m 454 901 l 433 913 l 796 18 q 806 5 799 10 q 824 0 814 0 q 844 7 836 0 q 853 26 853 14 q 851 38 853 33 l 478 957 q 468 970 475 965 q 450 975 461 975 q 434 972 440 975 q 424 957 428 968 l 50 38 q 49 24 47 29 q 57 7 50 14 q 78 0 64 0 q 93 5 86 0 q 103 18 100 10 l 454 901 m 197 301 l 681 301 l 667 357 l 217 357 l 197 301 m 457 1039 q 473 1042 465 1039 q 486 1049 481 1046 l 621 1114 q 635 1127 631 1119 q 640 1147 640 1135 q 633 1170 640 1160 q 608 1181 625 1181 q 591 1177 599 1181 q 578 1169 583 1174 l 453 1076 q 444 1067 447 1072 q 440 1056 440 1063 q 444 1044 440 1050 q 457 1039 447 1039 "},"Ă":{"ha":901,"x_min":47,"x_max":853,"o":"m 454 901 l 433 913 l 796 18 q 806 5 799 10 q 824 0 814 0 q 844 7 836 0 q 853 26 853 14 q 851 38 853 33 l 478 957 q 468 970 475 965 q 450 975 461 975 q 434 972 440 975 q 424 957 428 968 l 50 38 q 49 24 47 29 q 57 7 50 14 q 78 0 64 0 q 93 5 86 0 q 103 18 100 10 l 454 901 m 197 301 l 681 301 l 667 357 l 217 357 l 197 301 m 451 1083 q 568 1121 521 1083 q 632 1226 615 1158 q 630 1249 635 1242 q 610 1256 625 1256 q 592 1250 599 1256 q 582 1233 586 1244 q 451 1138 544 1138 q 372 1162 404 1138 q 319 1233 339 1186 q 310 1251 314 1246 q 292 1257 306 1257 q 273 1249 278 1257 q 271 1226 268 1240 q 335 1121 288 1158 q 451 1083 382 1083 "},"Ắ":{"ha":901,"x_min":47,"x_max":853,"o":"m 454 901 l 433 913 l 796 18 q 806 5 799 10 q 824 0 814 0 q 844 7 836 0 q 853 26 853 14 q 851 38 853 33 l 478 957 q 468 970 475 965 q 450 975 461 975 q 434 972 440 975 q 424 957 428 968 l 50 38 q 49 24 47 29 q 57 7 50 14 q 78 0 64 0 q 93 5 86 0 q 103 18 100 10 l 454 901 m 197 301 l 681 301 l 667 357 l 217 357 l 197 301 m 451 1083 q 568 1121 521 1083 q 632 1226 615 1158 q 630 1249 635 1242 q 610 1256 625 1256 q 592 1250 599 1256 q 582 1233 586 1244 q 451 1138 544 1138 q 372 1162 404 1138 q 319 1233 339 1186 q 310 1251 314 1246 q 292 1257 306 1257 q 273 1249 278 1257 q 271 1226 268 1240 q 335 1121 288 1158 q 451 1083 382 1083 m 457 1322 q 473 1326 465 1322 q 486 1332 481 1329 l 621 1397 q 635 1410 631 1403 q 640 1431 640 1418 q 633 1453 640 1443 q 608 1464 625 1464 q 591 1460 599 1464 q 578 1453 583 1457 l 453 1360 q 444 1351 447 1356 q 440 1339 440 1346 q 444 1328 440 1333 q 457 1322 447 1322 "},"Ặ":{"ha":901,"x_min":47,"x_max":853,"o":"m 454 901 l 433 913 l 796 18 q 806 5 799 10 q 824 0 814 0 q 844 7 836 0 q 853 26 853 14 q 851 38 853 33 l 478 957 q 468 970 475 965 q 450 975 461 975 q 434 972 440 975 q 424 957 428 968 l 50 38 q 49 24 47 29 q 57 7 50 14 q 78 0 64 0 q 93 5 86 0 q 103 18 100 10 l 454 901 m 197 301 l 681 301 l 667 357 l 217 357 l 197 301 m 451 -190 q 485 -176 472 -190 q 499 -140 499 -162 l 499 -129 q 485 -93 499 -107 q 453 -79 472 -79 q 417 -93 431 -79 q 403 -129 403 -107 l 403 -140 q 416 -176 403 -162 q 451 -190 429 -190 m 451 1083 q 568 1121 521 1083 q 632 1226 615 1158 q 630 1249 635 1242 q 610 1256 625 1256 q 592 1250 599 1256 q 582 1233 586 1244 q 451 1138 544 1138 q 372 1162 404 1138 q 319 1233 339 1186 q 310 1251 314 1246 q 292 1257 306 1257 q 273 1249 278 1257 q 271 1226 268 1240 q 335 1121 288 1158 q 451 1083 382 1083 "},"Ằ":{"ha":901,"x_min":47,"x_max":853,"o":"m 454 901 l 433 913 l 796 18 q 806 5 799 10 q 824 0 814 0 q 844 7 836 0 q 853 26 853 14 q 851 38 853 33 l 478 957 q 468 970 475 965 q 450 975 461 975 q 434 972 440 975 q 424 957 428 968 l 50 38 q 49 24 47 29 q 57 7 50 14 q 78 0 64 0 q 93 5 86 0 q 103 18 100 10 l 454 901 m 197 301 l 681 301 l 667 357 l 217 357 l 197 301 m 451 1083 q 568 1121 521 1083 q 632 1226 615 1158 q 630 1249 635 1242 q 610 1256 625 1256 q 592 1250 599 1256 q 582 1233 586 1244 q 451 1138 544 1138 q 372 1162 404 1138 q 319 1233 339 1186 q 310 1251 314 1246 q 292 1257 306 1257 q 273 1249 278 1257 q 271 1226 268 1240 q 335 1121 288 1158 q 451 1083 382 1083 m 451 1322 q 465 1328 461 1322 q 468 1339 468 1333 q 465 1351 468 1346 q 456 1360 461 1356 l 331 1453 q 317 1460 325 1457 q 300 1464 310 1464 q 276 1453 283 1464 q 268 1431 268 1443 q 288 1397 268 1408 l 422 1332 q 436 1326 429 1329 q 451 1322 443 1322 "},"Ẳ":{"ha":901,"x_min":47,"x_max":853,"o":"m 454 901 l 433 913 l 796 18 q 806 5 799 10 q 824 0 814 0 q 844 7 836 0 q 853 26 853 14 q 851 38 853 33 l 478 957 q 468 970 475 965 q 450 975 461 975 q 434 972 440 975 q 424 957 428 968 l 50 38 q 49 24 47 29 q 57 7 50 14 q 78 0 64 0 q 93 5 86 0 q 103 18 100 10 l 454 901 m 197 301 l 681 301 l 667 357 l 217 357 l 197 301 m 451 1083 q 568 1121 521 1083 q 632 1226 615 1158 q 630 1249 635 1242 q 610 1256 625 1256 q 592 1250 599 1256 q 582 1233 586 1244 q 451 1138 544 1138 q 372 1162 404 1138 q 319 1233 339 1186 q 310 1251 314 1246 q 292 1257 306 1257 q 273 1249 278 1257 q 271 1226 268 1240 q 335 1121 288 1158 q 451 1083 382 1083 m 354 1525 q 344 1506 344 1515 q 350 1490 344 1497 q 370 1482 358 1481 q 393 1493 382 1483 q 422 1511 406 1503 q 458 1519 439 1519 q 494 1507 479 1519 q 510 1475 510 1494 q 498 1444 510 1457 q 467 1413 486 1432 q 450 1383 453 1399 q 447 1357 447 1368 q 453 1342 447 1349 q 469 1335 458 1335 q 485 1340 479 1335 q 493 1354 492 1344 q 497 1374 494 1367 q 506 1386 500 1381 q 544 1429 529 1410 q 558 1474 558 1449 q 549 1515 558 1493 q 517 1553 539 1538 q 456 1569 494 1569 q 400 1557 426 1569 q 354 1525 374 1544 "},"Ẵ":{"ha":901,"x_min":47,"x_max":853,"o":"m 454 901 l 433 913 l 796 18 q 806 5 799 10 q 824 0 814 0 q 844 7 836 0 q 853 26 853 14 q 851 38 853 33 l 478 957 q 468 970 475 965 q 450 975 461 975 q 434 972 440 975 q 424 957 428 968 l 50 38 q 49 24 47 29 q 57 7 50 14 q 78 0 64 0 q 93 5 86 0 q 103 18 100 10 l 454 901 m 197 301 l 681 301 l 667 357 l 217 357 l 197 301 m 451 1083 q 568 1121 521 1083 q 632 1226 615 1158 q 630 1249 635 1242 q 610 1256 625 1256 q 592 1250 599 1256 q 582 1233 586 1244 q 451 1138 544 1138 q 372 1162 404 1138 q 319 1233 339 1186 q 310 1251 314 1246 q 292 1257 306 1257 q 273 1249 278 1257 q 271 1226 268 1240 q 335 1121 288 1158 q 451 1083 382 1083 m 275 1369 q 290 1374 282 1369 q 300 1389 297 1379 q 326 1435 310 1421 q 363 1450 342 1450 q 417 1431 386 1450 q 481 1393 449 1413 q 540 1374 514 1374 q 587 1382 565 1374 q 624 1410 608 1390 q 647 1464 640 1431 q 648 1498 651 1485 q 628 1511 644 1511 q 610 1504 617 1511 q 603 1486 604 1497 q 585 1441 599 1458 q 551 1424 572 1424 q 496 1443 528 1424 q 431 1483 464 1463 q 368 1503 397 1503 q 303 1483 335 1503 q 258 1418 271 1464 q 257 1382 253 1394 q 275 1369 261 1369 "},"Ǎ":{"ha":901,"x_min":47,"x_max":853,"o":"m 454 901 l 433 913 l 796 18 q 806 5 799 10 q 824 0 814 0 q 844 7 836 0 q 853 26 853 14 q 851 38 853 33 l 478 957 q 468 970 475 965 q 450 975 461 975 q 434 972 440 975 q 424 957 428 968 l 50 38 q 49 24 47 29 q 57 7 50 14 q 78 0 64 0 q 93 5 86 0 q 103 18 100 10 l 454 901 m 197 301 l 681 301 l 667 357 l 217 357 l 197 301 m 443 1104 l 458 1110 l 332 1208 q 306 1222 315 1222 q 294 1217 299 1222 q 289 1206 289 1213 q 291 1197 289 1201 q 297 1189 293 1193 l 410 1071 q 424 1058 417 1061 q 443 1054 432 1054 l 457 1054 q 476 1058 468 1054 q 490 1071 485 1061 l 603 1190 q 609 1199 607 1194 q 611 1207 611 1203 q 606 1219 611 1214 q 594 1224 601 1224 q 582 1220 589 1224 q 568 1210 575 1217 l 443 1104 "},"Â":{"ha":901,"x_min":47,"x_max":853,"o":"m 454 901 l 433 913 l 796 18 q 806 5 799 10 q 824 0 814 0 q 844 7 836 0 q 853 26 853 14 q 851 38 853 33 l 478 957 q 468 970 475 965 q 450 975 461 975 q 434 972 440 975 q 424 957 428 968 l 50 38 q 49 24 47 29 q 57 7 50 14 q 78 0 64 0 q 93 5 86 0 q 103 18 100 10 l 454 901 m 197 301 l 681 301 l 667 357 l 217 357 l 197 301 m 457 1186 l 442 1181 l 568 1082 q 582 1072 575 1076 q 594 1068 589 1068 q 606 1074 601 1068 q 611 1085 611 1079 q 609 1093 611 1089 q 603 1101 607 1097 l 490 1219 q 475 1232 482 1228 q 457 1236 468 1236 l 443 1236 q 425 1232 432 1236 q 410 1219 418 1228 l 297 1100 q 291 1092 293 1096 q 289 1083 289 1088 q 294 1072 289 1078 q 306 1067 299 1067 q 319 1071 313 1067 q 332 1081 325 1075 l 457 1186 "},"Ấ":{"ha":901,"x_min":47,"x_max":853,"o":"m 454 901 l 433 913 l 796 18 q 806 5 799 10 q 824 0 814 0 q 844 7 836 0 q 853 26 853 14 q 851 38 853 33 l 478 957 q 468 970 475 965 q 450 975 461 975 q 434 972 440 975 q 424 957 428 968 l 50 38 q 49 24 47 29 q 57 7 50 14 q 78 0 64 0 q 93 5 86 0 q 103 18 100 10 l 454 901 m 197 301 l 681 301 l 667 357 l 217 357 l 197 301 m 457 1186 l 442 1181 l 568 1082 q 582 1072 575 1076 q 594 1068 589 1068 q 606 1074 601 1068 q 611 1085 611 1079 q 609 1093 611 1089 q 603 1101 607 1097 l 490 1219 q 475 1232 482 1228 q 457 1236 468 1236 l 443 1236 q 425 1232 432 1236 q 410 1219 418 1228 l 297 1100 q 291 1092 293 1096 q 289 1083 289 1088 q 294 1072 289 1078 q 306 1067 299 1067 q 319 1071 313 1067 q 332 1081 325 1075 l 457 1186 m 619 1150 q 635 1153 628 1150 q 649 1160 643 1157 l 783 1225 q 798 1238 793 1231 q 803 1258 803 1246 q 795 1281 803 1271 q 771 1292 788 1292 q 753 1288 761 1292 q 740 1281 746 1285 l 615 1188 q 606 1178 610 1183 q 603 1167 603 1174 q 606 1156 603 1161 q 619 1150 610 1150 "},"Ậ":{"ha":901,"x_min":47,"x_max":853,"o":"m 454 901 l 433 913 l 796 18 q 806 5 799 10 q 824 0 814 0 q 844 7 836 0 q 853 26 853 14 q 851 38 853 33 l 478 957 q 468 970 475 965 q 450 975 461 975 q 434 972 440 975 q 424 957 428 968 l 50 38 q 49 24 47 29 q 57 7 50 14 q 78 0 64 0 q 93 5 86 0 q 103 18 100 10 l 454 901 m 197 301 l 681 301 l 667 357 l 217 357 l 197 301 m 451 -190 q 485 -176 472 -190 q 499 -140 499 -162 l 499 -129 q 485 -93 499 -107 q 453 -79 472 -79 q 417 -93 431 -79 q 403 -129 403 -107 l 403 -140 q 416 -176 403 -162 q 451 -190 429 -190 m 457 1186 l 442 1181 l 568 1082 q 582 1072 575 1076 q 594 1068 589 1068 q 606 1074 601 1068 q 611 1085 611 1079 q 609 1093 611 1089 q 603 1101 607 1097 l 490 1219 q 475 1232 482 1228 q 457 1236 468 1236 l 443 1236 q 425 1232 432 1236 q 410 1219 418 1228 l 297 1100 q 291 1092 293 1096 q 289 1083 289 1088 q 294 1072 289 1078 q 306 1067 299 1067 q 319 1071 313 1067 q 332 1081 325 1075 l 457 1186 "},"Ầ":{"ha":901,"x_min":47,"x_max":853,"o":"m 454 901 l 433 913 l 796 18 q 806 5 799 10 q 824 0 814 0 q 844 7 836 0 q 853 26 853 14 q 851 38 853 33 l 478 957 q 468 970 475 965 q 450 975 461 975 q 434 972 440 975 q 424 957 428 968 l 50 38 q 49 24 47 29 q 57 7 50 14 q 78 0 64 0 q 93 5 86 0 q 103 18 100 10 l 454 901 m 197 301 l 681 301 l 667 357 l 217 357 l 197 301 m 457 1186 l 442 1181 l 568 1082 q 582 1072 575 1076 q 594 1068 589 1068 q 606 1074 601 1068 q 611 1085 611 1079 q 609 1093 611 1089 q 603 1101 607 1097 l 490 1219 q 475 1232 482 1228 q 457 1236 468 1236 l 443 1236 q 425 1232 432 1236 q 410 1219 418 1228 l 297 1100 q 291 1092 293 1096 q 289 1083 289 1088 q 294 1072 289 1078 q 306 1067 299 1067 q 319 1071 313 1067 q 332 1081 325 1075 l 457 1186 m 607 1211 q 620 1217 617 1211 q 624 1228 624 1222 q 620 1240 624 1235 q 611 1249 617 1244 l 486 1342 q 473 1349 481 1346 q 456 1353 465 1353 q 431 1342 439 1353 q 424 1319 424 1332 q 443 1286 424 1297 l 578 1221 q 592 1215 585 1218 q 607 1211 599 1211 "},"Ẩ":{"ha":901,"x_min":47,"x_max":853,"o":"m 454 901 l 433 913 l 796 18 q 806 5 799 10 q 824 0 814 0 q 844 7 836 0 q 853 26 853 14 q 851 38 853 33 l 478 957 q 468 970 475 965 q 450 975 461 975 q 434 972 440 975 q 424 957 428 968 l 50 38 q 49 24 47 29 q 57 7 50 14 q 78 0 64 0 q 93 5 86 0 q 103 18 100 10 l 454 901 m 197 301 l 681 301 l 667 357 l 217 357 l 197 301 m 457 1186 l 442 1181 l 568 1082 q 582 1072 575 1076 q 594 1068 589 1068 q 606 1074 601 1068 q 611 1085 611 1079 q 609 1093 611 1089 q 603 1101 607 1097 l 490 1219 q 475 1232 482 1228 q 457 1236 468 1236 l 443 1236 q 425 1232 432 1236 q 410 1219 418 1228 l 297 1100 q 291 1092 293 1096 q 289 1083 289 1088 q 294 1072 289 1078 q 306 1067 299 1067 q 319 1071 313 1067 q 332 1081 325 1075 l 457 1186 m 556 1301 q 546 1283 546 1292 q 551 1267 546 1274 q 572 1258 560 1257 q 594 1269 583 1260 q 624 1288 607 1279 q 660 1296 640 1296 q 696 1283 681 1296 q 711 1251 711 1271 q 699 1221 711 1233 q 668 1189 688 1208 q 651 1160 654 1175 q 649 1133 649 1144 q 654 1118 649 1125 q 671 1111 660 1111 q 687 1116 681 1111 q 694 1131 693 1121 q 699 1150 696 1143 q 707 1163 701 1157 q 745 1206 731 1186 q 760 1250 760 1225 q 750 1292 760 1269 q 718 1330 740 1314 q 657 1346 696 1346 q 601 1333 628 1346 q 556 1301 575 1321 "},"Ẫ":{"ha":901,"x_min":47,"x_max":853,"o":"m 454 901 l 433 913 l 796 18 q 806 5 799 10 q 824 0 814 0 q 844 7 836 0 q 853 26 853 14 q 851 38 853 33 l 478 957 q 468 970 475 965 q 450 975 461 975 q 434 972 440 975 q 424 957 428 968 l 50 38 q 49 24 47 29 q 57 7 50 14 q 78 0 64 0 q 93 5 86 0 q 103 18 100 10 l 454 901 m 197 301 l 681 301 l 667 357 l 217 357 l 197 301 m 457 1132 l 442 1126 l 568 1028 q 582 1018 575 1022 q 594 1014 589 1014 q 606 1019 601 1014 q 611 1031 611 1025 q 609 1039 611 1035 q 603 1047 607 1043 l 490 1165 q 475 1178 482 1174 q 457 1182 468 1182 l 443 1182 q 425 1178 432 1182 q 410 1165 418 1174 l 297 1046 q 291 1038 293 1042 q 289 1029 289 1033 q 294 1018 289 1024 q 306 1013 299 1013 q 319 1017 313 1013 q 332 1026 325 1021 l 457 1132 m 275 1188 q 290 1192 282 1188 q 300 1207 297 1197 q 326 1253 310 1239 q 363 1268 342 1268 q 417 1249 386 1268 q 481 1211 449 1231 q 540 1192 514 1192 q 587 1200 565 1192 q 624 1228 608 1208 q 647 1282 640 1249 q 648 1316 651 1303 q 628 1329 644 1329 q 610 1322 617 1329 q 603 1304 604 1315 q 585 1259 599 1276 q 551 1242 572 1242 q 496 1261 528 1242 q 431 1301 464 1281 q 368 1321 397 1321 q 303 1301 335 1321 q 258 1236 271 1282 q 257 1200 253 1213 q 275 1188 261 1188 "},"Ȁ":{"ha":901,"x_min":47,"x_max":853,"o":"m 454 901 l 433 913 l 796 18 q 806 5 799 10 q 824 0 814 0 q 844 7 836 0 q 853 26 853 14 q 851 38 853 33 l 478 957 q 468 970 475 965 q 450 975 461 975 q 434 972 440 975 q 424 957 428 968 l 50 38 q 49 24 47 29 q 57 7 50 14 q 78 0 64 0 q 93 5 86 0 q 103 18 100 10 l 454 901 m 197 301 l 681 301 l 667 357 l 217 357 l 197 301 m 407 1050 q 420 1056 417 1050 q 424 1067 424 1061 q 420 1078 424 1074 q 411 1088 417 1083 l 286 1181 q 273 1188 281 1185 q 256 1192 265 1192 q 231 1181 239 1192 q 224 1158 224 1171 q 243 1125 224 1136 l 378 1060 q 392 1053 385 1057 q 407 1050 399 1050 m 622 1044 q 635 1050 632 1044 q 639 1061 639 1056 q 635 1073 639 1068 q 626 1082 632 1078 l 501 1175 q 488 1183 496 1179 q 471 1186 481 1186 q 447 1176 454 1186 q 439 1153 439 1165 q 458 1119 439 1131 l 593 1054 q 607 1048 600 1051 q 622 1044 614 1044 "},"Ä":{"ha":901,"x_min":47,"x_max":853,"o":"m 454 901 l 433 913 l 796 18 q 806 5 799 10 q 824 0 814 0 q 844 7 836 0 q 853 26 853 14 q 851 38 853 33 l 478 957 q 468 970 475 965 q 450 975 461 975 q 434 972 440 975 q 424 957 428 968 l 50 38 q 49 24 47 29 q 57 7 50 14 q 78 0 64 0 q 93 5 86 0 q 103 18 100 10 l 454 901 m 197 301 l 681 301 l 667 357 l 217 357 l 197 301 m 565 1083 q 599 1097 586 1083 q 613 1133 613 1111 l 613 1144 q 599 1181 613 1167 q 567 1194 586 1194 q 531 1181 544 1194 q 517 1144 517 1167 l 517 1133 q 530 1097 517 1111 q 565 1083 543 1083 m 339 1083 q 373 1097 360 1083 q 386 1133 386 1111 l 386 1144 q 373 1181 386 1167 q 340 1194 360 1194 q 304 1181 318 1194 q 290 1144 290 1167 l 290 1133 q 303 1097 290 1111 q 339 1083 317 1083 "},"Ạ":{"ha":901,"x_min":47,"x_max":853,"o":"m 454 901 l 433 913 l 796 18 q 806 5 799 10 q 824 0 814 0 q 844 7 836 0 q 853 26 853 14 q 851 38 853 33 l 478 957 q 468 970 475 965 q 450 975 461 975 q 434 972 440 975 q 424 957 428 968 l 50 38 q 49 24 47 29 q 57 7 50 14 q 78 0 64 0 q 93 5 86 0 q 103 18 100 10 l 454 901 m 197 301 l 681 301 l 667 357 l 217 357 l 197 301 m 451 -190 q 485 -176 472 -190 q 499 -140 499 -162 l 499 -129 q 485 -93 499 -107 q 453 -79 472 -79 q 417 -93 431 -79 q 403 -129 403 -107 l 403 -140 q 416 -176 403 -162 q 451 -190 429 -190 "},"À":{"ha":901,"x_min":47,"x_max":853,"o":"m 454 901 l 433 913 l 796 18 q 806 5 799 10 q 824 0 814 0 q 844 7 836 0 q 853 26 853 14 q 851 38 853 33 l 478 957 q 468 970 475 965 q 450 975 461 975 q 434 972 440 975 q 424 957 428 968 l 50 38 q 49 24 47 29 q 57 7 50 14 q 78 0 64 0 q 93 5 86 0 q 103 18 100 10 l 454 901 m 197 301 l 681 301 l 667 357 l 217 357 l 197 301 m 451 1039 q 465 1044 461 1039 q 468 1056 468 1050 q 465 1067 468 1063 q 456 1076 461 1072 l 331 1169 q 317 1177 325 1174 q 300 1181 310 1181 q 276 1170 283 1181 q 268 1147 268 1160 q 288 1114 268 1125 l 422 1049 q 436 1042 429 1046 q 451 1039 443 1039 "},"Ả":{"ha":901,"x_min":47,"x_max":853,"o":"m 454 901 l 433 913 l 796 18 q 806 5 799 10 q 824 0 814 0 q 844 7 836 0 q 853 26 853 14 q 851 38 853 33 l 478 957 q 468 970 475 965 q 450 975 461 975 q 434 972 440 975 q 424 957 428 968 l 50 38 q 49 24 47 29 q 57 7 50 14 q 78 0 64 0 q 93 5 86 0 q 103 18 100 10 l 454 901 m 197 301 l 681 301 l 667 357 l 217 357 l 197 301 m 354 1242 q 344 1223 344 1232 q 350 1207 344 1214 q 370 1199 358 1197 q 393 1210 382 1200 q 422 1228 406 1219 q 458 1236 439 1236 q 494 1224 479 1236 q 510 1192 510 1211 q 498 1161 510 1174 q 467 1129 486 1149 q 450 1100 453 1115 q 447 1074 447 1085 q 453 1058 447 1065 q 469 1051 458 1051 q 485 1056 479 1051 q 493 1071 492 1061 q 497 1090 494 1083 q 506 1103 500 1097 q 544 1146 529 1126 q 558 1190 558 1165 q 549 1232 558 1210 q 517 1270 539 1254 q 456 1286 494 1286 q 400 1274 426 1286 q 354 1242 374 1261 "},"Ȃ":{"ha":901,"x_min":47,"x_max":853,"o":"m 454 901 l 433 913 l 796 18 q 806 5 799 10 q 824 0 814 0 q 844 7 836 0 q 853 26 853 14 q 851 38 853 33 l 478 957 q 468 970 475 965 q 450 975 461 975 q 434 972 440 975 q 424 957 428 968 l 50 38 q 49 24 47 29 q 57 7 50 14 q 78 0 64 0 q 93 5 86 0 q 103 18 100 10 l 454 901 m 197 301 l 681 301 l 667 357 l 217 357 l 197 301 m 449 1172 q 365 1153 403 1172 q 303 1101 326 1133 q 281 1033 281 1069 q 288 1016 281 1024 q 307 1008 296 1008 q 328 1016 321 1008 q 336 1036 335 1024 q 375 1098 343 1076 q 449 1119 407 1119 q 522 1098 490 1119 q 561 1036 554 1076 q 570 1016 564 1024 q 590 1008 576 1008 q 609 1016 601 1008 q 617 1033 617 1024 q 594 1101 617 1069 q 533 1153 571 1133 q 449 1172 496 1172 "},"Ā":{"ha":901,"x_min":47,"x_max":853,"o":"m 454 901 l 433 913 l 796 18 q 806 5 799 10 q 824 0 814 0 q 844 7 836 0 q 853 26 853 14 q 851 38 853 33 l 478 957 q 468 970 475 965 q 450 975 461 975 q 434 972 440 975 q 424 957 428 968 l 50 38 q 49 24 47 29 q 57 7 50 14 q 78 0 64 0 q 93 5 86 0 q 103 18 100 10 l 454 901 m 197 301 l 681 301 l 667 357 l 217 357 l 197 301 m 276 1111 l 638 1111 q 668 1136 668 1111 q 638 1164 668 1164 l 276 1164 q 246 1136 246 1164 q 276 1111 246 1111 "},"Ą":{"ha":901,"x_min":47,"x_max":897,"o":"m 797 -257 q 845 -248 822 -257 q 883 -223 868 -239 q 897 -189 897 -207 q 891 -176 897 -182 q 875 -169 885 -169 q 860 -175 865 -169 q 849 -189 854 -181 q 804 -206 839 -206 q 751 -183 775 -206 q 728 -118 728 -160 q 758 -42 728 -78 q 826 0 789 -7 q 847 8 839 3 q 854 25 854 13 q 851 38 854 29 l 478 957 q 468 970 475 965 q 450 975 461 975 q 434 972 440 975 q 424 957 428 968 l 50 38 q 49 24 47 29 q 57 7 50 14 q 78 0 64 0 q 93 5 86 0 q 103 18 100 10 l 454 901 l 433 913 l 796 18 l 808 28 l 794 32 q 751 11 772 25 q 713 -24 731 -3 q 685 -71 696 -44 q 675 -129 675 -97 q 713 -222 675 -187 q 797 -257 751 -257 m 197 301 l 681 301 l 667 357 l 217 357 l 197 301 "},"Å":{"ha":901,"x_min":47,"x_max":853,"o":"m 451 932 q 519 949 488 932 q 569 997 550 967 q 588 1063 588 1026 q 569 1128 588 1099 q 519 1176 550 1158 q 451 1193 488 1193 q 384 1176 415 1193 q 334 1128 353 1158 q 315 1063 315 1099 q 334 997 315 1026 q 384 949 353 967 q 451 932 415 932 m 451 976 q 391 1002 417 976 q 365 1063 365 1028 q 391 1124 365 1099 q 451 1149 417 1149 q 513 1124 488 1149 q 538 1063 538 1099 q 513 1002 538 1028 q 451 976 488 976 m 454 901 l 433 913 l 796 18 q 806 5 799 10 q 824 0 814 0 q 844 7 836 0 q 853 26 853 14 q 851 38 853 33 l 478 957 q 468 970 475 965 q 450 975 461 975 q 434 972 440 975 q 424 957 428 968 l 50 38 q 49 24 47 29 q 57 7 50 14 q 78 0 64 0 q 93 5 86 0 q 103 18 100 10 l 454 901 m 197 301 l 681 301 l 667 357 l 217 357 l 197 301 "},"Ǻ":{"ha":901,"x_min":47,"x_max":853,"o":"m 451 932 q 519 949 488 932 q 569 997 550 967 q 588 1063 588 1026 q 569 1128 588 1099 q 519 1176 550 1158 q 451 1193 488 1193 q 384 1176 415 1193 q 334 1128 353 1158 q 315 1063 315 1099 q 334 997 315 1026 q 384 949 353 967 q 451 932 415 932 m 451 976 q 391 1002 417 976 q 365 1063 365 1028 q 391 1124 365 1099 q 451 1149 417 1149 q 513 1124 488 1149 q 538 1063 538 1099 q 513 1002 538 1028 q 451 976 488 976 m 454 901 l 433 913 l 796 18 q 806 5 799 10 q 824 0 814 0 q 844 7 836 0 q 853 26 853 14 q 851 38 853 33 l 478 957 q 468 970 475 965 q 450 975 461 975 q 434 972 440 975 q 424 957 428 968 l 50 38 q 49 24 47 29 q 57 7 50 14 q 78 0 64 0 q 93 5 86 0 q 103 18 100 10 l 454 901 m 197 301 l 681 301 l 667 357 l 217 357 l 197 301 m 457 1260 q 473 1263 465 1260 q 486 1269 481 1267 l 621 1335 q 635 1348 631 1340 q 640 1368 640 1356 q 633 1391 640 1381 q 608 1401 625 1401 q 591 1398 599 1401 q 578 1390 583 1394 l 453 1297 q 444 1288 447 1293 q 440 1276 440 1283 q 444 1265 440 1271 q 457 1260 447 1260 "},"Ã":{"ha":901,"x_min":47,"x_max":853,"o":"m 454 901 l 433 913 l 796 18 q 806 5 799 10 q 824 0 814 0 q 844 7 836 0 q 853 26 853 14 q 851 38 853 33 l 478 957 q 468 970 475 965 q 450 975 461 975 q 434 972 440 975 q 424 957 428 968 l 50 38 q 49 24 47 29 q 57 7 50 14 q 78 0 64 0 q 93 5 86 0 q 103 18 100 10 l 454 901 m 197 301 l 681 301 l 667 357 l 217 357 l 197 301 m 275 1086 q 290 1091 282 1086 q 300 1106 297 1096 q 326 1152 310 1138 q 363 1167 342 1167 q 417 1148 386 1167 q 481 1110 449 1129 q 540 1090 514 1090 q 587 1099 565 1090 q 624 1127 608 1107 q 647 1181 640 1147 q 648 1215 651 1201 q 628 1228 644 1228 q 610 1221 617 1228 q 603 1203 604 1214 q 585 1158 599 1175 q 551 1140 572 1140 q 496 1160 528 1140 q 431 1199 464 1179 q 368 1219 397 1219 q 303 1200 335 1219 q 258 1135 271 1181 q 257 1099 253 1111 q 275 1086 261 1086 "},"Æ":{"ha":1293,"x_min":13,"x_max":1224,"o":"m 233 301 l 179 246 l 682 246 l 658 265 l 658 28 q 667 8 658 17 q 686 0 675 0 l 1196 0 q 1215 8 1207 0 q 1224 28 1224 15 q 1215 47 1224 39 q 1196 56 1207 56 l 706 56 l 714 42 l 714 486 l 703 474 l 1133 474 q 1153 481 1144 474 q 1161 501 1161 489 q 1153 521 1161 513 q 1133 529 1144 529 l 706 529 l 714 515 l 714 931 l 704 917 l 1196 917 q 1215 924 1207 917 q 1224 944 1224 932 q 1215 964 1224 956 q 1196 972 1207 972 l 683 972 q 670 969 676 972 q 658 960 664 967 l 17 43 q 13 28 13 38 q 21 7 13 15 q 39 -1 29 -1 q 63 11 54 -1 l 676 889 l 658 919 l 658 279 l 682 301 l 233 301 "},"Ǽ":{"ha":1293,"x_min":13,"x_max":1224,"o":"m 233 301 l 179 246 l 682 246 l 658 265 l 658 28 q 667 8 658 17 q 686 0 675 0 l 1196 0 q 1215 8 1207 0 q 1224 28 1224 15 q 1215 47 1224 39 q 1196 56 1207 56 l 706 56 l 714 42 l 714 486 l 703 474 l 1133 474 q 1153 481 1144 474 q 1161 501 1161 489 q 1153 521 1161 513 q 1133 529 1144 529 l 706 529 l 714 515 l 714 931 l 704 917 l 1196 917 q 1215 924 1207 917 q 1224 944 1224 932 q 1215 964 1224 956 q 1196 972 1207 972 l 683 972 q 670 969 676 972 q 658 960 664 967 l 17 43 q 13 28 13 38 q 21 7 13 15 q 39 -1 29 -1 q 63 11 54 -1 l 676 889 l 658 919 l 658 279 l 682 301 l 233 301 m 885 1039 q 901 1042 893 1039 q 914 1049 908 1046 l 1049 1114 q 1063 1127 1058 1119 q 1068 1147 1068 1135 q 1060 1170 1068 1160 q 1036 1181 1053 1181 q 1019 1177 1026 1181 q 1006 1169 1011 1174 l 881 1076 q 872 1067 875 1072 q 868 1056 868 1063 q 872 1044 868 1050 q 885 1039 875 1039 "},"B":{"ha":903,"x_min":139,"x_max":833,"o":"m 540 972 l 167 972 q 147 964 156 972 q 139 944 139 956 l 139 28 q 147 8 139 17 q 167 0 156 0 l 550 0 q 660 16 608 0 q 750 65 711 32 q 811 147 789 97 q 833 263 833 196 q 813 372 833 325 q 758 450 793 418 q 676 498 724 482 q 575 514 629 514 l 585 497 q 694 538 650 503 q 762 626 739 572 q 785 736 785 679 q 718 908 785 844 q 540 972 651 972 m 533 917 q 676 867 626 917 q 726 738 726 818 q 671 581 726 633 q 533 526 615 528 l 183 526 l 197 503 l 197 943 l 182 917 l 533 917 m 543 469 q 661 448 608 469 q 744 381 714 426 q 775 263 775 335 q 708 105 775 154 q 543 56 642 56 l 190 56 l 197 44 l 197 478 l 192 469 l 543 469 "},"C":{"ha":919,"x_min":69,"x_max":872,"o":"m 858 892 q 717 961 796 936 q 554 986 639 986 q 367 949 454 986 q 213 844 279 911 q 108 685 146 776 q 69 486 69 594 q 108 287 69 378 q 213 128 146 196 q 367 24 279 61 q 554 -14 454 -14 q 668 -1 611 -14 q 776 35 725 13 q 860 81 826 57 q 871 99 869 88 q 865 119 872 110 q 847 131 858 129 q 826 125 836 132 q 700 63 768 86 q 554 39 632 39 q 388 72 465 39 q 253 164 311 104 q 161 306 194 224 q 128 486 128 388 q 161 667 128 585 q 253 808 194 749 q 388 901 311 868 q 554 933 465 933 q 701 910 632 933 q 828 846 769 886 q 848 841 838 840 q 865 851 858 842 q 871 873 872 863 q 858 892 869 883 "},"Ć":{"ha":919,"x_min":69,"x_max":872,"o":"m 858 892 q 717 961 796 936 q 554 986 639 986 q 367 949 454 986 q 213 844 279 911 q 108 685 146 776 q 69 486 69 594 q 108 287 69 378 q 213 128 146 196 q 367 24 279 61 q 554 -14 454 -14 q 668 -1 611 -14 q 776 35 725 13 q 860 81 826 57 q 871 99 869 88 q 865 119 872 110 q 847 131 858 129 q 826 125 836 132 q 700 63 768 86 q 554 39 632 39 q 388 72 465 39 q 253 164 311 104 q 161 306 194 224 q 128 486 128 388 q 161 667 128 585 q 253 808 194 749 q 388 901 311 868 q 554 933 465 933 q 701 910 632 933 q 828 846 769 886 q 848 841 838 840 q 865 851 858 842 q 871 873 872 863 q 858 892 869 883 m 560 1039 q 576 1042 568 1039 q 589 1049 583 1046 l 724 1114 q 738 1127 733 1119 q 743 1147 743 1135 q 735 1170 743 1160 q 711 1181 728 1181 q 694 1177 701 1181 q 681 1169 686 1174 l 556 1076 q 547 1067 550 1072 q 543 1056 543 1063 q 547 1044 543 1050 q 560 1039 550 1039 "},"Č":{"ha":919,"x_min":69,"x_max":872,"o":"m 858 892 q 717 961 796 936 q 554 986 639 986 q 367 949 454 986 q 213 844 279 911 q 108 685 146 776 q 69 486 69 594 q 108 287 69 378 q 213 128 146 196 q 367 24 279 61 q 554 -14 454 -14 q 668 -1 611 -14 q 776 35 725 13 q 860 81 826 57 q 871 99 869 88 q 865 119 872 110 q 847 131 858 129 q 826 125 836 132 q 700 63 768 86 q 554 39 632 39 q 388 72 465 39 q 253 164 311 104 q 161 306 194 224 q 128 486 128 388 q 161 667 128 585 q 253 808 194 749 q 388 901 311 868 q 554 933 465 933 q 701 910 632 933 q 828 846 769 886 q 848 841 838 840 q 865 851 858 842 q 871 873 872 863 q 858 892 869 883 m 546 1104 l 561 1110 l 435 1208 q 408 1222 418 1222 q 397 1217 401 1222 q 392 1206 392 1213 q 394 1197 392 1201 q 400 1189 396 1193 l 513 1071 q 527 1058 519 1061 q 546 1054 535 1054 l 560 1054 q 579 1058 571 1054 q 593 1071 588 1061 l 706 1190 q 712 1199 710 1194 q 714 1207 714 1203 q 709 1219 714 1214 q 697 1224 704 1224 q 685 1220 692 1224 q 671 1210 678 1217 l 546 1104 "},"Ç":{"ha":919,"x_min":69,"x_max":872,"o":"m 858 892 q 717 961 796 936 q 554 986 639 986 q 367 949 454 986 q 213 844 279 911 q 108 685 146 776 q 69 486 69 594 q 108 287 69 378 q 213 128 146 196 q 367 24 279 61 q 554 -14 454 -14 q 668 -1 611 -14 q 776 35 725 13 q 860 81 826 57 q 871 99 869 88 q 865 119 872 110 q 847 131 858 129 q 826 125 836 132 q 700 63 768 86 q 554 39 632 39 q 388 72 465 39 q 253 164 311 104 q 161 306 194 224 q 128 486 128 388 q 161 667 128 585 q 253 808 194 749 q 388 901 311 868 q 554 933 465 933 q 701 910 632 933 q 828 846 769 886 q 848 841 838 840 q 865 851 858 842 q 871 873 872 863 q 858 892 869 883 m 474 -196 q 503 -175 493 -196 l 596 14 l 557 14 l 432 -139 q 425 -158 425 -146 q 434 -177 425 -168 q 455 -191 443 -186 q 474 -196 467 -196 "},"Ḉ":{"ha":919,"x_min":69,"x_max":872,"o":"m 858 892 q 717 961 796 936 q 554 986 639 986 q 367 949 454 986 q 213 844 279 911 q 108 685 146 776 q 69 486 69 594 q 108 287 69 378 q 213 128 146 196 q 367 24 279 61 q 554 -14 454 -14 q 668 -1 611 -14 q 776 35 725 13 q 860 81 826 57 q 871 99 869 88 q 865 119 872 110 q 847 131 858 129 q 826 125 836 132 q 700 63 768 86 q 554 39 632 39 q 388 72 465 39 q 253 164 311 104 q 161 306 194 224 q 128 486 128 388 q 161 667 128 585 q 253 808 194 749 q 388 901 311 868 q 554 933 465 933 q 701 910 632 933 q 828 846 769 886 q 848 841 838 840 q 865 851 858 842 q 871 873 872 863 q 858 892 869 883 m 474 -196 q 503 -175 493 -196 l 596 14 l 557 14 l 432 -139 q 425 -158 425 -146 q 434 -177 425 -168 q 455 -191 443 -186 q 474 -196 467 -196 m 560 1039 q 576 1042 568 1039 q 589 1049 583 1046 l 724 1114 q 738 1127 733 1119 q 743 1147 743 1135 q 735 1170 743 1160 q 711 1181 728 1181 q 694 1177 701 1181 q 681 1169 686 1174 l 556 1076 q 547 1067 550 1072 q 543 1056 543 1063 q 547 1044 543 1050 q 560 1039 550 1039 "},"Ĉ":{"ha":919,"x_min":69,"x_max":872,"o":"m 858 892 q 717 961 796 936 q 554 986 639 986 q 367 949 454 986 q 213 844 279 911 q 108 685 146 776 q 69 486 69 594 q 108 287 69 378 q 213 128 146 196 q 367 24 279 61 q 554 -14 454 -14 q 668 -1 611 -14 q 776 35 725 13 q 860 81 826 57 q 871 99 869 88 q 865 119 872 110 q 847 131 858 129 q 826 125 836 132 q 700 63 768 86 q 554 39 632 39 q 388 72 465 39 q 253 164 311 104 q 161 306 194 224 q 128 486 128 388 q 161 667 128 585 q 253 808 194 749 q 388 901 311 868 q 554 933 465 933 q 701 910 632 933 q 828 846 769 886 q 848 841 838 840 q 865 851 858 842 q 871 873 872 863 q 858 892 869 883 m 560 1186 l 544 1181 l 671 1082 q 685 1072 678 1076 q 697 1068 692 1068 q 709 1074 704 1068 q 714 1085 714 1079 q 712 1093 714 1089 q 706 1101 710 1097 l 593 1219 q 578 1232 585 1228 q 560 1236 571 1236 l 546 1236 q 528 1232 535 1236 q 513 1219 521 1228 l 400 1100 q 394 1092 396 1096 q 392 1083 392 1088 q 397 1072 392 1078 q 408 1067 401 1067 q 422 1071 415 1067 q 435 1081 428 1075 l 560 1186 "},"Ċ":{"ha":919,"x_min":69,"x_max":872,"o":"m 858 892 q 717 961 796 936 q 554 986 639 986 q 367 949 454 986 q 213 844 279 911 q 108 685 146 776 q 69 486 69 594 q 108 287 69 378 q 213 128 146 196 q 367 24 279 61 q 554 -14 454 -14 q 668 -1 611 -14 q 776 35 725 13 q 860 81 826 57 q 871 99 869 88 q 865 119 872 110 q 847 131 858 129 q 826 125 836 132 q 700 63 768 86 q 554 39 632 39 q 388 72 465 39 q 253 164 311 104 q 161 306 194 224 q 128 486 128 388 q 161 667 128 585 q 253 808 194 749 q 388 901 311 868 q 554 933 465 933 q 701 910 632 933 q 828 846 769 886 q 848 841 838 840 q 865 851 858 842 q 871 873 872 863 q 858 892 869 883 m 528 1083 q 562 1097 549 1083 q 575 1133 575 1111 l 575 1144 q 562 1181 575 1167 q 529 1194 549 1194 q 493 1181 507 1194 q 479 1144 479 1167 l 479 1133 q 492 1097 479 1111 q 528 1083 506 1083 "},"D":{"ha":1000,"x_min":139,"x_max":931,"o":"m 528 972 l 167 972 q 147 964 156 972 q 139 944 139 956 l 139 28 q 147 8 139 17 q 167 0 156 0 l 528 0 q 757 66 668 0 q 888 242 846 132 q 931 486 931 353 q 907 668 931 581 q 834 824 883 756 q 708 933 785 893 q 528 972 632 972 m 514 56 l 189 56 l 197 43 l 197 928 l 189 917 l 514 917 q 678 882 610 917 q 789 787 746 847 q 852 649 832 726 q 872 486 872 571 q 835 269 872 367 q 720 113 799 171 q 514 56 642 56 "},"Ǆ":{"ha":1893,"x_min":139,"x_max":1824,"o":"m 528 972 l 167 972 q 147 964 156 972 q 139 944 139 956 l 139 28 q 147 8 139 17 q 167 0 156 0 l 528 0 q 757 66 668 0 q 888 242 846 132 q 931 486 931 353 q 907 668 931 581 q 834 824 883 756 q 708 933 785 893 q 528 972 632 972 m 514 56 l 189 56 l 197 43 l 197 928 l 189 917 l 514 917 q 678 882 610 917 q 789 787 746 847 q 852 649 832 726 q 872 486 872 571 q 835 269 872 367 q 720 113 799 171 q 514 56 642 56 m 1792 972 l 1139 972 q 1119 965 1128 972 q 1111 946 1111 957 q 1119 928 1111 936 q 1139 919 1128 919 l 1757 919 l 1749 925 l 1089 46 q 1083 29 1083 39 q 1090 10 1083 19 q 1111 0 1097 0 l 1794 0 q 1814 8 1806 0 q 1822 26 1822 15 q 1814 44 1822 36 q 1794 53 1806 53 l 1156 53 l 1154 39 l 1818 928 q 1824 944 1824 935 q 1817 963 1824 954 q 1792 972 1810 972 m 1439 1104 l 1454 1110 l 1328 1208 q 1301 1222 1311 1222 q 1290 1217 1294 1222 q 1285 1206 1285 1213 q 1287 1197 1285 1201 q 1293 1189 1289 1193 l 1406 1071 q 1420 1058 1413 1061 q 1439 1054 1428 1054 l 1453 1054 q 1472 1058 1464 1054 q 1486 1071 1481 1061 l 1599 1190 q 1605 1199 1603 1194 q 1607 1207 1607 1203 q 1602 1219 1607 1214 q 1590 1224 1597 1224 q 1578 1220 1585 1224 q 1564 1210 1571 1217 l 1439 1104 "},"Ð":{"ha":1000,"x_min":33,"x_max":931,"o":"m 528 972 l 167 972 q 147 964 156 972 q 139 944 139 956 l 139 28 q 147 8 139 17 q 167 0 156 0 l 528 0 q 757 66 668 0 q 888 242 846 132 q 931 486 931 353 q 907 668 931 581 q 834 824 883 756 q 708 933 785 893 q 528 972 632 972 m 514 56 l 189 56 l 197 43 l 197 928 l 189 917 l 514 917 q 678 882 610 917 q 789 787 746 847 q 852 649 832 726 q 872 486 872 571 q 835 269 872 367 q 720 113 799 171 q 514 56 642 56 m 61 461 l 283 461 q 304 467 297 461 q 311 486 311 474 q 304 507 311 500 q 283 514 297 514 l 61 514 q 40 507 47 514 q 33 488 33 500 q 40 467 33 474 q 61 461 47 461 "},"Ď":{"ha":1000,"x_min":139,"x_max":931,"o":"m 528 972 l 167 972 q 147 964 156 972 q 139 944 139 956 l 139 28 q 147 8 139 17 q 167 0 156 0 l 528 0 q 757 66 668 0 q 888 242 846 132 q 931 486 931 353 q 907 668 931 581 q 834 824 883 756 q 708 933 785 893 q 528 972 632 972 m 514 56 l 189 56 l 197 43 l 197 928 l 189 917 l 514 917 q 678 882 610 917 q 789 787 746 847 q 852 649 832 726 q 872 486 872 571 q 835 269 872 367 q 720 113 799 171 q 514 56 642 56 m 426 1104 l 442 1110 l 315 1208 q 289 1222 299 1222 q 277 1217 282 1222 q 272 1206 272 1213 q 274 1197 272 1201 q 281 1189 276 1193 l 393 1071 q 408 1058 400 1061 q 426 1054 415 1054 l 440 1054 q 460 1058 451 1054 q 474 1071 468 1061 l 586 1190 q 592 1199 590 1194 q 594 1207 594 1203 q 590 1219 594 1214 q 578 1224 585 1224 q 565 1220 572 1224 q 551 1210 558 1217 l 426 1104 "},"Ḓ":{"ha":1000,"x_min":139,"x_max":931,"o":"m 528 972 l 167 972 q 147 964 156 972 q 139 944 139 956 l 139 28 q 147 8 139 17 q 167 0 156 0 l 528 0 q 757 66 668 0 q 888 242 846 132 q 931 486 931 353 q 907 668 931 581 q 834 824 883 756 q 708 933 785 893 q 528 972 632 972 m 514 56 l 189 56 l 197 43 l 197 928 l 189 917 l 514 917 q 678 882 610 917 q 789 787 746 847 q 852 649 832 726 q 872 486 872 571 q 835 269 872 367 q 720 113 799 171 q 514 56 642 56 m 431 -158 l 415 -164 l 542 -262 q 556 -272 549 -268 q 568 -276 563 -276 q 580 -271 575 -276 q 585 -260 585 -265 q 583 -251 585 -256 q 576 -243 581 -247 l 464 -125 q 450 -112 458 -115 q 431 -108 442 -108 l 417 -108 q 383 -125 394 -108 l 271 -244 q 265 -253 267 -249 q 263 -261 263 -257 q 267 -272 263 -267 q 279 -278 272 -278 q 292 -274 286 -278 q 306 -264 299 -269 l 431 -158 "},"Đ":{"ha":1000,"x_min":33,"x_max":931,"o":"m 528 972 l 167 972 q 147 964 156 972 q 139 944 139 956 l 139 28 q 147 8 139 17 q 167 0 156 0 l 528 0 q 757 66 668 0 q 888 242 846 132 q 931 486 931 353 q 907 668 931 581 q 834 824 883 756 q 708 933 785 893 q 528 972 632 972 m 514 56 l 189 56 l 197 43 l 197 928 l 189 917 l 514 917 q 678 882 610 917 q 789 787 746 847 q 852 649 832 726 q 872 486 872 571 q 835 269 872 367 q 720 113 799 171 q 514 56 642 56 m 61 461 l 283 461 q 304 467 297 461 q 311 486 311 474 q 304 507 311 500 q 283 514 297 514 l 61 514 q 40 507 47 514 q 33 488 33 500 q 40 467 33 474 q 61 461 47 461 "},"Ḍ":{"ha":1000,"x_min":139,"x_max":931,"o":"m 528 972 l 167 972 q 147 964 156 972 q 139 944 139 956 l 139 28 q 147 8 139 17 q 167 0 156 0 l 528 0 q 757 66 668 0 q 888 242 846 132 q 931 486 931 353 q 907 668 931 581 q 834 824 883 756 q 708 933 785 893 q 528 972 632 972 m 514 56 l 189 56 l 197 43 l 197 928 l 189 917 l 514 917 q 678 882 610 917 q 789 787 746 847 q 852 649 832 726 q 872 486 872 571 q 835 269 872 367 q 720 113 799 171 q 514 56 642 56 m 424 -190 q 458 -176 444 -190 q 471 -140 471 -162 l 471 -129 q 458 -93 471 -107 q 425 -79 444 -79 q 389 -93 403 -79 q 375 -129 375 -107 l 375 -140 q 388 -176 375 -162 q 424 -190 401 -190 "},"Ḏ":{"ha":1000,"x_min":139,"x_max":931,"o":"m 528 972 l 167 972 q 147 964 156 972 q 139 944 139 956 l 139 28 q 147 8 139 17 q 167 0 156 0 l 528 0 q 757 66 668 0 q 888 242 846 132 q 931 486 931 353 q 907 668 931 581 q 834 824 883 756 q 708 933 785 893 q 528 972 632 972 m 514 56 l 189 56 l 197 43 l 197 928 l 189 917 l 514 917 q 678 882 610 917 q 789 787 746 847 q 852 649 832 726 q 872 486 872 571 q 835 269 872 367 q 720 113 799 171 q 514 56 642 56 m 292 -162 l 569 -162 q 597 -137 597 -162 q 569 -111 597 -111 l 292 -111 q 264 -137 264 -111 q 292 -162 264 -162 "},"ǲ":{"ha":1661,"x_min":139,"x_max":1592,"o":"m 528 972 l 167 972 q 147 964 156 972 q 139 944 139 956 l 139 28 q 147 8 139 17 q 167 0 156 0 l 528 0 q 757 66 668 0 q 888 242 846 132 q 931 486 931 353 q 907 668 931 581 q 834 824 883 756 q 708 933 785 893 q 528 972 632 972 m 514 56 l 189 56 l 197 43 l 197 928 l 189 917 l 514 917 q 678 882 610 917 q 789 787 746 847 q 852 649 832 726 q 872 486 872 571 q 835 269 872 367 q 720 113 799 171 q 514 56 642 56 m 1550 53 l 1119 53 l 1140 46 l 1585 668 q 1590 677 1588 672 q 1592 688 1592 682 q 1583 707 1590 699 q 1564 715 1575 715 l 1139 715 q 1119 708 1128 715 q 1111 689 1111 700 q 1119 671 1111 679 q 1139 663 1128 663 l 1529 663 l 1522 674 l 1075 46 q 1070 38 1072 42 q 1068 28 1068 33 q 1076 10 1068 21 q 1097 0 1083 0 l 1550 0 q 1569 8 1561 0 q 1578 26 1578 15 q 1569 44 1578 36 q 1550 53 1561 53 "},"ǅ":{"ha":1663,"x_min":139,"x_max":1593,"o":"m 528 972 l 167 972 q 147 964 156 972 q 139 944 139 956 l 139 28 q 147 8 139 17 q 167 0 156 0 l 528 0 q 757 66 668 0 q 888 242 846 132 q 931 486 931 353 q 907 668 931 581 q 834 824 883 756 q 708 933 785 893 q 528 972 632 972 m 514 56 l 189 56 l 197 43 l 197 928 l 189 917 l 514 917 q 678 882 610 917 q 789 787 746 847 q 852 649 832 726 q 872 486 872 571 q 835 269 872 367 q 720 113 799 171 q 514 56 642 56 m 1551 53 l 1121 53 l 1142 46 l 1586 668 q 1591 677 1589 672 q 1593 688 1593 682 q 1584 707 1592 699 q 1565 715 1576 715 l 1140 715 q 1121 708 1129 715 q 1113 689 1113 700 q 1121 671 1113 679 q 1140 663 1129 663 l 1531 663 l 1524 674 l 1076 46 q 1072 38 1074 42 q 1069 28 1069 33 q 1077 10 1069 21 q 1099 0 1085 0 l 1551 0 q 1571 8 1563 0 q 1579 26 1579 15 q 1571 44 1579 36 q 1551 53 1563 53 m 1356 775 l 1369 775 q 1403 792 1392 775 l 1515 911 q 1522 919 1519 915 q 1524 928 1524 924 q 1519 940 1524 935 q 1507 944 1514 944 q 1494 941 1501 944 q 1481 931 1488 938 l 1356 825 l 1371 831 l 1244 929 q 1218 943 1228 943 q 1206 938 1211 943 q 1201 926 1201 933 q 1210 910 1201 918 l 1322 792 q 1356 775 1333 775 "},"E":{"ha":788,"x_min":139,"x_max":718,"o":"m 167 972 q 147 964 156 972 q 139 944 139 956 l 139 28 q 147 8 139 17 q 167 0 156 0 l 690 0 q 710 8 701 0 q 718 28 718 15 q 710 47 718 39 q 690 56 701 56 l 192 56 l 197 49 l 197 489 l 183 474 l 628 474 q 647 481 639 474 q 656 501 656 489 q 647 521 656 513 q 628 529 639 529 l 181 529 l 197 510 l 197 940 l 183 917 l 690 917 q 710 924 701 917 q 718 944 718 932 q 710 964 718 956 q 690 972 701 972 l 167 972 "},"É":{"ha":788,"x_min":139,"x_max":718,"o":"m 167 972 q 147 964 156 972 q 139 944 139 956 l 139 28 q 147 8 139 17 q 167 0 156 0 l 690 0 q 710 8 701 0 q 718 28 718 15 q 710 47 718 39 q 690 56 701 56 l 192 56 l 197 49 l 197 489 l 183 474 l 628 474 q 647 481 639 474 q 656 501 656 489 q 647 521 656 513 q 628 529 639 529 l 181 529 l 197 510 l 197 940 l 183 917 l 690 917 q 710 924 701 917 q 718 944 718 932 q 710 964 718 956 q 690 972 701 972 l 167 972 m 453 1039 q 469 1042 461 1039 q 482 1049 476 1046 l 617 1114 q 631 1127 626 1119 q 636 1147 636 1135 q 628 1170 636 1160 q 604 1181 621 1181 q 587 1177 594 1181 q 574 1169 579 1174 l 449 1076 q 440 1067 443 1072 q 436 1056 436 1063 q 440 1044 436 1050 q 453 1039 443 1039 "},"Ĕ":{"ha":788,"x_min":139,"x_max":718,"o":"m 167 972 q 147 964 156 972 q 139 944 139 956 l 139 28 q 147 8 139 17 q 167 0 156 0 l 690 0 q 710 8 701 0 q 718 28 718 15 q 710 47 718 39 q 690 56 701 56 l 192 56 l 197 49 l 197 489 l 183 474 l 628 474 q 647 481 639 474 q 656 501 656 489 q 647 521 656 513 q 628 529 639 529 l 181 529 l 197 510 l 197 940 l 183 917 l 690 917 q 710 924 701 917 q 718 944 718 932 q 710 964 718 956 q 690 972 701 972 l 167 972 m 447 1083 q 564 1121 517 1083 q 628 1226 611 1158 q 626 1249 631 1242 q 606 1256 621 1256 q 588 1250 594 1256 q 578 1233 582 1244 q 447 1138 540 1138 q 367 1162 400 1138 q 315 1233 335 1186 q 306 1251 310 1246 q 288 1257 301 1257 q 269 1249 274 1257 q 267 1226 264 1240 q 331 1121 283 1158 q 447 1083 378 1083 "},"Ě":{"ha":788,"x_min":139,"x_max":718,"o":"m 167 972 q 147 964 156 972 q 139 944 139 956 l 139 28 q 147 8 139 17 q 167 0 156 0 l 690 0 q 710 8 701 0 q 718 28 718 15 q 710 47 718 39 q 690 56 701 56 l 192 56 l 197 49 l 197 489 l 183 474 l 628 474 q 647 481 639 474 q 656 501 656 489 q 647 521 656 513 q 628 529 639 529 l 181 529 l 197 510 l 197 940 l 183 917 l 690 917 q 710 924 701 917 q 718 944 718 932 q 710 964 718 956 q 690 972 701 972 l 167 972 m 439 1104 l 454 1110 l 328 1208 q 301 1222 311 1222 q 290 1217 294 1222 q 285 1206 285 1213 q 287 1197 285 1201 q 293 1189 289 1193 l 406 1071 q 420 1058 413 1061 q 439 1054 428 1054 l 453 1054 q 472 1058 464 1054 q 486 1071 481 1061 l 599 1190 q 605 1199 603 1194 q 607 1207 607 1203 q 602 1219 607 1214 q 590 1224 597 1224 q 578 1220 585 1224 q 564 1210 571 1217 l 439 1104 "},"Ḝ":{"ha":788,"x_min":139,"x_max":718,"o":"m 167 972 q 147 964 156 972 q 139 944 139 956 l 139 28 q 147 8 139 17 q 167 0 156 0 l 690 0 q 710 8 701 0 q 718 28 718 15 q 710 47 718 39 q 690 56 701 56 l 192 56 l 197 49 l 197 489 l 183 474 l 628 474 q 647 481 639 474 q 656 501 656 489 q 647 521 656 513 q 628 529 639 529 l 181 529 l 197 510 l 197 940 l 183 917 l 690 917 q 710 924 701 917 q 718 944 718 932 q 710 964 718 956 q 690 972 701 972 l 167 972 m 347 -196 q 376 -175 367 -196 l 469 14 l 431 14 l 306 -139 q 299 -158 299 -146 q 308 -177 299 -168 q 328 -191 317 -186 q 347 -196 340 -196 m 447 1083 q 564 1121 517 1083 q 628 1226 611 1158 q 626 1249 631 1242 q 606 1256 621 1256 q 588 1250 594 1256 q 578 1233 582 1244 q 447 1138 540 1138 q 367 1162 400 1138 q 315 1233 335 1186 q 306 1251 310 1246 q 288 1257 301 1257 q 269 1249 274 1257 q 267 1226 264 1240 q 331 1121 283 1158 q 447 1083 378 1083 "},"Ê":{"ha":788,"x_min":139,"x_max":718,"o":"m 167 972 q 147 964 156 972 q 139 944 139 956 l 139 28 q 147 8 139 17 q 167 0 156 0 l 690 0 q 710 8 701 0 q 718 28 718 15 q 710 47 718 39 q 690 56 701 56 l 192 56 l 197 49 l 197 489 l 183 474 l 628 474 q 647 481 639 474 q 656 501 656 489 q 647 521 656 513 q 628 529 639 529 l 181 529 l 197 510 l 197 940 l 183 917 l 690 917 q 710 924 701 917 q 718 944 718 932 q 710 964 718 956 q 690 972 701 972 l 167 972 m 453 1186 l 438 1181 l 564 1082 q 578 1072 571 1076 q 590 1068 585 1068 q 602 1074 597 1068 q 607 1085 607 1079 q 605 1093 607 1089 q 599 1101 603 1097 l 486 1219 q 471 1232 478 1228 q 453 1236 464 1236 l 439 1236 q 421 1232 428 1236 q 406 1219 414 1228 l 293 1100 q 287 1092 289 1096 q 285 1083 285 1088 q 290 1072 285 1078 q 301 1067 294 1067 q 315 1071 308 1067 q 328 1081 321 1075 l 453 1186 "},"Ế":{"ha":788,"x_min":139,"x_max":821,"o":"m 167 972 q 147 964 156 972 q 139 944 139 956 l 139 28 q 147 8 139 17 q 167 0 156 0 l 690 0 q 710 8 701 0 q 718 28 718 15 q 710 47 718 39 q 690 56 701 56 l 192 56 l 197 49 l 197 489 l 183 474 l 628 474 q 647 481 639 474 q 656 501 656 489 q 647 521 656 513 q 628 529 639 529 l 181 529 l 197 510 l 197 940 l 183 917 l 690 917 q 710 924 701 917 q 718 944 718 932 q 710 964 718 956 q 690 972 701 972 l 167 972 m 453 1186 l 438 1181 l 564 1082 q 578 1072 571 1076 q 590 1068 585 1068 q 602 1074 597 1068 q 607 1085 607 1079 q 605 1093 607 1089 q 599 1101 603 1097 l 486 1219 q 471 1232 478 1228 q 453 1236 464 1236 l 439 1236 q 421 1232 428 1236 q 406 1219 414 1228 l 293 1100 q 287 1092 289 1096 q 285 1083 285 1088 q 290 1072 285 1078 q 301 1067 294 1067 q 315 1071 308 1067 q 328 1081 321 1075 l 453 1186 m 638 1140 q 653 1144 646 1140 q 667 1150 661 1147 l 801 1215 q 816 1228 811 1221 q 821 1249 821 1236 q 813 1272 821 1261 q 789 1282 806 1282 q 772 1278 779 1282 q 758 1271 764 1275 l 633 1178 q 624 1169 628 1174 q 621 1157 621 1164 q 624 1146 621 1151 q 638 1140 628 1140 "},"Ệ":{"ha":788,"x_min":139,"x_max":718,"o":"m 167 972 q 147 964 156 972 q 139 944 139 956 l 139 28 q 147 8 139 17 q 167 0 156 0 l 690 0 q 710 8 701 0 q 718 28 718 15 q 710 47 718 39 q 690 56 701 56 l 192 56 l 197 49 l 197 489 l 183 474 l 628 474 q 647 481 639 474 q 656 501 656 489 q 647 521 656 513 q 628 529 639 529 l 181 529 l 197 510 l 197 940 l 183 917 l 690 917 q 710 924 701 917 q 718 944 718 932 q 710 964 718 956 q 690 972 701 972 l 167 972 m 444 -190 q 478 -176 465 -190 q 492 -140 492 -162 l 492 -129 q 478 -93 492 -107 q 446 -79 465 -79 q 410 -93 424 -79 q 396 -129 396 -107 l 396 -140 q 409 -176 396 -162 q 444 -190 422 -190 m 453 1186 l 438 1181 l 564 1082 q 578 1072 571 1076 q 590 1068 585 1068 q 602 1074 597 1068 q 607 1085 607 1079 q 605 1093 607 1089 q 599 1101 603 1097 l 486 1219 q 471 1232 478 1228 q 453 1236 464 1236 l 439 1236 q 421 1232 428 1236 q 406 1219 414 1228 l 293 1100 q 287 1092 289 1096 q 285 1083 285 1088 q 290 1072 285 1078 q 301 1067 294 1067 q 315 1071 308 1067 q 328 1081 321 1075 l 453 1186 "},"Ề":{"ha":788,"x_min":139,"x_max":718,"o":"m 167 972 q 147 964 156 972 q 139 944 139 956 l 139 28 q 147 8 139 17 q 167 0 156 0 l 690 0 q 710 8 701 0 q 718 28 718 15 q 710 47 718 39 q 690 56 701 56 l 192 56 l 197 49 l 197 489 l 183 474 l 628 474 q 647 481 639 474 q 656 501 656 489 q 647 521 656 513 q 628 529 639 529 l 181 529 l 197 510 l 197 940 l 183 917 l 690 917 q 710 924 701 917 q 718 944 718 932 q 710 964 718 956 q 690 972 701 972 l 167 972 m 453 1186 l 438 1181 l 564 1082 q 578 1072 571 1076 q 590 1068 585 1068 q 602 1074 597 1068 q 607 1085 607 1079 q 605 1093 607 1089 q 599 1101 603 1097 l 486 1219 q 471 1232 478 1228 q 453 1236 464 1236 l 439 1236 q 421 1232 428 1236 q 406 1219 414 1228 l 293 1100 q 287 1092 289 1096 q 285 1083 285 1088 q 290 1072 285 1078 q 301 1067 294 1067 q 315 1071 308 1067 q 328 1081 321 1075 l 453 1186 m 606 1229 q 619 1235 615 1229 q 622 1246 622 1240 q 619 1258 622 1253 q 610 1267 615 1263 l 485 1360 q 472 1367 479 1364 q 454 1371 464 1371 q 430 1360 438 1371 q 422 1338 422 1350 q 442 1304 422 1315 l 576 1239 q 590 1233 583 1236 q 606 1229 597 1229 "},"Ể":{"ha":788,"x_min":139,"x_max":718,"o":"m 167 972 q 147 964 156 972 q 139 944 139 956 l 139 28 q 147 8 139 17 q 167 0 156 0 l 690 0 q 710 8 701 0 q 718 28 718 15 q 710 47 718 39 q 690 56 701 56 l 192 56 l 197 49 l 197 489 l 183 474 l 628 474 q 647 481 639 474 q 656 501 656 489 q 647 521 656 513 q 628 529 639 529 l 181 529 l 197 510 l 197 940 l 183 917 l 690 917 q 710 924 701 917 q 718 944 718 932 q 710 964 718 956 q 690 972 701 972 l 167 972 m 453 1186 l 438 1181 l 564 1082 q 578 1072 571 1076 q 590 1068 585 1068 q 602 1074 597 1068 q 607 1085 607 1079 q 605 1093 607 1089 q 599 1101 603 1097 l 486 1219 q 471 1232 478 1228 q 453 1236 464 1236 l 439 1236 q 421 1232 428 1236 q 406 1219 414 1228 l 293 1100 q 287 1092 289 1096 q 285 1083 285 1088 q 290 1072 285 1078 q 301 1067 294 1067 q 315 1071 308 1067 q 328 1081 321 1075 l 453 1186 m 350 1506 q 340 1487 340 1496 q 346 1471 340 1478 q 366 1463 354 1461 q 389 1474 378 1464 q 418 1492 401 1483 q 454 1500 435 1500 q 490 1488 475 1500 q 506 1456 506 1475 q 494 1425 506 1438 q 463 1393 482 1413 q 446 1364 449 1379 q 443 1338 443 1349 q 449 1322 443 1329 q 465 1315 454 1315 q 481 1320 475 1315 q 489 1335 488 1325 q 493 1354 490 1347 q 501 1367 496 1361 q 540 1410 525 1390 q 554 1454 554 1429 q 544 1496 554 1474 q 513 1534 535 1518 q 451 1550 490 1550 q 396 1538 422 1550 q 350 1506 369 1525 "},"Ễ":{"ha":788,"x_min":139,"x_max":718,"o":"m 167 972 q 147 964 156 972 q 139 944 139 956 l 139 28 q 147 8 139 17 q 167 0 156 0 l 690 0 q 710 8 701 0 q 718 28 718 15 q 710 47 718 39 q 690 56 701 56 l 192 56 l 197 49 l 197 489 l 183 474 l 628 474 q 647 481 639 474 q 656 501 656 489 q 647 521 656 513 q 628 529 639 529 l 181 529 l 197 510 l 197 940 l 183 917 l 690 917 q 710 924 701 917 q 718 944 718 932 q 710 964 718 956 q 690 972 701 972 l 167 972 m 453 1186 l 438 1181 l 564 1082 q 578 1072 571 1076 q 590 1068 585 1068 q 602 1074 597 1068 q 607 1085 607 1079 q 605 1093 607 1089 q 599 1101 603 1097 l 486 1219 q 471 1232 478 1228 q 453 1236 464 1236 l 439 1236 q 421 1232 428 1236 q 406 1219 414 1228 l 293 1100 q 287 1092 289 1096 q 285 1083 285 1088 q 290 1072 285 1078 q 301 1067 294 1067 q 315 1071 308 1067 q 328 1081 321 1075 l 453 1186 m 271 1246 q 285 1251 278 1246 q 296 1265 293 1256 q 322 1312 306 1297 q 358 1326 338 1326 q 413 1308 382 1326 q 477 1269 444 1289 q 536 1250 510 1250 q 583 1258 561 1250 q 620 1287 604 1267 q 643 1340 636 1307 q 644 1374 647 1361 q 624 1388 640 1388 q 606 1381 613 1388 q 599 1363 600 1374 q 581 1317 594 1335 q 547 1300 568 1300 q 492 1319 524 1300 q 426 1359 460 1339 q 364 1379 393 1379 q 299 1360 331 1379 q 254 1294 267 1340 q 253 1258 249 1271 q 271 1246 257 1246 "},"Ȅ":{"ha":788,"x_min":139,"x_max":718,"o":"m 167 972 q 147 964 156 972 q 139 944 139 956 l 139 28 q 147 8 139 17 q 167 0 156 0 l 690 0 q 710 8 701 0 q 718 28 718 15 q 710 47 718 39 q 690 56 701 56 l 192 56 l 197 49 l 197 489 l 183 474 l 628 474 q 647 481 639 474 q 656 501 656 489 q 647 521 656 513 q 628 529 639 529 l 181 529 l 197 510 l 197 940 l 183 917 l 690 917 q 710 924 701 917 q 718 944 718 932 q 710 964 718 956 q 690 972 701 972 l 167 972 m 403 1050 q 416 1056 413 1050 q 419 1067 419 1061 q 416 1078 419 1074 q 407 1088 413 1083 l 282 1181 q 269 1188 276 1185 q 251 1192 261 1192 q 227 1181 235 1192 q 219 1158 219 1171 q 239 1125 219 1136 l 374 1060 q 388 1053 381 1057 q 403 1050 394 1050 m 618 1044 q 631 1050 628 1044 q 635 1061 635 1056 q 631 1073 635 1068 q 622 1082 628 1078 l 497 1175 q 484 1183 492 1179 q 467 1186 476 1186 q 442 1176 450 1186 q 435 1153 435 1165 q 454 1119 435 1131 l 589 1054 q 603 1048 596 1051 q 618 1044 610 1044 "},"Ë":{"ha":788,"x_min":139,"x_max":718,"o":"m 167 972 q 147 964 156 972 q 139 944 139 956 l 139 28 q 147 8 139 17 q 167 0 156 0 l 690 0 q 710 8 701 0 q 718 28 718 15 q 710 47 718 39 q 690 56 701 56 l 192 56 l 197 49 l 197 489 l 183 474 l 628 474 q 647 481 639 474 q 656 501 656 489 q 647 521 656 513 q 628 529 639 529 l 181 529 l 197 510 l 197 940 l 183 917 l 690 917 q 710 924 701 917 q 718 944 718 932 q 710 964 718 956 q 690 972 701 972 l 167 972 m 561 1083 q 595 1097 582 1083 q 608 1133 608 1111 l 608 1144 q 595 1181 608 1167 q 563 1194 582 1194 q 526 1181 540 1194 q 513 1144 513 1167 l 513 1133 q 526 1097 513 1111 q 561 1083 539 1083 m 335 1083 q 369 1097 356 1083 q 382 1133 382 1111 l 382 1144 q 369 1181 382 1167 q 336 1194 356 1194 q 300 1181 314 1194 q 286 1144 286 1167 l 286 1133 q 299 1097 286 1111 q 335 1083 313 1083 "},"Ė":{"ha":788,"x_min":139,"x_max":718,"o":"m 167 972 q 147 964 156 972 q 139 944 139 956 l 139 28 q 147 8 139 17 q 167 0 156 0 l 690 0 q 710 8 701 0 q 718 28 718 15 q 710 47 718 39 q 690 56 701 56 l 192 56 l 197 49 l 197 489 l 183 474 l 628 474 q 647 481 639 474 q 656 501 656 489 q 647 521 656 513 q 628 529 639 529 l 181 529 l 197 510 l 197 940 l 183 917 l 690 917 q 710 924 701 917 q 718 944 718 932 q 710 964 718 956 q 690 972 701 972 l 167 972 m 447 1083 q 481 1097 468 1083 q 494 1133 494 1111 l 494 1144 q 481 1181 494 1167 q 449 1194 468 1194 q 413 1181 426 1194 q 399 1144 399 1167 l 399 1133 q 412 1097 399 1111 q 447 1083 425 1083 "},"Ẹ":{"ha":788,"x_min":139,"x_max":718,"o":"m 167 972 q 147 964 156 972 q 139 944 139 956 l 139 28 q 147 8 139 17 q 167 0 156 0 l 690 0 q 710 8 701 0 q 718 28 718 15 q 710 47 718 39 q 690 56 701 56 l 192 56 l 197 49 l 197 489 l 183 474 l 628 474 q 647 481 639 474 q 656 501 656 489 q 647 521 656 513 q 628 529 639 529 l 181 529 l 197 510 l 197 940 l 183 917 l 690 917 q 710 924 701 917 q 718 944 718 932 q 710 964 718 956 q 690 972 701 972 l 167 972 m 444 -190 q 478 -176 465 -190 q 492 -140 492 -162 l 492 -129 q 478 -93 492 -107 q 446 -79 465 -79 q 410 -93 424 -79 q 396 -129 396 -107 l 396 -140 q 409 -176 396 -162 q 444 -190 422 -190 "},"È":{"ha":788,"x_min":139,"x_max":718,"o":"m 167 972 q 147 964 156 972 q 139 944 139 956 l 139 28 q 147 8 139 17 q 167 0 156 0 l 690 0 q 710 8 701 0 q 718 28 718 15 q 710 47 718 39 q 690 56 701 56 l 192 56 l 197 49 l 197 489 l 183 474 l 628 474 q 647 481 639 474 q 656 501 656 489 q 647 521 656 513 q 628 529 639 529 l 181 529 l 197 510 l 197 940 l 183 917 l 690 917 q 710 924 701 917 q 718 944 718 932 q 710 964 718 956 q 690 972 701 972 l 167 972 m 447 1039 q 460 1044 457 1039 q 464 1056 464 1050 q 460 1067 464 1063 q 451 1076 457 1072 l 326 1169 q 313 1177 321 1174 q 296 1181 306 1181 q 272 1170 279 1181 q 264 1147 264 1160 q 283 1114 264 1125 l 418 1049 q 432 1042 425 1046 q 447 1039 439 1039 "},"Ẻ":{"ha":788,"x_min":139,"x_max":718,"o":"m 167 972 q 147 964 156 972 q 139 944 139 956 l 139 28 q 147 8 139 17 q 167 0 156 0 l 690 0 q 710 8 701 0 q 718 28 718 15 q 710 47 718 39 q 690 56 701 56 l 192 56 l 197 49 l 197 489 l 183 474 l 628 474 q 647 481 639 474 q 656 501 656 489 q 647 521 656 513 q 628 529 639 529 l 181 529 l 197 510 l 197 940 l 183 917 l 690 917 q 710 924 701 917 q 718 944 718 932 q 710 964 718 956 q 690 972 701 972 l 167 972 m 350 1242 q 340 1223 340 1232 q 346 1207 340 1214 q 366 1199 354 1197 q 389 1210 378 1200 q 418 1228 401 1219 q 454 1236 435 1236 q 490 1224 475 1236 q 506 1192 506 1211 q 494 1161 506 1174 q 463 1129 482 1149 q 446 1100 449 1115 q 443 1074 443 1085 q 449 1058 443 1065 q 465 1051 454 1051 q 481 1056 475 1051 q 489 1071 488 1061 q 493 1090 490 1083 q 501 1103 496 1097 q 540 1146 525 1126 q 554 1190 554 1165 q 544 1232 554 1210 q 513 1270 535 1254 q 451 1286 490 1286 q 396 1274 422 1286 q 350 1242 369 1261 "},"Ȇ":{"ha":788,"x_min":139,"x_max":718,"o":"m 167 972 q 147 964 156 972 q 139 944 139 956 l 139 28 q 147 8 139 17 q 167 0 156 0 l 690 0 q 710 8 701 0 q 718 28 718 15 q 710 47 718 39 q 690 56 701 56 l 192 56 l 197 49 l 197 489 l 183 474 l 628 474 q 647 481 639 474 q 656 501 656 489 q 647 521 656 513 q 628 529 639 529 l 181 529 l 197 510 l 197 940 l 183 917 l 690 917 q 710 924 701 917 q 718 944 718 932 q 710 964 718 956 q 690 972 701 972 l 167 972 m 444 1172 q 360 1153 399 1172 q 299 1101 322 1133 q 276 1033 276 1069 q 284 1016 276 1024 q 303 1008 292 1008 q 324 1016 317 1008 q 332 1036 331 1024 q 371 1098 339 1076 q 444 1119 403 1119 q 518 1098 486 1119 q 557 1036 550 1076 q 566 1016 560 1024 q 586 1008 572 1008 q 605 1016 597 1008 q 613 1033 613 1024 q 590 1101 613 1069 q 529 1153 567 1133 q 444 1172 492 1172 "},"Ē":{"ha":788,"x_min":139,"x_max":718,"o":"m 167 972 q 147 964 156 972 q 139 944 139 956 l 139 28 q 147 8 139 17 q 167 0 156 0 l 690 0 q 710 8 701 0 q 718 28 718 15 q 710 47 718 39 q 690 56 701 56 l 192 56 l 197 49 l 197 489 l 183 474 l 628 474 q 647 481 639 474 q 656 501 656 489 q 647 521 656 513 q 628 529 639 529 l 181 529 l 197 510 l 197 940 l 183 917 l 690 917 q 710 924 701 917 q 718 944 718 932 q 710 964 718 956 q 690 972 701 972 l 167 972 m 272 1111 l 633 1111 q 664 1136 664 1111 q 633 1164 664 1164 l 272 1164 q 242 1136 242 1164 q 272 1111 242 1111 "},"Ḗ":{"ha":788,"x_min":139,"x_max":718,"o":"m 167 972 q 147 964 156 972 q 139 944 139 956 l 139 28 q 147 8 139 17 q 167 0 156 0 l 690 0 q 710 8 701 0 q 718 28 718 15 q 710 47 718 39 q 690 56 701 56 l 192 56 l 197 49 l 197 489 l 183 474 l 628 474 q 647 481 639 474 q 656 501 656 489 q 647 521 656 513 q 628 529 639 529 l 181 529 l 197 510 l 197 940 l 183 917 l 690 917 q 710 924 701 917 q 718 944 718 932 q 710 964 718 956 q 690 972 701 972 l 167 972 m 272 1111 l 633 1111 q 664 1136 664 1111 q 633 1164 664 1164 l 272 1164 q 242 1136 242 1164 q 272 1111 242 1111 m 453 1246 q 469 1249 461 1246 q 482 1256 476 1253 l 617 1321 q 631 1334 626 1326 q 636 1354 636 1342 q 628 1377 636 1367 q 604 1388 621 1388 q 587 1384 594 1388 q 574 1376 579 1381 l 449 1283 q 440 1274 443 1279 q 436 1263 436 1269 q 440 1251 436 1257 q 453 1246 443 1246 "},"Ḕ":{"ha":788,"x_min":139,"x_max":718,"o":"m 167 972 q 147 964 156 972 q 139 944 139 956 l 139 28 q 147 8 139 17 q 167 0 156 0 l 690 0 q 710 8 701 0 q 718 28 718 15 q 710 47 718 39 q 690 56 701 56 l 192 56 l 197 49 l 197 489 l 183 474 l 628 474 q 647 481 639 474 q 656 501 656 489 q 647 521 656 513 q 628 529 639 529 l 181 529 l 197 510 l 197 940 l 183 917 l 690 917 q 710 924 701 917 q 718 944 718 932 q 710 964 718 956 q 690 972 701 972 l 167 972 m 272 1111 l 633 1111 q 664 1136 664 1111 q 633 1164 664 1164 l 272 1164 q 242 1136 242 1164 q 272 1111 242 1111 m 447 1246 q 460 1251 457 1246 q 464 1263 464 1257 q 460 1274 464 1269 q 451 1283 457 1279 l 326 1376 q 313 1384 321 1381 q 296 1388 306 1388 q 272 1377 279 1388 q 264 1354 264 1367 q 283 1321 264 1332 l 418 1256 q 432 1249 425 1253 q 447 1246 439 1246 "},"Ę":{"ha":807,"x_min":139,"x_max":738,"o":"m 638 -257 q 689 -248 667 -257 q 724 -223 711 -239 q 738 -189 738 -207 q 733 -176 738 -182 q 718 -169 728 -169 q 701 -175 708 -169 q 689 -190 694 -181 q 644 -206 682 -206 q 592 -183 615 -206 q 568 -118 568 -160 q 587 -60 568 -86 q 632 -19 606 -35 q 683 -1 658 -3 q 709 8 700 0 q 718 28 718 15 q 710 47 718 39 q 690 56 701 56 l 192 56 l 197 49 l 197 489 l 183 474 l 628 474 q 647 481 639 474 q 656 501 656 489 q 647 521 656 513 q 628 529 639 529 l 181 529 l 197 510 l 197 940 l 183 917 l 690 917 q 710 924 701 917 q 718 944 718 932 q 710 964 718 956 q 690 972 701 972 l 167 972 q 147 964 156 972 q 139 944 139 956 l 139 28 q 147 8 139 17 q 167 0 156 0 l 646 0 l 635 24 q 592 3 613 17 q 553 -28 571 -10 q 526 -72 536 -46 q 515 -129 515 -97 q 553 -222 515 -187 q 638 -257 592 -257 "},"Ẽ":{"ha":788,"x_min":139,"x_max":718,"o":"m 167 972 q 147 964 156 972 q 139 944 139 956 l 139 28 q 147 8 139 17 q 167 0 156 0 l 690 0 q 710 8 701 0 q 718 28 718 15 q 710 47 718 39 q 690 56 701 56 l 192 56 l 197 49 l 197 489 l 183 474 l 628 474 q 647 481 639 474 q 656 501 656 489 q 647 521 656 513 q 628 529 639 529 l 181 529 l 197 510 l 197 940 l 183 917 l 690 917 q 710 924 701 917 q 718 944 718 932 q 710 964 718 956 q 690 972 701 972 l 167 972 m 271 1086 q 285 1091 278 1086 q 296 1106 293 1096 q 322 1152 306 1138 q 358 1167 338 1167 q 413 1148 382 1167 q 477 1110 444 1129 q 536 1090 510 1090 q 583 1099 561 1090 q 620 1127 604 1107 q 643 1181 636 1147 q 644 1215 647 1201 q 624 1228 640 1228 q 606 1221 613 1228 q 599 1203 600 1214 q 581 1158 594 1175 q 547 1140 568 1140 q 492 1160 524 1140 q 426 1199 460 1179 q 364 1219 393 1219 q 299 1200 331 1219 q 254 1135 267 1181 q 253 1099 249 1111 q 271 1086 257 1086 "},"F":{"ha":788,"x_min":139,"x_max":718,"o":"m 167 0 q 187 8 179 0 q 194 28 194 17 l 194 489 l 186 478 l 628 478 q 647 485 639 478 q 656 506 656 493 q 647 525 656 517 q 628 533 639 533 l 189 533 l 194 522 l 194 922 l 190 917 l 690 917 q 710 924 701 917 q 718 944 718 932 q 710 964 718 956 q 690 972 701 972 l 167 972 q 147 964 156 972 q 139 944 139 956 l 139 28 q 147 8 139 17 q 167 0 154 0 "},"G":{"ha":964,"x_min":69,"x_max":874,"o":"m 568 -14 q 724 11 649 -14 q 861 78 800 36 q 871 90 868 83 q 874 103 874 97 l 874 451 q 866 471 874 463 q 846 479 858 479 l 568 479 q 549 472 557 479 q 540 451 540 464 q 549 432 540 440 q 568 424 557 424 l 838 424 l 818 442 l 818 94 l 824 119 q 705 63 772 85 q 568 42 638 42 q 340 99 439 42 q 184 256 240 156 q 128 486 128 357 q 184 715 128 615 q 340 873 240 815 q 568 931 439 931 q 697 913 636 931 q 810 865 758 894 q 818 862 814 864 q 828 860 822 860 q 844 867 835 860 q 854 888 854 874 q 851 901 854 894 q 842 911 849 907 q 715 967 786 949 q 568 986 644 986 q 369 949 460 986 q 210 845 278 913 q 106 686 143 778 q 69 486 69 594 q 106 286 69 378 q 210 127 143 194 q 369 23 278 60 q 568 -14 460 -14 "},"Ğ":{"ha":964,"x_min":69,"x_max":874,"o":"m 568 -14 q 724 11 649 -14 q 861 78 800 36 q 871 90 868 83 q 874 103 874 97 l 874 451 q 866 471 874 463 q 846 479 858 479 l 568 479 q 549 472 557 479 q 540 451 540 464 q 549 432 540 440 q 568 424 557 424 l 838 424 l 818 442 l 818 94 l 824 119 q 705 63 772 85 q 568 42 638 42 q 340 99 439 42 q 184 256 240 156 q 128 486 128 357 q 184 715 128 615 q 340 873 240 815 q 568 931 439 931 q 697 913 636 931 q 810 865 758 894 q 818 862 814 864 q 828 860 822 860 q 844 867 835 860 q 854 888 854 874 q 851 901 854 894 q 842 911 849 907 q 715 967 786 949 q 568 986 644 986 q 369 949 460 986 q 210 845 278 913 q 106 686 143 778 q 69 486 69 594 q 106 286 69 378 q 210 127 143 194 q 369 23 278 60 q 568 -14 460 -14 m 524 1083 q 640 1121 593 1083 q 704 1226 688 1158 q 702 1249 707 1242 q 682 1256 697 1256 q 665 1250 671 1256 q 654 1233 658 1244 q 524 1138 617 1138 q 444 1162 476 1138 q 392 1233 411 1186 q 382 1251 386 1246 q 364 1257 378 1257 q 345 1249 350 1257 q 343 1226 340 1240 q 407 1121 360 1158 q 524 1083 454 1083 "},"Ǧ":{"ha":964,"x_min":69,"x_max":874,"o":"m 568 -14 q 724 11 649 -14 q 861 78 800 36 q 871 90 868 83 q 874 103 874 97 l 874 451 q 866 471 874 463 q 846 479 858 479 l 568 479 q 549 472 557 479 q 540 451 540 464 q 549 432 540 440 q 568 424 557 424 l 838 424 l 818 442 l 818 94 l 824 119 q 705 63 772 85 q 568 42 638 42 q 340 99 439 42 q 184 256 240 156 q 128 486 128 357 q 184 715 128 615 q 340 873 240 815 q 568 931 439 931 q 697 913 636 931 q 810 865 758 894 q 818 862 814 864 q 828 860 822 860 q 844 867 835 860 q 854 888 854 874 q 851 901 854 894 q 842 911 849 907 q 715 967 786 949 q 568 986 644 986 q 369 949 460 986 q 210 845 278 913 q 106 686 143 778 q 69 486 69 594 q 106 286 69 378 q 210 127 143 194 q 369 23 278 60 q 568 -14 460 -14 m 515 1104 l 531 1110 l 404 1208 q 378 1222 388 1222 q 366 1217 371 1222 q 361 1206 361 1213 q 363 1197 361 1201 q 369 1189 365 1193 l 482 1071 q 497 1058 489 1061 q 515 1054 504 1054 l 529 1054 q 549 1058 540 1054 q 563 1071 557 1061 l 675 1190 q 681 1199 679 1194 q 683 1207 683 1203 q 678 1219 683 1214 q 667 1224 674 1224 q 654 1220 661 1224 q 640 1210 647 1217 l 515 1104 "},"Ĝ":{"ha":964,"x_min":69,"x_max":874,"o":"m 568 -14 q 724 11 649 -14 q 861 78 800 36 q 871 90 868 83 q 874 103 874 97 l 874 451 q 866 471 874 463 q 846 479 858 479 l 568 479 q 549 472 557 479 q 540 451 540 464 q 549 432 540 440 q 568 424 557 424 l 838 424 l 818 442 l 818 94 l 824 119 q 705 63 772 85 q 568 42 638 42 q 340 99 439 42 q 184 256 240 156 q 128 486 128 357 q 184 715 128 615 q 340 873 240 815 q 568 931 439 931 q 697 913 636 931 q 810 865 758 894 q 818 862 814 864 q 828 860 822 860 q 844 867 835 860 q 854 888 854 874 q 851 901 854 894 q 842 911 849 907 q 715 967 786 949 q 568 986 644 986 q 369 949 460 986 q 210 845 278 913 q 106 686 143 778 q 69 486 69 594 q 106 286 69 378 q 210 127 143 194 q 369 23 278 60 q 568 -14 460 -14 m 529 1186 l 514 1181 l 640 1082 q 654 1072 647 1076 q 667 1068 661 1068 q 678 1074 674 1068 q 683 1085 683 1079 q 681 1093 683 1089 q 675 1101 679 1097 l 563 1219 q 547 1232 554 1228 q 529 1236 540 1236 l 515 1236 q 497 1232 504 1236 q 482 1219 490 1228 l 369 1100 q 363 1092 365 1096 q 361 1083 361 1088 q 366 1072 361 1078 q 378 1067 371 1067 q 391 1071 385 1067 q 404 1081 397 1075 l 529 1186 "},"Ģ":{"ha":964,"x_min":69,"x_max":874,"o":"m 568 -14 q 724 11 649 -14 q 861 78 800 36 q 871 90 868 83 q 874 103 874 97 l 874 451 q 866 471 874 463 q 846 479 858 479 l 568 479 q 549 472 557 479 q 540 451 540 464 q 549 432 540 440 q 568 424 557 424 l 838 424 l 818 442 l 818 94 l 824 119 q 705 63 772 85 q 568 42 638 42 q 340 99 439 42 q 184 256 240 156 q 128 486 128 357 q 184 715 128 615 q 340 873 240 815 q 568 931 439 931 q 697 913 636 931 q 810 865 758 894 q 818 862 814 864 q 828 860 822 860 q 844 867 835 860 q 854 888 854 874 q 851 901 854 894 q 842 911 849 907 q 715 967 786 949 q 568 986 644 986 q 369 949 460 986 q 210 845 278 913 q 106 686 143 778 q 69 486 69 594 q 106 286 69 378 q 210 127 143 194 q 369 23 278 60 q 568 -14 460 -14 m 610 -150 q 591 -92 610 -111 q 544 -74 572 -74 q 497 -87 514 -74 q 479 -121 479 -101 q 488 -142 479 -131 q 511 -153 496 -154 q 527 -147 522 -153 q 540 -142 532 -142 q 554 -158 554 -142 q 548 -190 554 -179 q 531 -204 542 -201 q 505 -204 513 -207 q 490 -201 497 -201 q 477 -208 482 -201 q 472 -225 472 -215 q 482 -242 472 -236 q 514 -247 492 -247 q 560 -235 539 -247 q 596 -200 582 -222 q 610 -150 610 -178 "},"Ġ":{"ha":964,"x_min":69,"x_max":874,"o":"m 568 -14 q 724 11 649 -14 q 861 78 800 36 q 871 90 868 83 q 874 103 874 97 l 874 451 q 866 471 874 463 q 846 479 858 479 l 568 479 q 549 472 557 479 q 540 451 540 464 q 549 432 540 440 q 568 424 557 424 l 838 424 l 818 442 l 818 94 l 824 119 q 705 63 772 85 q 568 42 638 42 q 340 99 439 42 q 184 256 240 156 q 128 486 128 357 q 184 715 128 615 q 340 873 240 815 q 568 931 439 931 q 697 913 636 931 q 810 865 758 894 q 818 862 814 864 q 828 860 822 860 q 844 867 835 860 q 854 888 854 874 q 851 901 854 894 q 842 911 849 907 q 715 967 786 949 q 568 986 644 986 q 369 949 460 986 q 210 845 278 913 q 106 686 143 778 q 69 486 69 594 q 106 286 69 378 q 210 127 143 194 q 369 23 278 60 q 568 -14 460 -14 m 524 1083 q 558 1097 544 1083 q 571 1133 571 1111 l 571 1144 q 558 1181 571 1167 q 525 1194 544 1194 q 489 1181 503 1194 q 475 1144 475 1167 l 475 1133 q 488 1097 475 1111 q 524 1083 501 1083 "},"Ḡ":{"ha":964,"x_min":69,"x_max":874,"o":"m 568 -14 q 724 11 649 -14 q 861 78 800 36 q 871 90 868 83 q 874 103 874 97 l 874 451 q 866 471 874 463 q 846 479 858 479 l 568 479 q 549 472 557 479 q 540 451 540 464 q 549 432 540 440 q 568 424 557 424 l 838 424 l 818 442 l 818 94 l 824 119 q 705 63 772 85 q 568 42 638 42 q 340 99 439 42 q 184 256 240 156 q 128 486 128 357 q 184 715 128 615 q 340 873 240 815 q 568 931 439 931 q 697 913 636 931 q 810 865 758 894 q 818 862 814 864 q 828 860 822 860 q 844 867 835 860 q 854 888 854 874 q 851 901 854 894 q 842 911 849 907 q 715 967 786 949 q 568 986 644 986 q 369 949 460 986 q 210 845 278 913 q 106 686 143 778 q 69 486 69 594 q 106 286 69 378 q 210 127 143 194 q 369 23 278 60 q 568 -14 460 -14 m 349 1111 l 710 1111 q 740 1136 740 1111 q 710 1164 740 1164 l 349 1164 q 318 1136 318 1164 q 349 1111 318 1111 "},"H":{"ha":1000,"x_min":139,"x_max":861,"o":"m 168 972 q 147 964 156 972 q 139 943 139 956 l 139 29 q 147 8 139 17 q 168 0 154 0 q 188 8 179 0 q 197 29 196 17 l 197 943 q 189 964 197 956 q 168 972 181 972 m 832 972 q 811 964 819 972 q 803 943 803 956 l 803 29 q 810 8 803 17 q 832 0 818 0 q 851 8 843 0 q 861 29 860 17 l 861 943 q 853 964 861 956 q 832 972 844 972 m 161 528 l 153 472 l 832 472 l 835 528 l 161 528 "},"Ħ":{"ha":1168,"x_min":139,"x_max":1029,"o":"m 167 679 l 1001 679 q 1021 687 1013 679 q 1029 707 1029 694 q 1021 726 1029 718 q 1001 735 1013 735 l 167 735 q 147 727 156 735 q 139 707 139 719 q 147 688 139 696 q 167 679 156 679 m 251 972 q 231 964 239 972 q 222 943 222 956 l 222 29 q 230 8 222 17 q 251 0 238 0 q 271 8 263 0 q 281 29 279 17 l 281 943 q 272 964 281 956 q 251 972 264 972 m 915 972 q 894 964 903 972 q 886 943 886 956 l 886 29 q 894 8 886 17 q 915 0 901 0 q 935 8 926 0 q 944 29 943 17 l 944 943 q 936 964 944 956 q 915 972 928 972 m 244 528 l 236 472 l 915 472 l 918 528 l 244 528 "},"Ḫ":{"ha":1000,"x_min":139,"x_max":861,"o":"m 168 972 q 147 964 156 972 q 139 943 139 956 l 139 29 q 147 8 139 17 q 168 0 154 0 q 188 8 179 0 q 197 29 196 17 l 197 943 q 189 964 197 956 q 168 972 181 972 m 832 972 q 811 964 819 972 q 803 943 803 956 l 803 29 q 810 8 803 17 q 832 0 818 0 q 851 8 843 0 q 861 29 860 17 l 861 943 q 853 964 861 956 q 832 972 844 972 m 161 528 l 153 472 l 832 472 l 835 528 l 161 528 m 501 -193 q 586 -167 549 -193 q 647 -100 624 -142 q 669 -12 669 -58 q 662 5 669 -3 q 643 13 654 13 q 623 5 629 13 q 614 -15 617 -3 q 575 -107 607 -74 q 501 -140 543 -140 q 428 -108 460 -140 q 389 -15 396 -75 q 381 5 388 -3 q 360 13 374 13 q 341 5 349 13 q 333 -12 333 -3 q 356 -100 333 -58 q 417 -167 379 -142 q 501 -193 456 -193 "},"Ĥ":{"ha":1000,"x_min":139,"x_max":861,"o":"m 168 972 q 147 964 156 972 q 139 943 139 956 l 139 29 q 147 8 139 17 q 168 0 154 0 q 188 8 179 0 q 197 29 196 17 l 197 943 q 189 964 197 956 q 168 972 181 972 m 832 972 q 811 964 819 972 q 803 943 803 956 l 803 29 q 810 8 803 17 q 832 0 818 0 q 851 8 843 0 q 861 29 860 17 l 861 943 q 853 964 861 956 q 832 972 844 972 m 161 528 l 153 472 l 832 472 l 835 528 l 161 528 m 506 1186 l 490 1181 l 617 1082 q 631 1072 624 1076 q 643 1068 638 1068 q 655 1074 650 1068 q 660 1085 660 1079 q 658 1093 660 1089 q 651 1101 656 1097 l 539 1219 q 524 1232 531 1228 q 506 1236 517 1236 l 492 1236 q 474 1232 481 1236 q 458 1219 467 1228 l 346 1100 q 340 1092 342 1096 q 338 1083 338 1088 q 342 1072 338 1078 q 354 1067 347 1067 q 367 1071 361 1067 q 381 1081 374 1075 l 506 1186 "},"Ḥ":{"ha":1000,"x_min":139,"x_max":861,"o":"m 168 972 q 147 964 156 972 q 139 943 139 956 l 139 29 q 147 8 139 17 q 168 0 154 0 q 188 8 179 0 q 197 29 196 17 l 197 943 q 189 964 197 956 q 168 972 181 972 m 832 972 q 811 964 819 972 q 803 943 803 956 l 803 29 q 810 8 803 17 q 832 0 818 0 q 851 8 843 0 q 861 29 860 17 l 861 943 q 853 964 861 956 q 832 972 844 972 m 161 528 l 153 472 l 832 472 l 835 528 l 161 528 m 500 -190 q 534 -176 521 -190 q 547 -140 547 -162 l 547 -129 q 534 -93 547 -107 q 501 -79 521 -79 q 465 -93 479 -79 q 451 -129 451 -107 l 451 -140 q 465 -176 451 -162 q 500 -190 478 -190 "},"I":{"ha":336,"x_min":139,"x_max":197,"o":"m 197 29 l 197 943 q 189 964 197 956 q 168 972 181 972 q 147 964 156 972 q 139 943 139 956 l 139 29 q 147 8 139 17 q 168 0 154 0 q 188 8 179 0 q 197 29 196 17 "},"Ĳ":{"ha":838,"x_min":139,"x_max":699,"o":"m 219 349 l 219 943 q 211 964 219 956 q 190 972 203 972 q 169 964 178 972 q 161 943 161 956 l 161 349 q 169 328 161 336 q 190 319 176 319 q 210 328 201 319 q 219 349 218 336 m 406 -14 q 559 22 493 -14 q 662 124 625 58 q 699 276 699 190 l 699 944 q 691 964 699 956 q 671 972 683 972 q 649 964 657 972 q 640 944 640 956 l 640 276 q 611 153 640 206 q 530 71 582 100 q 406 42 478 42 q 276 86 333 42 q 193 200 219 131 q 183 213 189 208 q 167 218 178 218 q 148 212 157 218 q 139 193 139 206 q 142 179 139 188 q 246 40 176 94 q 406 -14 315 -14 "},"Í":{"ha":336,"x_min":139,"x_max":357,"o":"m 197 29 l 197 943 q 189 964 197 956 q 168 972 181 972 q 147 964 156 972 q 139 943 139 956 l 139 29 q 147 8 139 17 q 168 0 154 0 q 188 8 179 0 q 197 29 196 17 m 174 1039 q 190 1042 182 1039 q 203 1049 197 1046 l 338 1114 q 352 1127 347 1119 q 357 1147 357 1135 q 349 1170 357 1160 q 325 1181 342 1181 q 308 1177 315 1181 q 294 1169 300 1174 l 169 1076 q 160 1067 164 1072 q 157 1056 157 1063 q 160 1044 157 1050 q 174 1039 164 1039 "},"Ĭ":{"ha":336,"x_min":-15,"x_max":351,"o":"m 197 29 l 197 943 q 189 964 197 956 q 168 972 181 972 q 147 964 156 972 q 139 943 139 956 l 139 29 q 147 8 139 17 q 168 0 154 0 q 188 8 179 0 q 197 29 196 17 m 168 1083 q 285 1121 238 1083 q 349 1226 332 1158 q 347 1249 351 1242 q 326 1256 342 1256 q 309 1250 315 1256 q 299 1233 303 1244 q 168 1138 261 1138 q 88 1162 121 1138 q 36 1233 56 1186 q 26 1251 31 1246 q 8 1257 22 1257 q -10 1249 -6 1257 q -12 1226 -15 1240 q 51 1121 4 1158 q 168 1083 99 1083 "},"Ǐ":{"ha":336,"x_min":6,"x_max":328,"o":"m 197 29 l 197 943 q 189 964 197 956 q 168 972 181 972 q 147 964 156 972 q 139 943 139 956 l 139 29 q 147 8 139 17 q 168 0 154 0 q 188 8 179 0 q 197 29 196 17 m 160 1104 l 175 1110 l 49 1208 q 22 1222 32 1222 q 10 1217 15 1222 q 6 1206 6 1213 q 8 1197 6 1201 q 14 1189 10 1193 l 126 1071 q 141 1058 133 1061 q 160 1054 149 1054 l 174 1054 q 193 1058 185 1054 q 207 1071 201 1061 l 319 1190 q 326 1199 324 1194 q 328 1207 328 1203 q 323 1219 328 1214 q 311 1224 318 1224 q 299 1220 306 1224 q 285 1210 292 1217 l 160 1104 "},"Î":{"ha":336,"x_min":6,"x_max":328,"o":"m 197 29 l 197 943 q 189 964 197 956 q 168 972 181 972 q 147 964 156 972 q 139 943 139 956 l 139 29 q 147 8 139 17 q 168 0 154 0 q 188 8 179 0 q 197 29 196 17 m 174 1186 l 158 1181 l 285 1082 q 299 1072 292 1076 q 311 1068 306 1068 q 323 1074 318 1068 q 328 1085 328 1079 q 326 1093 328 1089 q 319 1101 324 1097 l 207 1219 q 192 1232 199 1228 q 174 1236 185 1236 l 160 1236 q 142 1232 149 1236 q 126 1219 135 1228 l 14 1100 q 8 1092 10 1096 q 6 1083 6 1088 q 10 1072 6 1078 q 22 1067 15 1067 q 35 1071 29 1067 q 49 1081 42 1075 l 174 1186 "},"Ȉ":{"ha":336,"x_min":-60,"x_max":356,"o":"m 197 29 l 197 943 q 189 964 197 956 q 168 972 181 972 q 147 964 156 972 q 139 943 139 956 l 139 29 q 147 8 139 17 q 168 0 154 0 q 188 8 179 0 q 197 29 196 17 m 124 1050 q 137 1056 133 1050 q 140 1067 140 1061 q 137 1078 140 1074 q 128 1088 133 1083 l 3 1181 q -10 1188 -3 1185 q -28 1192 -18 1192 q -52 1181 -44 1192 q -60 1158 -60 1171 q -40 1125 -60 1136 l 94 1060 q 108 1053 101 1057 q 124 1050 115 1050 m 339 1044 q 352 1050 349 1044 q 356 1061 356 1056 q 352 1073 356 1068 q 343 1082 349 1078 l 218 1175 q 205 1183 213 1179 q 188 1186 197 1186 q 163 1176 171 1186 q 156 1153 156 1165 q 175 1119 156 1131 l 310 1054 q 324 1048 317 1051 q 339 1044 331 1044 "},"Ï":{"ha":336,"x_min":7,"x_max":329,"o":"m 197 29 l 197 943 q 189 964 197 956 q 168 972 181 972 q 147 964 156 972 q 139 943 139 956 l 139 29 q 147 8 139 17 q 168 0 154 0 q 188 8 179 0 q 197 29 196 17 m 282 1083 q 316 1097 303 1083 q 329 1133 329 1111 l 329 1144 q 316 1181 329 1167 q 283 1194 303 1194 q 247 1181 261 1194 q 233 1144 233 1167 l 233 1133 q 247 1097 233 1111 q 282 1083 260 1083 m 56 1083 q 90 1097 76 1083 q 103 1133 103 1111 l 103 1144 q 90 1181 103 1167 q 57 1194 76 1194 q 21 1181 35 1194 q 7 1144 7 1167 l 7 1133 q 20 1097 7 1111 q 56 1083 33 1083 "},"Ḯ":{"ha":336,"x_min":7,"x_max":357,"o":"m 197 29 l 197 943 q 189 964 197 956 q 168 972 181 972 q 147 964 156 972 q 139 943 139 956 l 139 29 q 147 8 139 17 q 168 0 154 0 q 188 8 179 0 q 197 29 196 17 m 282 1083 q 316 1097 303 1083 q 329 1133 329 1111 l 329 1144 q 316 1181 329 1167 q 283 1194 303 1194 q 247 1181 261 1194 q 233 1144 233 1167 l 233 1133 q 247 1097 233 1111 q 282 1083 260 1083 m 56 1083 q 90 1097 76 1083 q 103 1133 103 1111 l 103 1144 q 90 1181 103 1167 q 57 1194 76 1194 q 21 1181 35 1194 q 7 1144 7 1167 l 7 1133 q 20 1097 7 1111 q 56 1083 33 1083 m 174 1261 q 190 1265 182 1261 q 203 1271 197 1268 l 338 1336 q 352 1349 347 1342 q 357 1369 357 1357 q 349 1392 357 1382 q 325 1403 342 1403 q 308 1399 315 1403 q 294 1392 300 1396 l 169 1299 q 160 1290 164 1294 q 157 1278 157 1285 q 160 1267 157 1272 q 174 1261 164 1261 "},"İ":{"ha":336,"x_min":119,"x_max":215,"o":"m 197 29 l 197 943 q 189 964 197 956 q 168 972 181 972 q 147 964 156 972 q 139 943 139 956 l 139 29 q 147 8 139 17 q 168 0 154 0 q 188 8 179 0 q 197 29 196 17 m 168 1083 q 202 1097 189 1083 q 215 1133 215 1111 l 215 1144 q 202 1181 215 1167 q 169 1194 189 1194 q 133 1181 147 1194 q 119 1144 119 1167 l 119 1133 q 133 1097 119 1111 q 168 1083 146 1083 "},"Ị":{"ha":336,"x_min":119,"x_max":215,"o":"m 197 29 l 197 943 q 189 964 197 956 q 168 972 181 972 q 147 964 156 972 q 139 943 139 956 l 139 29 q 147 8 139 17 q 168 0 154 0 q 188 8 179 0 q 197 29 196 17 m 168 -190 q 202 -176 189 -190 q 215 -140 215 -162 l 215 -129 q 202 -93 215 -107 q 169 -79 189 -79 q 133 -93 147 -79 q 119 -129 119 -107 l 119 -140 q 133 -176 119 -162 q 168 -190 146 -190 "},"Ì":{"ha":336,"x_min":-15,"x_max":197,"o":"m 197 29 l 197 943 q 189 964 197 956 q 168 972 181 972 q 147 964 156 972 q 139 943 139 956 l 139 29 q 147 8 139 17 q 168 0 154 0 q 188 8 179 0 q 197 29 196 17 m 168 1039 q 181 1044 178 1039 q 185 1056 185 1050 q 181 1067 185 1063 q 172 1076 178 1072 l 47 1169 q 34 1177 42 1174 q 17 1181 26 1181 q -8 1170 0 1181 q -15 1147 -15 1160 q 4 1114 -15 1125 l 139 1049 q 153 1042 146 1046 q 168 1039 160 1039 "},"Ỉ":{"ha":336,"x_min":61,"x_max":275,"o":"m 197 29 l 197 943 q 189 964 197 956 q 168 972 181 972 q 147 964 156 972 q 139 943 139 956 l 139 29 q 147 8 139 17 q 168 0 154 0 q 188 8 179 0 q 197 29 196 17 m 71 1242 q 61 1223 61 1232 q 67 1207 61 1214 q 87 1199 75 1197 q 110 1210 99 1200 q 139 1228 122 1219 q 175 1236 156 1236 q 211 1224 196 1236 q 226 1192 226 1211 q 215 1161 226 1174 q 183 1129 203 1149 q 167 1100 169 1115 q 164 1074 164 1085 q 169 1058 164 1065 q 186 1051 175 1051 q 202 1056 196 1051 q 210 1071 208 1061 q 214 1090 211 1083 q 222 1103 217 1097 q 260 1146 246 1126 q 275 1190 275 1165 q 265 1232 275 1210 q 233 1270 256 1254 q 172 1286 211 1286 q 117 1274 143 1286 q 71 1242 90 1261 "},"Ȋ":{"ha":336,"x_min":-3,"x_max":333,"o":"m 197 29 l 197 943 q 189 964 197 956 q 168 972 181 972 q 147 964 156 972 q 139 943 139 956 l 139 29 q 147 8 139 17 q 168 0 154 0 q 188 8 179 0 q 197 29 196 17 m 165 1172 q 81 1153 119 1172 q 20 1101 43 1133 q -3 1033 -3 1069 q 5 1016 -3 1024 q 24 1008 13 1008 q 44 1016 38 1008 q 53 1036 51 1024 q 92 1098 60 1076 q 165 1119 124 1119 q 239 1098 207 1119 q 278 1036 271 1076 q 287 1016 281 1024 q 307 1008 293 1008 q 326 1016 318 1008 q 333 1033 333 1024 q 310 1101 333 1069 q 250 1153 288 1133 q 165 1172 213 1172 "},"Ī":{"ha":336,"x_min":-37,"x_max":385,"o":"m 197 29 l 197 943 q 189 964 197 956 q 168 972 181 972 q 147 964 156 972 q 139 943 139 956 l 139 29 q 147 8 139 17 q 168 0 154 0 q 188 8 179 0 q 197 29 196 17 m -7 1111 l 354 1111 q 385 1136 385 1111 q 354 1164 385 1164 l -7 1164 q -37 1136 -37 1164 q -7 1111 -37 1111 "},"Į":{"ha":306,"x_min":21,"x_max":243,"o":"m 143 -257 q 194 -248 172 -257 q 230 -223 217 -239 q 243 -189 243 -207 q 238 -176 243 -182 q 224 -169 233 -169 q 206 -178 213 -169 q 188 -197 199 -187 q 150 -206 176 -206 q 97 -183 121 -206 q 74 -118 74 -160 q 105 -37 74 -69 q 167 8 136 -4 q 188 22 182 15 q 194 42 194 28 l 194 943 q 186 964 194 956 q 165 972 178 972 q 144 964 153 972 q 136 943 136 956 l 136 29 l 144 26 l 138 32 q 94 11 115 25 q 57 -24 74 -3 q 31 -71 40 -44 q 21 -129 21 -97 q 59 -222 21 -187 q 143 -257 97 -257 "},"Ĩ":{"ha":336,"x_min":-31,"x_max":368,"o":"m 197 29 l 197 943 q 189 964 197 956 q 168 972 181 972 q 147 964 156 972 q 139 943 139 956 l 139 29 q 147 8 139 17 q 168 0 154 0 q 188 8 179 0 q 197 29 196 17 m -8 1086 q 6 1091 -1 1086 q 17 1106 14 1096 q 42 1152 26 1138 q 79 1167 58 1167 q 134 1148 103 1167 q 198 1110 165 1129 q 257 1090 231 1090 q 303 1099 282 1090 q 341 1127 325 1107 q 364 1181 357 1147 q 365 1215 368 1201 q 344 1228 361 1228 q 327 1221 333 1228 q 319 1203 321 1214 q 302 1158 315 1175 q 268 1140 289 1140 q 213 1160 244 1140 q 147 1199 181 1179 q 85 1219 114 1219 q 19 1200 51 1219 q -25 1135 -12 1181 q -26 1099 -31 1111 q -8 1086 -22 1086 "},"J":{"ha":803,"x_min":104,"x_max":664,"o":"m 371 -14 q 524 22 458 -14 q 627 124 590 58 q 664 276 664 190 l 664 944 q 656 964 664 956 q 636 972 649 972 q 614 964 622 972 q 606 944 606 956 l 606 276 q 576 153 606 206 q 495 71 547 100 q 371 42 443 42 q 242 86 299 42 q 158 200 185 131 q 149 213 154 208 q 132 218 143 218 q 113 212 122 218 q 104 193 104 206 q 107 179 104 188 q 211 40 142 94 q 371 -14 281 -14 "},"Ĵ":{"ha":803,"x_min":104,"x_max":796,"o":"m 371 -14 q 524 22 458 -14 q 627 124 590 58 q 664 276 664 190 l 664 944 q 656 964 664 956 q 636 972 649 972 q 614 964 622 972 q 606 944 606 956 l 606 276 q 576 153 606 206 q 495 71 547 100 q 371 42 443 42 q 242 86 299 42 q 158 200 185 131 q 149 213 154 208 q 132 218 143 218 q 113 212 122 218 q 104 193 104 206 q 107 179 104 188 q 211 40 142 94 q 371 -14 281 -14 m 642 1186 l 626 1181 l 753 1082 q 767 1072 760 1076 q 779 1068 774 1068 q 791 1074 786 1068 q 796 1085 796 1079 q 794 1093 796 1089 q 788 1101 792 1097 l 675 1219 q 660 1232 667 1228 q 642 1236 653 1236 l 628 1236 q 610 1232 617 1236 q 594 1219 603 1228 l 482 1100 q 476 1092 478 1096 q 474 1083 474 1088 q 478 1072 474 1078 q 490 1067 483 1067 q 503 1071 497 1067 q 517 1081 510 1075 l 642 1186 "},"K":{"ha":947,"x_min":139,"x_max":874,"o":"m 842 -7 q 862 -1 850 -7 q 874 22 874 6 q 867 42 874 32 l 447 567 l 403 522 l 822 3 q 842 -7 831 -7 m 817 967 q 797 958 806 967 l 176 376 l 189 317 l 836 919 q 844 939 844 928 q 836 958 844 950 q 817 967 828 967 m 168 0 q 188 8 179 0 q 197 29 196 17 l 197 943 q 189 964 197 956 q 168 972 181 972 q 147 964 156 972 q 139 943 139 956 l 139 29 q 147 8 139 17 q 168 0 154 0 "},"Ķ":{"ha":947,"x_min":139,"x_max":874,"o":"m 842 -7 q 862 -1 850 -7 q 874 22 874 6 q 867 42 874 32 l 447 567 l 403 522 l 822 3 q 842 -7 831 -7 m 817 967 q 797 958 806 967 l 176 376 l 189 317 l 836 919 q 844 939 844 928 q 836 958 844 950 q 817 967 828 967 m 168 0 q 188 8 179 0 q 197 29 196 17 l 197 943 q 189 964 197 956 q 168 972 181 972 q 147 964 156 972 q 139 943 139 956 l 139 29 q 147 8 139 17 q 168 0 154 0 m 488 -150 q 469 -92 488 -111 q 422 -74 450 -74 q 374 -87 392 -74 q 357 -121 357 -101 q 365 -142 357 -131 q 389 -153 374 -154 q 405 -147 400 -153 q 418 -142 410 -142 q 432 -158 432 -142 q 426 -190 432 -179 q 408 -204 419 -201 q 383 -204 390 -207 q 368 -201 375 -201 q 355 -208 360 -201 q 350 -225 350 -215 q 360 -242 350 -236 q 392 -247 369 -247 q 438 -235 417 -247 q 474 -200 460 -222 q 488 -150 488 -178 "},"L":{"ha":725,"x_min":139,"x_max":704,"o":"m 676 56 l 172 56 l 197 31 l 197 944 q 189 964 197 956 q 168 972 181 972 q 147 964 156 972 q 139 944 139 956 l 139 28 q 147 8 139 17 q 167 0 154 0 l 676 0 q 696 8 688 0 q 704 28 704 15 q 696 47 704 39 q 676 56 688 56 "},"Ǉ":{"ha":1528,"x_min":139,"x_max":1389,"o":"m 676 56 l 172 56 l 197 31 l 197 944 q 189 964 197 956 q 168 972 181 972 q 147 964 156 972 q 139 944 139 956 l 139 28 q 147 8 139 17 q 167 0 154 0 l 676 0 q 696 8 688 0 q 704 28 704 15 q 696 47 704 39 q 676 56 688 56 m 1096 -14 q 1249 22 1183 -14 q 1352 124 1315 58 q 1389 276 1389 190 l 1389 944 q 1381 964 1389 956 q 1361 972 1374 972 q 1339 964 1347 972 q 1331 944 1331 956 l 1331 276 q 1301 153 1331 206 q 1220 71 1272 100 q 1096 42 1168 42 q 967 86 1024 42 q 883 200 910 131 q 874 213 879 208 q 857 218 868 218 q 838 212 847 218 q 829 193 829 206 q 832 179 829 188 q 936 40 867 94 q 1096 -14 1006 -14 "},"Ĺ":{"ha":725,"x_min":139,"x_max":704,"o":"m 676 56 l 172 56 l 197 31 l 197 944 q 189 964 197 956 q 168 972 181 972 q 147 964 156 972 q 139 944 139 956 l 139 28 q 147 8 139 17 q 167 0 154 0 l 676 0 q 696 8 688 0 q 704 28 704 15 q 696 47 704 39 q 676 56 688 56 m 160 1039 q 176 1042 168 1039 q 189 1049 183 1046 l 324 1114 q 338 1127 333 1119 q 343 1147 343 1135 q 335 1170 343 1160 q 311 1181 328 1181 q 294 1177 301 1181 q 281 1169 286 1174 l 156 1076 q 147 1067 150 1072 q 143 1056 143 1063 q 147 1044 143 1050 q 160 1039 150 1039 "},"Ľ":{"ha":725,"x_min":139,"x_max":704,"o":"m 676 56 l 172 56 l 197 31 l 197 944 q 189 964 197 956 q 168 972 181 972 q 147 964 156 972 q 139 944 139 956 l 139 28 q 147 8 139 17 q 167 0 154 0 l 676 0 q 696 8 688 0 q 704 28 704 15 q 696 47 704 39 q 676 56 688 56 m 539 951 q 519 1009 539 982 q 468 1036 499 1036 q 428 1024 446 1036 q 407 994 410 1011 q 409 978 406 986 q 418 963 413 969 q 435 972 425 968 q 454 975 444 975 q 474 966 465 975 q 483 938 483 957 q 470 897 483 915 q 432 867 457 879 q 399 854 410 856 q 389 838 389 853 q 397 817 389 822 q 414 813 404 813 q 469 833 440 813 q 518 885 497 853 q 539 951 539 917 "},"Ḽ":{"ha":725,"x_min":139,"x_max":704,"o":"m 676 56 l 172 56 l 197 31 l 197 944 q 189 964 197 956 q 168 972 181 972 q 147 964 156 972 q 139 944 139 956 l 139 28 q 147 8 139 17 q 167 0 154 0 l 676 0 q 696 8 688 0 q 704 28 704 15 q 696 47 704 39 q 676 56 688 56 m 404 -158 l 389 -164 l 515 -262 q 529 -272 522 -268 q 542 -276 536 -276 q 553 -271 549 -276 q 558 -260 558 -265 q 556 -251 558 -256 q 550 -243 554 -247 l 438 -125 q 424 -112 432 -115 q 404 -108 415 -108 l 390 -108 q 357 -125 368 -108 l 244 -244 q 238 -253 240 -249 q 236 -261 236 -257 q 241 -272 236 -267 q 253 -278 246 -278 q 266 -274 260 -278 q 279 -264 272 -269 l 404 -158 "},"Ļ":{"ha":725,"x_min":139,"x_max":704,"o":"m 676 56 l 172 56 l 197 31 l 197 944 q 189 964 197 956 q 168 972 181 972 q 147 964 156 972 q 139 944 139 956 l 139 28 q 147 8 139 17 q 167 0 154 0 l 676 0 q 696 8 688 0 q 704 28 704 15 q 696 47 704 39 q 676 56 688 56 m 468 -150 q 449 -92 468 -111 q 403 -74 431 -74 q 355 -87 372 -74 q 338 -121 338 -101 q 346 -142 338 -131 q 369 -153 354 -154 q 385 -147 381 -153 q 399 -142 390 -142 q 413 -158 413 -142 q 406 -190 413 -179 q 389 -204 400 -201 q 363 -204 371 -207 q 349 -201 356 -201 q 335 -208 340 -201 q 331 -225 331 -215 q 340 -242 331 -236 q 372 -247 350 -247 q 419 -235 397 -247 q 454 -200 440 -222 q 468 -150 468 -178 "},"Ŀ":{"ha":746,"x_min":139,"x_max":704,"o":"m 676 56 l 172 56 l 197 31 l 197 944 q 189 964 197 956 q 168 972 181 972 q 147 964 156 972 q 139 944 139 956 l 139 28 q 147 8 139 17 q 167 0 154 0 l 676 0 q 696 8 688 0 q 704 28 704 15 q 696 47 704 39 q 676 56 688 56 m 544 465 l 550 465 q 581 478 569 465 q 593 508 593 490 l 593 540 q 581 572 593 560 q 550 583 569 583 l 544 583 q 514 572 526 583 q 501 540 501 560 l 501 508 q 514 478 501 490 q 544 465 526 465 "},"Ḷ":{"ha":725,"x_min":139,"x_max":704,"o":"m 676 56 l 172 56 l 197 31 l 197 944 q 189 964 197 956 q 168 972 181 972 q 147 964 156 972 q 139 944 139 956 l 139 28 q 147 8 139 17 q 167 0 154 0 l 676 0 q 696 8 688 0 q 704 28 704 15 q 696 47 704 39 q 676 56 688 56 m 397 -190 q 431 -176 418 -190 q 444 -140 444 -162 l 444 -129 q 431 -93 444 -107 q 399 -79 418 -79 q 363 -93 376 -79 q 349 -129 349 -107 l 349 -140 q 362 -176 349 -162 q 397 -190 375 -190 "},"ǈ":{"ha":1097,"x_min":139,"x_max":933,"o":"m 676 56 l 172 56 l 197 31 l 197 944 q 189 964 197 956 q 168 972 181 972 q 147 964 156 972 q 139 944 139 956 l 139 28 q 147 8 139 17 q 167 0 154 0 l 676 0 q 696 8 688 0 q 704 28 704 15 q 696 47 704 39 q 676 56 688 56 m 914 -81 l 914 667 q 906 686 914 678 q 886 694 899 694 q 866 686 874 694 q 858 667 858 678 l 858 -81 q 837 -156 858 -126 q 784 -200 815 -185 q 722 -221 753 -215 q 705 -229 713 -222 q 697 -247 697 -236 l 697 -250 q 704 -267 697 -260 q 724 -275 711 -275 q 806 -252 763 -275 q 882 -186 850 -229 q 914 -81 914 -143 m 886 811 q 920 824 907 811 q 933 856 933 836 l 933 867 q 920 899 933 886 q 888 911 907 911 q 851 899 865 911 q 838 867 838 886 l 838 856 q 851 824 838 836 q 886 811 864 811 "},"Ḻ":{"ha":725,"x_min":139,"x_max":704,"o":"m 676 56 l 172 56 l 197 31 l 197 944 q 189 964 197 956 q 168 972 181 972 q 147 964 156 972 q 139 944 139 956 l 139 28 q 147 8 139 17 q 167 0 154 0 l 676 0 q 696 8 688 0 q 704 28 704 15 q 696 47 704 39 q 676 56 688 56 m 265 -162 l 543 -162 q 571 -137 571 -162 q 543 -111 571 -111 l 265 -111 q 238 -137 238 -111 q 265 -162 238 -162 "},"Ł":{"ha":779,"x_min":69,"x_max":758,"o":"m 94 483 q 101 484 97 483 q 108 486 106 485 l 386 608 q 404 635 404 617 q 399 652 404 642 q 379 663 394 663 q 364 658 372 663 l 86 536 q 69 510 69 528 q 76 491 69 499 q 94 483 82 483 m 249 44 l 249 944 q 241 964 249 956 q 221 972 233 972 q 201 964 210 972 q 193 944 193 956 l 193 28 q 201 8 193 17 q 221 0 208 0 l 731 0 q 750 8 742 0 q 758 28 758 15 q 750 47 758 39 q 731 56 742 56 l 239 56 l 249 44 "},"M":{"ha":1151,"x_min":139,"x_max":1013,"o":"m 165 972 q 146 963 153 972 q 139 944 139 954 l 139 28 q 147 8 139 17 q 167 0 154 0 q 186 8 178 0 q 194 28 194 17 l 194 893 l 172 893 l 554 317 q 563 308 557 311 q 576 306 569 306 q 588 308 583 306 q 596 317 593 311 l 969 882 l 954 882 l 954 28 q 963 8 954 17 q 983 0 971 0 q 1003 8 994 0 q 1013 28 1013 17 l 1013 944 q 1006 963 1013 956 q 988 972 999 971 q 961 960 972 975 l 563 367 l 590 367 l 192 960 q 179 969 186 967 q 165 972 172 972 "},"Ṃ":{"ha":1151,"x_min":139,"x_max":1013,"o":"m 165 972 q 146 963 153 972 q 139 944 139 954 l 139 28 q 147 8 139 17 q 167 0 154 0 q 186 8 178 0 q 194 28 194 17 l 194 893 l 172 893 l 554 317 q 563 308 557 311 q 576 306 569 306 q 588 308 583 306 q 596 317 593 311 l 969 882 l 954 882 l 954 28 q 963 8 954 17 q 983 0 971 0 q 1003 8 994 0 q 1013 28 1013 17 l 1013 944 q 1006 963 1013 956 q 988 972 999 971 q 961 960 972 975 l 563 367 l 590 367 l 192 960 q 179 969 186 967 q 165 972 172 972 m 576 -190 q 610 -176 597 -190 q 624 -140 624 -162 l 624 -129 q 610 -93 624 -107 q 578 -79 597 -79 q 542 -93 556 -79 q 528 -129 528 -107 l 528 -140 q 541 -176 528 -162 q 576 -190 554 -190 "},"N":{"ha":1007,"x_min":139,"x_max":868,"o":"m 842 972 q 824 965 832 972 q 815 946 815 957 l 815 60 l 826 88 l 185 963 q 175 970 181 968 q 164 972 169 972 q 147 966 156 972 q 139 944 139 960 l 139 24 q 146 7 139 14 q 165 0 153 0 q 184 7 176 0 q 192 24 192 14 l 192 901 l 172 892 l 817 11 q 827 3 821 6 q 839 0 833 0 q 859 8 850 0 q 868 31 868 15 l 868 946 q 861 965 868 957 q 842 972 854 972 "},"Ǌ":{"ha":1810,"x_min":139,"x_max":1671,"o":"m 842 972 q 824 965 832 972 q 815 946 815 957 l 815 60 l 826 88 l 185 963 q 175 970 181 968 q 164 972 169 972 q 147 966 156 972 q 139 944 139 960 l 139 24 q 146 7 139 14 q 165 0 153 0 q 184 7 176 0 q 192 24 192 14 l 192 901 l 172 892 l 817 11 q 827 3 821 6 q 839 0 833 0 q 859 8 850 0 q 868 31 868 15 l 868 946 q 861 965 868 957 q 842 972 854 972 m 1378 -14 q 1531 22 1465 -14 q 1634 124 1597 58 q 1671 276 1671 190 l 1671 944 q 1663 964 1671 956 q 1643 972 1656 972 q 1621 964 1629 972 q 1613 944 1613 956 l 1613 276 q 1583 153 1613 206 q 1502 71 1554 100 q 1378 42 1450 42 q 1249 86 1306 42 q 1165 200 1192 131 q 1156 213 1161 208 q 1139 218 1150 218 q 1120 212 1129 218 q 1111 193 1111 206 q 1114 179 1111 188 q 1218 40 1149 94 q 1378 -14 1288 -14 "},"Ń":{"ha":1007,"x_min":139,"x_max":868,"o":"m 842 972 q 824 965 832 972 q 815 946 815 957 l 815 60 l 826 88 l 185 963 q 175 970 181 968 q 164 972 169 972 q 147 966 156 972 q 139 944 139 960 l 139 24 q 146 7 139 14 q 165 0 153 0 q 184 7 176 0 q 192 24 192 14 l 192 901 l 172 892 l 817 11 q 827 3 821 6 q 839 0 833 0 q 859 8 850 0 q 868 31 868 15 l 868 946 q 861 965 868 957 q 842 972 854 972 m 510 1039 q 526 1042 518 1039 q 539 1049 533 1046 l 674 1114 q 688 1127 683 1119 q 693 1147 693 1135 q 685 1170 693 1160 q 661 1181 678 1181 q 644 1177 651 1181 q 631 1169 636 1174 l 506 1076 q 497 1067 500 1072 q 493 1056 493 1063 q 497 1044 493 1050 q 510 1039 500 1039 "},"Ň":{"ha":1007,"x_min":139,"x_max":868,"o":"m 842 972 q 824 965 832 972 q 815 946 815 957 l 815 60 l 826 88 l 185 963 q 175 970 181 968 q 164 972 169 972 q 147 966 156 972 q 139 944 139 960 l 139 24 q 146 7 139 14 q 165 0 153 0 q 184 7 176 0 q 192 24 192 14 l 192 901 l 172 892 l 817 11 q 827 3 821 6 q 839 0 833 0 q 859 8 850 0 q 868 31 868 15 l 868 946 q 861 965 868 957 q 842 972 854 972 m 496 1104 l 511 1110 l 385 1208 q 358 1222 368 1222 q 347 1217 351 1222 q 342 1206 342 1213 q 344 1197 342 1201 q 350 1189 346 1193 l 463 1071 q 477 1058 469 1061 q 496 1054 485 1054 l 510 1054 q 529 1058 521 1054 q 543 1071 538 1061 l 656 1190 q 662 1199 660 1194 q 664 1207 664 1203 q 659 1219 664 1214 q 647 1224 654 1224 q 635 1220 642 1224 q 621 1210 628 1217 l 496 1104 "},"Ṋ":{"ha":1007,"x_min":139,"x_max":868,"o":"m 842 972 q 824 965 832 972 q 815 946 815 957 l 815 60 l 826 88 l 185 963 q 175 970 181 968 q 164 972 169 972 q 147 966 156 972 q 139 944 139 960 l 139 24 q 146 7 139 14 q 165 0 153 0 q 184 7 176 0 q 192 24 192 14 l 192 901 l 172 892 l 817 11 q 827 3 821 6 q 839 0 833 0 q 859 8 850 0 q 868 31 868 15 l 868 946 q 861 965 868 957 q 842 972 854 972 m 511 -158 l 496 -164 l 622 -262 q 636 -272 629 -268 q 649 -276 643 -276 q 660 -271 656 -276 q 665 -260 665 -265 q 663 -251 665 -256 q 657 -243 661 -247 l 544 -125 q 531 -112 539 -115 q 511 -108 522 -108 l 497 -108 q 464 -125 475 -108 l 351 -244 q 345 -253 347 -249 q 343 -261 343 -257 q 348 -272 343 -267 q 360 -278 353 -278 q 373 -274 367 -278 q 386 -264 379 -269 l 511 -158 "},"Ņ":{"ha":1007,"x_min":139,"x_max":868,"o":"m 842 972 q 824 965 832 972 q 815 946 815 957 l 815 60 l 826 88 l 185 963 q 175 970 181 968 q 164 972 169 972 q 147 966 156 972 q 139 944 139 960 l 139 24 q 146 7 139 14 q 165 0 153 0 q 184 7 176 0 q 192 24 192 14 l 192 901 l 172 892 l 817 11 q 827 3 821 6 q 839 0 833 0 q 859 8 850 0 q 868 31 868 15 l 868 946 q 861 965 868 957 q 842 972 854 972 m 575 -150 q 556 -92 575 -111 q 510 -74 538 -74 q 462 -87 479 -74 q 444 -121 444 -101 q 453 -142 444 -131 q 476 -153 461 -154 q 492 -147 488 -153 q 506 -142 497 -142 q 519 -158 519 -142 q 513 -190 519 -179 q 496 -204 507 -201 q 470 -204 478 -207 q 456 -201 463 -201 q 442 -208 447 -201 q 438 -225 438 -215 q 447 -242 438 -236 q 479 -247 457 -247 q 526 -235 504 -247 q 561 -200 547 -222 q 575 -150 575 -178 "},"Ṅ":{"ha":1007,"x_min":139,"x_max":868,"o":"m 842 972 q 824 965 832 972 q 815 946 815 957 l 815 60 l 826 88 l 185 963 q 175 970 181 968 q 164 972 169 972 q 147 966 156 972 q 139 944 139 960 l 139 24 q 146 7 139 14 q 165 0 153 0 q 184 7 176 0 q 192 24 192 14 l 192 901 l 172 892 l 817 11 q 827 3 821 6 q 839 0 833 0 q 859 8 850 0 q 868 31 868 15 l 868 946 q 861 965 868 957 q 842 972 854 972 m 504 1083 q 538 1097 525 1083 q 551 1133 551 1111 l 551 1144 q 538 1181 551 1167 q 506 1194 525 1194 q 469 1181 483 1194 q 456 1144 456 1167 l 456 1133 q 469 1097 456 1111 q 504 1083 482 1083 "},"Ṇ":{"ha":1007,"x_min":139,"x_max":868,"o":"m 842 972 q 824 965 832 972 q 815 946 815 957 l 815 60 l 826 88 l 185 963 q 175 970 181 968 q 164 972 169 972 q 147 966 156 972 q 139 944 139 960 l 139 24 q 146 7 139 14 q 165 0 153 0 q 184 7 176 0 q 192 24 192 14 l 192 901 l 172 892 l 817 11 q 827 3 821 6 q 839 0 833 0 q 859 8 850 0 q 868 31 868 15 l 868 946 q 861 965 868 957 q 842 972 854 972 m 504 -190 q 538 -176 525 -190 q 551 -140 551 -162 l 551 -129 q 538 -93 551 -107 q 506 -79 525 -79 q 469 -93 483 -79 q 456 -129 456 -107 l 456 -140 q 469 -176 456 -162 q 504 -190 482 -190 "},"Ɲ":{"ha":1007,"x_min":-25,"x_max":868,"o":"m 6 -275 q 58 -261 32 -271 q 109 -235 85 -251 q 151 -197 133 -219 q 181 -146 169 -175 q 192 -81 192 -117 l 192 901 l 172 892 l 817 11 q 827 3 821 6 q 839 0 833 0 q 859 8 850 0 q 868 31 868 15 l 868 946 q 861 965 868 957 q 842 972 854 972 q 824 965 832 972 q 815 946 815 957 l 815 60 l 826 88 l 185 963 q 175 970 181 968 q 164 972 169 972 q 147 966 156 972 q 139 944 139 960 l 139 -81 q 117 -156 139 -126 q 63 -200 94 -185 q 0 -221 31 -215 q -17 -229 -10 -222 q -25 -250 -25 -236 q -17 -269 -25 -261 q 6 -275 -8 -276 "},"ǋ":{"ha":1379,"x_min":139,"x_max":1215,"o":"m 842 972 q 824 965 832 972 q 815 946 815 957 l 815 60 l 826 88 l 185 963 q 175 970 181 968 q 164 972 169 972 q 147 966 156 972 q 139 944 139 960 l 139 24 q 146 7 139 14 q 165 0 153 0 q 184 7 176 0 q 192 24 192 14 l 192 901 l 172 892 l 817 11 q 827 3 821 6 q 839 0 833 0 q 859 8 850 0 q 868 31 868 15 l 868 946 q 861 965 868 957 q 842 972 854 972 m 1196 -81 l 1196 667 q 1188 686 1196 678 q 1168 694 1181 694 q 1148 686 1156 694 q 1140 667 1140 678 l 1140 -81 q 1119 -156 1140 -126 q 1066 -200 1097 -185 q 1004 -221 1035 -215 q 987 -229 994 -222 q 979 -247 979 -236 l 979 -250 q 986 -267 979 -260 q 1006 -275 993 -275 q 1088 -252 1044 -275 q 1164 -186 1132 -229 q 1196 -81 1196 -143 m 1168 811 q 1202 824 1189 811 q 1215 856 1215 836 l 1215 867 q 1202 899 1215 886 q 1169 911 1189 911 q 1133 899 1147 911 q 1119 867 1119 886 l 1119 856 q 1133 824 1119 836 q 1168 811 1146 811 "},"Ṉ":{"ha":1007,"x_min":139,"x_max":868,"o":"m 842 972 q 824 965 832 972 q 815 946 815 957 l 815 60 l 826 88 l 185 963 q 175 970 181 968 q 164 972 169 972 q 147 966 156 972 q 139 944 139 960 l 139 24 q 146 7 139 14 q 165 0 153 0 q 184 7 176 0 q 192 24 192 14 l 192 901 l 172 892 l 817 11 q 827 3 821 6 q 839 0 833 0 q 859 8 850 0 q 868 31 868 15 l 868 946 q 861 965 868 957 q 842 972 854 972 m 372 -162 l 650 -162 q 678 -137 678 -162 q 650 -111 678 -111 l 372 -111 q 344 -137 344 -111 q 372 -162 344 -162 "},"Ñ":{"ha":1007,"x_min":139,"x_max":868,"o":"m 842 972 q 824 965 832 972 q 815 946 815 957 l 815 60 l 826 88 l 185 963 q 175 970 181 968 q 164 972 169 972 q 147 966 156 972 q 139 944 139 960 l 139 24 q 146 7 139 14 q 165 0 153 0 q 184 7 176 0 q 192 24 192 14 l 192 901 l 172 892 l 817 11 q 827 3 821 6 q 839 0 833 0 q 859 8 850 0 q 868 31 868 15 l 868 946 q 861 965 868 957 q 842 972 854 972 m 328 1086 q 342 1091 335 1086 q 353 1106 350 1096 q 378 1152 363 1138 q 415 1167 394 1167 q 470 1148 439 1167 q 534 1110 501 1129 q 593 1090 567 1090 q 640 1099 618 1090 q 677 1127 661 1107 q 700 1181 693 1147 q 701 1215 704 1201 q 681 1228 697 1228 q 663 1221 669 1228 q 656 1203 657 1214 q 638 1158 651 1175 q 604 1140 625 1140 q 549 1160 581 1140 q 483 1199 517 1179 q 421 1219 450 1219 q 356 1200 388 1219 q 311 1135 324 1181 q 310 1099 306 1111 q 328 1086 314 1086 "},"Ŋ":{"ha":1035,"x_min":139,"x_max":896,"o":"m 653 -278 q 803 -247 751 -278 q 876 -165 856 -215 q 896 -61 896 -115 l 896 58 l 896 939 q 888 958 896 950 q 868 967 881 967 q 849 958 857 967 q 840 939 840 950 l 840 88 l 849 99 l 190 960 q 182 967 189 963 q 168 972 175 972 q 148 965 157 972 q 139 944 139 958 l 139 28 q 147 8 139 17 q 167 0 154 0 q 186 8 178 0 q 194 28 194 17 l 194 869 l 193 865 l 850 6 l 842 51 l 840 -61 q 826 -144 840 -107 q 772 -201 813 -181 q 651 -222 732 -222 q 631 -230 639 -222 q 622 -250 622 -237 q 631 -270 622 -262 q 653 -278 639 -278 "},"O":{"ha":1067,"x_min":69,"x_max":997,"o":"m 997 486 q 963 689 997 597 q 867 847 929 781 q 719 950 804 914 q 533 986 635 986 q 347 950 432 986 q 200 847 263 914 q 103 689 138 781 q 69 486 69 597 q 103 283 69 375 q 200 125 138 192 q 347 22 263 58 q 533 -14 432 -14 q 719 22 635 -14 q 867 125 804 58 q 963 283 929 192 q 997 486 997 375 m 939 486 q 887 253 939 353 q 744 97 835 153 q 533 42 653 42 q 324 97 415 42 q 180 253 232 153 q 128 486 128 353 q 180 719 128 619 q 324 875 232 819 q 533 931 415 931 q 744 875 653 931 q 887 719 835 819 q 939 486 939 619 "},"Ó":{"ha":1067,"x_min":69,"x_max":997,"o":"m 997 486 q 963 689 997 597 q 867 847 929 781 q 719 950 804 914 q 533 986 635 986 q 347 950 432 986 q 200 847 263 914 q 103 689 138 781 q 69 486 69 597 q 103 283 69 375 q 200 125 138 192 q 347 22 263 58 q 533 -14 432 -14 q 719 22 635 -14 q 867 125 804 58 q 963 283 929 192 q 997 486 997 375 m 939 486 q 887 253 939 353 q 744 97 835 153 q 533 42 653 42 q 324 97 415 42 q 180 253 232 153 q 128 486 128 353 q 180 719 128 619 q 324 875 232 819 q 533 931 415 931 q 744 875 653 931 q 887 719 835 819 q 939 486 939 619 m 539 1039 q 555 1042 547 1039 q 568 1049 563 1046 l 703 1114 q 717 1127 713 1119 q 722 1147 722 1135 q 715 1170 722 1160 q 690 1181 707 1181 q 673 1177 681 1181 q 660 1169 665 1174 l 535 1076 q 526 1067 529 1072 q 522 1056 522 1063 q 526 1044 522 1050 q 539 1039 529 1039 "},"Ŏ":{"ha":1067,"x_min":69,"x_max":997,"o":"m 997 486 q 963 689 997 597 q 867 847 929 781 q 719 950 804 914 q 533 986 635 986 q 347 950 432 986 q 200 847 263 914 q 103 689 138 781 q 69 486 69 597 q 103 283 69 375 q 200 125 138 192 q 347 22 263 58 q 533 -14 432 -14 q 719 22 635 -14 q 867 125 804 58 q 963 283 929 192 q 997 486 997 375 m 939 486 q 887 253 939 353 q 744 97 835 153 q 533 42 653 42 q 324 97 415 42 q 180 253 232 153 q 128 486 128 353 q 180 719 128 619 q 324 875 232 819 q 533 931 415 931 q 744 875 653 931 q 887 719 835 819 q 939 486 939 619 m 533 1083 q 650 1121 603 1083 q 714 1226 697 1158 q 712 1249 717 1242 q 692 1256 707 1256 q 674 1250 681 1256 q 664 1233 668 1244 q 533 1138 626 1138 q 453 1162 486 1138 q 401 1233 421 1186 q 392 1251 396 1246 q 374 1257 388 1257 q 355 1249 360 1257 q 353 1226 350 1240 q 417 1121 369 1158 q 533 1083 464 1083 "},"Ǒ":{"ha":1067,"x_min":69,"x_max":997,"o":"m 997 486 q 963 689 997 597 q 867 847 929 781 q 719 950 804 914 q 533 986 635 986 q 347 950 432 986 q 200 847 263 914 q 103 689 138 781 q 69 486 69 597 q 103 283 69 375 q 200 125 138 192 q 347 22 263 58 q 533 -14 432 -14 q 719 22 635 -14 q 867 125 804 58 q 963 283 929 192 q 997 486 997 375 m 939 486 q 887 253 939 353 q 744 97 835 153 q 533 42 653 42 q 324 97 415 42 q 180 253 232 153 q 128 486 128 353 q 180 719 128 619 q 324 875 232 819 q 533 931 415 931 q 744 875 653 931 q 887 719 835 819 q 939 486 939 619 m 525 1104 l 540 1110 l 414 1208 q 388 1222 397 1222 q 376 1217 381 1222 q 371 1206 371 1213 q 373 1197 371 1201 q 379 1189 375 1193 l 492 1071 q 506 1058 499 1061 q 525 1054 514 1054 l 539 1054 q 558 1058 550 1054 q 572 1071 567 1061 l 685 1190 q 691 1199 689 1194 q 693 1207 693 1203 q 688 1219 693 1214 q 676 1224 683 1224 q 664 1220 671 1224 q 650 1210 657 1217 l 525 1104 "},"Ô":{"ha":1067,"x_min":69,"x_max":997,"o":"m 997 486 q 963 689 997 597 q 867 847 929 781 q 719 950 804 914 q 533 986 635 986 q 347 950 432 986 q 200 847 263 914 q 103 689 138 781 q 69 486 69 597 q 103 283 69 375 q 200 125 138 192 q 347 22 263 58 q 533 -14 432 -14 q 719 22 635 -14 q 867 125 804 58 q 963 283 929 192 q 997 486 997 375 m 939 486 q 887 253 939 353 q 744 97 835 153 q 533 42 653 42 q 324 97 415 42 q 180 253 232 153 q 128 486 128 353 q 180 719 128 619 q 324 875 232 819 q 533 931 415 931 q 744 875 653 931 q 887 719 835 819 q 939 486 939 619 m 539 1186 l 524 1181 l 650 1082 q 664 1072 657 1076 q 676 1068 671 1068 q 688 1074 683 1068 q 693 1085 693 1079 q 691 1093 693 1089 q 685 1101 689 1097 l 572 1219 q 557 1232 564 1228 q 539 1236 550 1236 l 525 1236 q 507 1232 514 1236 q 492 1219 500 1228 l 379 1100 q 373 1092 375 1096 q 371 1083 371 1088 q 376 1072 371 1078 q 388 1067 381 1067 q 401 1071 394 1067 q 414 1081 407 1075 l 539 1186 "},"Ố":{"ha":1067,"x_min":69,"x_max":997,"o":"m 997 486 q 963 689 997 597 q 867 847 929 781 q 719 950 804 914 q 533 986 635 986 q 347 950 432 986 q 200 847 263 914 q 103 689 138 781 q 69 486 69 597 q 103 283 69 375 q 200 125 138 192 q 347 22 263 58 q 533 -14 432 -14 q 719 22 635 -14 q 867 125 804 58 q 963 283 929 192 q 997 486 997 375 m 939 486 q 887 253 939 353 q 744 97 835 153 q 533 42 653 42 q 324 97 415 42 q 180 253 232 153 q 128 486 128 353 q 180 719 128 619 q 324 875 232 819 q 533 931 415 931 q 744 875 653 931 q 887 719 835 819 q 939 486 939 619 m 539 1186 l 524 1181 l 650 1082 q 664 1072 657 1076 q 676 1068 671 1068 q 688 1074 683 1068 q 693 1085 693 1079 q 691 1093 693 1089 q 685 1101 689 1097 l 572 1219 q 557 1232 564 1228 q 539 1236 550 1236 l 525 1236 q 507 1232 514 1236 q 492 1219 500 1228 l 379 1100 q 373 1092 375 1096 q 371 1083 371 1088 q 376 1072 371 1078 q 388 1067 381 1067 q 401 1071 394 1067 q 414 1081 407 1075 l 539 1186 m 711 1146 q 727 1149 719 1146 q 740 1156 735 1153 l 875 1221 q 890 1234 885 1226 q 894 1254 894 1242 q 887 1277 894 1267 q 863 1288 879 1288 q 845 1284 853 1288 q 832 1276 838 1281 l 707 1183 q 698 1174 701 1179 q 694 1163 694 1169 q 698 1151 694 1157 q 711 1146 701 1146 "},"Ộ":{"ha":1067,"x_min":69,"x_max":997,"o":"m 997 486 q 963 689 997 597 q 867 847 929 781 q 719 950 804 914 q 533 986 635 986 q 347 950 432 986 q 200 847 263 914 q 103 689 138 781 q 69 486 69 597 q 103 283 69 375 q 200 125 138 192 q 347 22 263 58 q 533 -14 432 -14 q 719 22 635 -14 q 867 125 804 58 q 963 283 929 192 q 997 486 997 375 m 939 486 q 887 253 939 353 q 744 97 835 153 q 533 42 653 42 q 324 97 415 42 q 180 253 232 153 q 128 486 128 353 q 180 719 128 619 q 324 875 232 819 q 533 931 415 931 q 744 875 653 931 q 887 719 835 819 q 939 486 939 619 m 533 -190 q 567 -176 554 -190 q 581 -140 581 -162 l 581 -129 q 567 -93 581 -107 q 535 -79 554 -79 q 499 -93 513 -79 q 485 -129 485 -107 l 485 -140 q 498 -176 485 -162 q 533 -190 511 -190 m 539 1186 l 524 1181 l 650 1082 q 664 1072 657 1076 q 676 1068 671 1068 q 688 1074 683 1068 q 693 1085 693 1079 q 691 1093 693 1089 q 685 1101 689 1097 l 572 1219 q 557 1232 564 1228 q 539 1236 550 1236 l 525 1236 q 507 1232 514 1236 q 492 1219 500 1228 l 379 1100 q 373 1092 375 1096 q 371 1083 371 1088 q 376 1072 371 1078 q 388 1067 381 1067 q 401 1071 394 1067 q 414 1081 407 1075 l 539 1186 "},"Ồ":{"ha":1067,"x_min":69,"x_max":997,"o":"m 997 486 q 963 689 997 597 q 867 847 929 781 q 719 950 804 914 q 533 986 635 986 q 347 950 432 986 q 200 847 263 914 q 103 689 138 781 q 69 486 69 597 q 103 283 69 375 q 200 125 138 192 q 347 22 263 58 q 533 -14 432 -14 q 719 22 635 -14 q 867 125 804 58 q 963 283 929 192 q 997 486 997 375 m 939 486 q 887 253 939 353 q 744 97 835 153 q 533 42 653 42 q 324 97 415 42 q 180 253 232 153 q 128 486 128 353 q 180 719 128 619 q 324 875 232 819 q 533 931 415 931 q 744 875 653 931 q 887 719 835 819 q 939 486 939 619 m 539 1186 l 524 1181 l 650 1082 q 664 1072 657 1076 q 676 1068 671 1068 q 688 1074 683 1068 q 693 1085 693 1079 q 691 1093 693 1089 q 685 1101 689 1097 l 572 1219 q 557 1232 564 1228 q 539 1236 550 1236 l 525 1236 q 507 1232 514 1236 q 492 1219 500 1228 l 379 1100 q 373 1092 375 1096 q 371 1083 371 1088 q 376 1072 371 1078 q 388 1067 381 1067 q 401 1071 394 1067 q 414 1081 407 1075 l 539 1186 m 690 1224 q 703 1229 700 1224 q 707 1240 707 1235 q 703 1252 707 1247 q 694 1261 700 1257 l 569 1354 q 556 1362 564 1358 q 539 1365 549 1365 q 515 1355 522 1365 q 507 1332 507 1344 q 526 1299 507 1310 l 661 1233 q 675 1227 668 1231 q 690 1224 682 1224 "},"Ổ":{"ha":1067,"x_min":69,"x_max":997,"o":"m 997 486 q 963 689 997 597 q 867 847 929 781 q 719 950 804 914 q 533 986 635 986 q 347 950 432 986 q 200 847 263 914 q 103 689 138 781 q 69 486 69 597 q 103 283 69 375 q 200 125 138 192 q 347 22 263 58 q 533 -14 432 -14 q 719 22 635 -14 q 867 125 804 58 q 963 283 929 192 q 997 486 997 375 m 939 486 q 887 253 939 353 q 744 97 835 153 q 533 42 653 42 q 324 97 415 42 q 180 253 232 153 q 128 486 128 353 q 180 719 128 619 q 324 875 232 819 q 533 931 415 931 q 744 875 653 931 q 887 719 835 819 q 939 486 939 619 m 538 1196 l 522 1190 l 649 1092 q 663 1082 656 1086 q 675 1078 669 1078 q 687 1083 682 1078 q 692 1094 692 1089 q 690 1103 692 1099 q 683 1111 688 1107 l 571 1229 q 557 1242 565 1239 q 538 1246 549 1246 l 524 1246 q 490 1229 501 1246 l 378 1110 q 372 1101 374 1106 q 369 1093 369 1097 q 374 1082 369 1088 q 386 1076 379 1076 q 399 1081 393 1076 q 413 1090 406 1085 l 538 1196 m 618 1342 q 608 1323 608 1332 q 614 1307 608 1314 q 634 1299 622 1297 q 657 1310 646 1300 q 686 1328 669 1319 q 722 1336 703 1336 q 758 1324 743 1336 q 774 1292 774 1311 q 762 1261 774 1274 q 731 1229 750 1249 q 714 1200 717 1215 q 711 1174 711 1185 q 717 1158 711 1165 q 733 1151 722 1151 q 749 1156 743 1151 q 757 1171 756 1161 q 761 1190 758 1183 q 769 1203 764 1197 q 808 1246 793 1226 q 822 1290 822 1265 q 813 1332 822 1310 q 781 1370 803 1354 q 719 1386 758 1386 q 664 1374 690 1386 q 618 1342 638 1361 "},"Ỗ":{"ha":1067,"x_min":69,"x_max":997,"o":"m 997 486 q 963 689 997 597 q 867 847 929 781 q 719 950 804 914 q 533 986 635 986 q 347 950 432 986 q 200 847 263 914 q 103 689 138 781 q 69 486 69 597 q 103 283 69 375 q 200 125 138 192 q 347 22 263 58 q 533 -14 432 -14 q 719 22 635 -14 q 867 125 804 58 q 963 283 929 192 q 997 486 997 375 m 939 486 q 887 253 939 353 q 744 97 835 153 q 533 42 653 42 q 324 97 415 42 q 180 253 232 153 q 128 486 128 353 q 180 719 128 619 q 324 875 232 819 q 533 931 415 931 q 744 875 653 931 q 887 719 835 819 q 939 486 939 619 m 539 1186 l 524 1181 l 650 1082 q 664 1072 657 1076 q 676 1068 671 1068 q 688 1074 683 1068 q 693 1085 693 1079 q 691 1093 693 1089 q 685 1101 689 1097 l 572 1219 q 557 1232 564 1228 q 539 1236 550 1236 l 525 1236 q 507 1232 514 1236 q 492 1219 500 1228 l 379 1100 q 373 1092 375 1096 q 371 1083 371 1088 q 376 1072 371 1078 q 388 1067 381 1067 q 401 1071 394 1067 q 414 1081 407 1075 l 539 1186 m 357 1247 q 372 1252 364 1247 q 382 1267 379 1257 q 408 1313 392 1299 q 444 1328 424 1328 q 499 1309 468 1328 q 563 1271 531 1290 q 622 1251 596 1251 q 669 1260 647 1251 q 706 1288 690 1268 q 729 1342 722 1308 q 730 1376 733 1363 q 710 1389 726 1389 q 692 1382 699 1389 q 685 1364 686 1375 q 667 1319 681 1336 q 633 1301 654 1301 q 578 1321 610 1301 q 513 1360 546 1340 q 450 1381 479 1381 q 385 1361 417 1381 q 340 1296 353 1342 q 339 1260 335 1272 q 357 1247 343 1247 "},"Ȍ":{"ha":1067,"x_min":69,"x_max":997,"o":"m 997 486 q 963 689 997 597 q 867 847 929 781 q 719 950 804 914 q 533 986 635 986 q 347 950 432 986 q 200 847 263 914 q 103 689 138 781 q 69 486 69 597 q 103 283 69 375 q 200 125 138 192 q 347 22 263 58 q 533 -14 432 -14 q 719 22 635 -14 q 867 125 804 58 q 963 283 929 192 q 997 486 997 375 m 939 486 q 887 253 939 353 q 744 97 835 153 q 533 42 653 42 q 324 97 415 42 q 180 253 232 153 q 128 486 128 353 q 180 719 128 619 q 324 875 232 819 q 533 931 415 931 q 744 875 653 931 q 887 719 835 819 q 939 486 939 619 m 489 1050 q 502 1056 499 1050 q 506 1067 506 1061 q 502 1078 506 1074 q 493 1088 499 1083 l 368 1181 q 355 1188 363 1185 q 338 1192 347 1192 q 313 1181 321 1192 q 306 1158 306 1171 q 325 1125 306 1136 l 460 1060 q 474 1053 467 1057 q 489 1050 481 1050 m 704 1044 q 717 1050 714 1044 q 721 1061 721 1056 q 717 1073 721 1068 q 708 1082 714 1078 l 583 1175 q 570 1183 578 1179 q 553 1186 563 1186 q 528 1176 536 1186 q 521 1153 521 1165 q 540 1119 521 1131 l 675 1054 q 689 1048 682 1051 q 704 1044 696 1044 "},"Ö":{"ha":1067,"x_min":69,"x_max":997,"o":"m 997 486 q 963 689 997 597 q 867 847 929 781 q 719 950 804 914 q 533 986 635 986 q 347 950 432 986 q 200 847 263 914 q 103 689 138 781 q 69 486 69 597 q 103 283 69 375 q 200 125 138 192 q 347 22 263 58 q 533 -14 432 -14 q 719 22 635 -14 q 867 125 804 58 q 963 283 929 192 q 997 486 997 375 m 939 486 q 887 253 939 353 q 744 97 835 153 q 533 42 653 42 q 324 97 415 42 q 180 253 232 153 q 128 486 128 353 q 180 719 128 619 q 324 875 232 819 q 533 931 415 931 q 744 875 653 931 q 887 719 835 819 q 939 486 939 619 m 647 1083 q 681 1097 668 1083 q 694 1133 694 1111 l 694 1144 q 681 1181 694 1167 q 649 1194 668 1194 q 613 1181 626 1194 q 599 1144 599 1167 l 599 1133 q 612 1097 599 1111 q 647 1083 625 1083 m 421 1083 q 455 1097 442 1083 q 468 1133 468 1111 l 468 1144 q 455 1181 468 1167 q 422 1194 442 1194 q 386 1181 400 1194 q 372 1144 372 1167 l 372 1133 q 385 1097 372 1111 q 421 1083 399 1083 "},"Ȫ":{"ha":1067,"x_min":69,"x_max":997,"o":"m 997 486 q 963 689 997 597 q 867 847 929 781 q 719 950 804 914 q 533 986 635 986 q 347 950 432 986 q 200 847 263 914 q 103 689 138 781 q 69 486 69 597 q 103 283 69 375 q 200 125 138 192 q 347 22 263 58 q 533 -14 432 -14 q 719 22 635 -14 q 867 125 804 58 q 963 283 929 192 q 997 486 997 375 m 939 486 q 887 253 939 353 q 744 97 835 153 q 533 42 653 42 q 324 97 415 42 q 180 253 232 153 q 128 486 128 353 q 180 719 128 619 q 324 875 232 819 q 533 931 415 931 q 744 875 653 931 q 887 719 835 819 q 939 486 939 619 m 647 1083 q 681 1097 668 1083 q 694 1133 694 1111 l 694 1144 q 681 1181 694 1167 q 649 1194 668 1194 q 613 1181 626 1194 q 599 1144 599 1167 l 599 1133 q 612 1097 599 1111 q 647 1083 625 1083 m 421 1083 q 455 1097 442 1083 q 468 1133 468 1111 l 468 1144 q 455 1181 468 1167 q 422 1194 442 1194 q 386 1181 400 1194 q 372 1144 372 1167 l 372 1133 q 385 1097 372 1111 q 421 1083 399 1083 m 358 1333 l 719 1333 q 750 1358 750 1333 q 719 1386 750 1386 l 358 1386 q 328 1358 328 1386 q 358 1333 328 1333 "},"Ȱ":{"ha":1067,"x_min":69,"x_max":997,"o":"m 997 486 q 963 689 997 597 q 867 847 929 781 q 719 950 804 914 q 533 986 635 986 q 347 950 432 986 q 200 847 263 914 q 103 689 138 781 q 69 486 69 597 q 103 283 69 375 q 200 125 138 192 q 347 22 263 58 q 533 -14 432 -14 q 719 22 635 -14 q 867 125 804 58 q 963 283 929 192 q 997 486 997 375 m 939 486 q 887 253 939 353 q 744 97 835 153 q 533 42 653 42 q 324 97 415 42 q 180 253 232 153 q 128 486 128 353 q 180 719 128 619 q 324 875 232 819 q 533 931 415 931 q 744 875 653 931 q 887 719 835 819 q 939 486 939 619 m 533 1083 q 567 1097 554 1083 q 581 1133 581 1111 l 581 1144 q 567 1181 581 1167 q 535 1194 554 1194 q 499 1181 513 1194 q 485 1144 485 1167 l 485 1133 q 498 1097 485 1111 q 533 1083 511 1083 m 358 1333 l 719 1333 q 750 1358 750 1333 q 719 1386 750 1386 l 358 1386 q 328 1358 328 1386 q 358 1333 328 1333 "},"Ọ":{"ha":1067,"x_min":69,"x_max":997,"o":"m 997 486 q 963 689 997 597 q 867 847 929 781 q 719 950 804 914 q 533 986 635 986 q 347 950 432 986 q 200 847 263 914 q 103 689 138 781 q 69 486 69 597 q 103 283 69 375 q 200 125 138 192 q 347 22 263 58 q 533 -14 432 -14 q 719 22 635 -14 q 867 125 804 58 q 963 283 929 192 q 997 486 997 375 m 939 486 q 887 253 939 353 q 744 97 835 153 q 533 42 653 42 q 324 97 415 42 q 180 253 232 153 q 128 486 128 353 q 180 719 128 619 q 324 875 232 819 q 533 931 415 931 q 744 875 653 931 q 887 719 835 819 q 939 486 939 619 m 533 -190 q 567 -176 554 -190 q 581 -140 581 -162 l 581 -129 q 567 -93 581 -107 q 535 -79 554 -79 q 499 -93 513 -79 q 485 -129 485 -107 l 485 -140 q 498 -176 485 -162 q 533 -190 511 -190 "},"Ò":{"ha":1067,"x_min":69,"x_max":997,"o":"m 997 486 q 963 689 997 597 q 867 847 929 781 q 719 950 804 914 q 533 986 635 986 q 347 950 432 986 q 200 847 263 914 q 103 689 138 781 q 69 486 69 597 q 103 283 69 375 q 200 125 138 192 q 347 22 263 58 q 533 -14 432 -14 q 719 22 635 -14 q 867 125 804 58 q 963 283 929 192 q 997 486 997 375 m 939 486 q 887 253 939 353 q 744 97 835 153 q 533 42 653 42 q 324 97 415 42 q 180 253 232 153 q 128 486 128 353 q 180 719 128 619 q 324 875 232 819 q 533 931 415 931 q 744 875 653 931 q 887 719 835 819 q 939 486 939 619 m 533 1039 q 547 1044 543 1039 q 550 1056 550 1050 q 547 1067 550 1063 q 538 1076 543 1072 l 413 1169 q 399 1177 407 1174 q 382 1181 392 1181 q 358 1170 365 1181 q 350 1147 350 1160 q 369 1114 350 1125 l 504 1049 q 518 1042 511 1046 q 533 1039 525 1039 "},"Ỏ":{"ha":1067,"x_min":69,"x_max":997,"o":"m 997 486 q 963 689 997 597 q 867 847 929 781 q 719 950 804 914 q 533 986 635 986 q 347 950 432 986 q 200 847 263 914 q 103 689 138 781 q 69 486 69 597 q 103 283 69 375 q 200 125 138 192 q 347 22 263 58 q 533 -14 432 -14 q 719 22 635 -14 q 867 125 804 58 q 963 283 929 192 q 997 486 997 375 m 939 486 q 887 253 939 353 q 744 97 835 153 q 533 42 653 42 q 324 97 415 42 q 180 253 232 153 q 128 486 128 353 q 180 719 128 619 q 324 875 232 819 q 533 931 415 931 q 744 875 653 931 q 887 719 835 819 q 939 486 939 619 m 436 1242 q 426 1223 426 1232 q 432 1207 426 1214 q 452 1199 440 1197 q 475 1210 464 1200 q 504 1228 488 1219 q 540 1236 521 1236 q 576 1224 561 1236 q 592 1192 592 1211 q 580 1161 592 1174 q 549 1129 568 1149 q 532 1100 535 1115 q 529 1074 529 1085 q 535 1058 529 1065 q 551 1051 540 1051 q 567 1056 561 1051 q 575 1071 574 1061 q 579 1090 576 1083 q 588 1103 582 1097 q 626 1146 611 1126 q 640 1190 640 1165 q 631 1232 640 1210 q 599 1270 621 1254 q 538 1286 576 1286 q 482 1274 508 1286 q 436 1242 456 1261 "},"Ơ":{"ha":1067,"x_min":69,"x_max":997,"o":"m 997 486 q 963 689 997 597 q 867 847 929 781 q 719 950 804 914 q 533 986 635 986 q 347 950 432 986 q 200 847 263 914 q 103 689 138 781 q 69 486 69 597 q 103 283 69 375 q 200 125 138 192 q 347 22 263 58 q 533 -14 432 -14 q 719 22 635 -14 q 867 125 804 58 q 963 283 929 192 q 997 486 997 375 m 939 486 q 887 253 939 353 q 744 97 835 153 q 533 42 653 42 q 324 97 415 42 q 180 253 232 153 q 128 486 128 353 q 180 719 128 619 q 324 875 232 819 q 533 931 415 931 q 744 875 653 931 q 887 719 835 819 q 939 486 939 619 m 646 919 q 742 939 701 919 q 807 996 783 958 q 831 1086 831 1033 q 826 1114 831 1100 q 806 1128 822 1128 q 786 1115 792 1128 q 781 1086 781 1103 q 748 998 781 1024 q 646 972 715 972 l 646 919 "},"Ớ":{"ha":1067,"x_min":69,"x_max":997,"o":"m 997 486 q 963 689 997 597 q 867 847 929 781 q 719 950 804 914 q 533 986 635 986 q 347 950 432 986 q 200 847 263 914 q 103 689 138 781 q 69 486 69 597 q 103 283 69 375 q 200 125 138 192 q 347 22 263 58 q 533 -14 432 -14 q 719 22 635 -14 q 867 125 804 58 q 963 283 929 192 q 997 486 997 375 m 939 486 q 887 253 939 353 q 744 97 835 153 q 533 42 653 42 q 324 97 415 42 q 180 253 232 153 q 128 486 128 353 q 180 719 128 619 q 324 875 232 819 q 533 931 415 931 q 744 875 653 931 q 887 719 835 819 q 939 486 939 619 m 646 919 q 742 939 701 919 q 807 996 783 958 q 831 1086 831 1033 q 826 1114 831 1100 q 806 1128 822 1128 q 786 1115 792 1128 q 781 1086 781 1103 q 748 998 781 1024 q 646 972 715 972 l 646 919 m 539 1039 q 555 1042 547 1039 q 568 1049 563 1046 l 703 1114 q 717 1127 713 1119 q 722 1147 722 1135 q 715 1170 722 1160 q 690 1181 707 1181 q 673 1177 681 1181 q 660 1169 665 1174 l 535 1076 q 526 1067 529 1072 q 522 1056 522 1063 q 526 1044 522 1050 q 539 1039 529 1039 "},"Ợ":{"ha":1067,"x_min":69,"x_max":997,"o":"m 997 486 q 963 689 997 597 q 867 847 929 781 q 719 950 804 914 q 533 986 635 986 q 347 950 432 986 q 200 847 263 914 q 103 689 138 781 q 69 486 69 597 q 103 283 69 375 q 200 125 138 192 q 347 22 263 58 q 533 -14 432 -14 q 719 22 635 -14 q 867 125 804 58 q 963 283 929 192 q 997 486 997 375 m 939 486 q 887 253 939 353 q 744 97 835 153 q 533 42 653 42 q 324 97 415 42 q 180 253 232 153 q 128 486 128 353 q 180 719 128 619 q 324 875 232 819 q 533 931 415 931 q 744 875 653 931 q 887 719 835 819 q 939 486 939 619 m 646 919 q 742 939 701 919 q 807 996 783 958 q 831 1086 831 1033 q 826 1114 831 1100 q 806 1128 822 1128 q 786 1115 792 1128 q 781 1086 781 1103 q 748 998 781 1024 q 646 972 715 972 l 646 919 m 533 -190 q 567 -176 554 -190 q 581 -140 581 -162 l 581 -129 q 567 -93 581 -107 q 535 -79 554 -79 q 499 -93 513 -79 q 485 -129 485 -107 l 485 -140 q 498 -176 485 -162 q 533 -190 511 -190 "},"Ờ":{"ha":1067,"x_min":69,"x_max":997,"o":"m 997 486 q 963 689 997 597 q 867 847 929 781 q 719 950 804 914 q 533 986 635 986 q 347 950 432 986 q 200 847 263 914 q 103 689 138 781 q 69 486 69 597 q 103 283 69 375 q 200 125 138 192 q 347 22 263 58 q 533 -14 432 -14 q 719 22 635 -14 q 867 125 804 58 q 963 283 929 192 q 997 486 997 375 m 939 486 q 887 253 939 353 q 744 97 835 153 q 533 42 653 42 q 324 97 415 42 q 180 253 232 153 q 128 486 128 353 q 180 719 128 619 q 324 875 232 819 q 533 931 415 931 q 744 875 653 931 q 887 719 835 819 q 939 486 939 619 m 646 919 q 742 939 701 919 q 807 996 783 958 q 831 1086 831 1033 q 826 1114 831 1100 q 806 1128 822 1128 q 786 1115 792 1128 q 781 1086 781 1103 q 748 998 781 1024 q 646 972 715 972 l 646 919 m 533 1039 q 547 1044 543 1039 q 550 1056 550 1050 q 547 1067 550 1063 q 538 1076 543 1072 l 413 1169 q 399 1177 407 1174 q 382 1181 392 1181 q 358 1170 365 1181 q 350 1147 350 1160 q 369 1114 350 1125 l 504 1049 q 518 1042 511 1046 q 533 1039 525 1039 "},"Ở":{"ha":1067,"x_min":69,"x_max":997,"o":"m 997 486 q 963 689 997 597 q 867 847 929 781 q 719 950 804 914 q 533 986 635 986 q 347 950 432 986 q 200 847 263 914 q 103 689 138 781 q 69 486 69 597 q 103 283 69 375 q 200 125 138 192 q 347 22 263 58 q 533 -14 432 -14 q 719 22 635 -14 q 867 125 804 58 q 963 283 929 192 q 997 486 997 375 m 939 486 q 887 253 939 353 q 744 97 835 153 q 533 42 653 42 q 324 97 415 42 q 180 253 232 153 q 128 486 128 353 q 180 719 128 619 q 324 875 232 819 q 533 931 415 931 q 744 875 653 931 q 887 719 835 819 q 939 486 939 619 m 646 919 q 742 939 701 919 q 807 996 783 958 q 831 1086 831 1033 q 826 1114 831 1100 q 806 1128 822 1128 q 786 1115 792 1128 q 781 1086 781 1103 q 748 998 781 1024 q 646 972 715 972 l 646 919 m 436 1242 q 426 1223 426 1232 q 432 1207 426 1214 q 452 1199 440 1197 q 475 1210 464 1200 q 504 1228 488 1219 q 540 1236 521 1236 q 576 1224 561 1236 q 592 1192 592 1211 q 580 1161 592 1174 q 549 1129 568 1149 q 532 1100 535 1115 q 529 1074 529 1085 q 535 1058 529 1065 q 551 1051 540 1051 q 567 1056 561 1051 q 575 1071 574 1061 q 579 1090 576 1083 q 588 1103 582 1097 q 626 1146 611 1126 q 640 1190 640 1165 q 631 1232 640 1210 q 599 1270 621 1254 q 538 1286 576 1286 q 482 1274 508 1286 q 436 1242 456 1261 "},"Ỡ":{"ha":1067,"x_min":69,"x_max":997,"o":"m 997 486 q 963 689 997 597 q 867 847 929 781 q 719 950 804 914 q 533 986 635 986 q 347 950 432 986 q 200 847 263 914 q 103 689 138 781 q 69 486 69 597 q 103 283 69 375 q 200 125 138 192 q 347 22 263 58 q 533 -14 432 -14 q 719 22 635 -14 q 867 125 804 58 q 963 283 929 192 q 997 486 997 375 m 939 486 q 887 253 939 353 q 744 97 835 153 q 533 42 653 42 q 324 97 415 42 q 180 253 232 153 q 128 486 128 353 q 180 719 128 619 q 324 875 232 819 q 533 931 415 931 q 744 875 653 931 q 887 719 835 819 q 939 486 939 619 m 646 919 q 742 939 701 919 q 807 996 783 958 q 831 1086 831 1033 q 826 1114 831 1100 q 806 1128 822 1128 q 786 1115 792 1128 q 781 1086 781 1103 q 748 998 781 1024 q 646 972 715 972 l 646 919 m 357 1086 q 372 1091 364 1086 q 382 1106 379 1096 q 408 1152 392 1138 q 444 1167 424 1167 q 499 1148 468 1167 q 563 1110 531 1129 q 622 1090 596 1090 q 669 1099 647 1090 q 706 1127 690 1107 q 729 1181 722 1147 q 730 1215 733 1201 q 710 1228 726 1228 q 692 1221 699 1228 q 685 1203 686 1214 q 667 1158 681 1175 q 633 1140 654 1140 q 578 1160 610 1140 q 513 1199 546 1179 q 450 1219 479 1219 q 385 1200 417 1219 q 340 1135 353 1181 q 339 1099 335 1111 q 357 1086 343 1086 "},"Ő":{"ha":1067,"x_min":69,"x_max":997,"o":"m 997 486 q 963 689 997 597 q 867 847 929 781 q 719 950 804 914 q 533 986 635 986 q 347 950 432 986 q 200 847 263 914 q 103 689 138 781 q 69 486 69 597 q 103 283 69 375 q 200 125 138 192 q 347 22 263 58 q 533 -14 432 -14 q 719 22 635 -14 q 867 125 804 58 q 963 283 929 192 q 997 486 997 375 m 939 486 q 887 253 939 353 q 744 97 835 153 q 533 42 653 42 q 324 97 415 42 q 180 253 232 153 q 128 486 128 353 q 180 719 128 619 q 324 875 232 819 q 533 931 415 931 q 744 875 653 931 q 887 719 835 819 q 939 486 939 619 m 392 1018 q 412 1025 403 1018 q 428 1039 421 1032 l 532 1146 q 539 1156 536 1151 q 542 1169 542 1161 q 531 1196 542 1188 q 506 1204 521 1204 q 483 1197 492 1204 q 469 1182 474 1189 l 383 1053 q 376 1035 376 1042 q 392 1018 376 1018 m 597 1018 q 617 1025 608 1018 q 633 1039 626 1032 l 738 1146 q 744 1156 742 1151 q 747 1169 747 1161 q 737 1196 747 1188 q 711 1204 726 1204 q 688 1197 697 1204 q 675 1182 679 1189 l 589 1053 q 582 1035 582 1042 q 597 1018 582 1018 "},"Ȏ":{"ha":1067,"x_min":69,"x_max":997,"o":"m 997 486 q 963 689 997 597 q 867 847 929 781 q 719 950 804 914 q 533 986 635 986 q 347 950 432 986 q 200 847 263 914 q 103 689 138 781 q 69 486 69 597 q 103 283 69 375 q 200 125 138 192 q 347 22 263 58 q 533 -14 432 -14 q 719 22 635 -14 q 867 125 804 58 q 963 283 929 192 q 997 486 997 375 m 939 486 q 887 253 939 353 q 744 97 835 153 q 533 42 653 42 q 324 97 415 42 q 180 253 232 153 q 128 486 128 353 q 180 719 128 619 q 324 875 232 819 q 533 931 415 931 q 744 875 653 931 q 887 719 835 819 q 939 486 939 619 m 531 1172 q 447 1153 485 1172 q 385 1101 408 1133 q 363 1033 363 1069 q 370 1016 363 1024 q 389 1008 378 1008 q 410 1016 403 1008 q 418 1036 417 1024 q 457 1098 425 1076 q 531 1119 489 1119 q 604 1098 572 1119 q 643 1036 636 1076 q 652 1016 646 1024 q 672 1008 658 1008 q 691 1016 683 1008 q 699 1033 699 1024 q 676 1101 699 1069 q 615 1153 653 1133 q 531 1172 578 1172 "},"Ō":{"ha":1067,"x_min":69,"x_max":997,"o":"m 997 486 q 963 689 997 597 q 867 847 929 781 q 719 950 804 914 q 533 986 635 986 q 347 950 432 986 q 200 847 263 914 q 103 689 138 781 q 69 486 69 597 q 103 283 69 375 q 200 125 138 192 q 347 22 263 58 q 533 -14 432 -14 q 719 22 635 -14 q 867 125 804 58 q 963 283 929 192 q 997 486 997 375 m 939 486 q 887 253 939 353 q 744 97 835 153 q 533 42 653 42 q 324 97 415 42 q 180 253 232 153 q 128 486 128 353 q 180 719 128 619 q 324 875 232 819 q 533 931 415 931 q 744 875 653 931 q 887 719 835 819 q 939 486 939 619 m 358 1111 l 719 1111 q 750 1136 750 1111 q 719 1164 750 1164 l 358 1164 q 328 1136 328 1164 q 358 1111 328 1111 "},"Ṓ":{"ha":1067,"x_min":69,"x_max":997,"o":"m 997 486 q 963 689 997 597 q 867 847 929 781 q 719 950 804 914 q 533 986 635 986 q 347 950 432 986 q 200 847 263 914 q 103 689 138 781 q 69 486 69 597 q 103 283 69 375 q 200 125 138 192 q 347 22 263 58 q 533 -14 432 -14 q 719 22 635 -14 q 867 125 804 58 q 963 283 929 192 q 997 486 997 375 m 939 486 q 887 253 939 353 q 744 97 835 153 q 533 42 653 42 q 324 97 415 42 q 180 253 232 153 q 128 486 128 353 q 180 719 128 619 q 324 875 232 819 q 533 931 415 931 q 744 875 653 931 q 887 719 835 819 q 939 486 939 619 m 358 1111 l 719 1111 q 750 1136 750 1111 q 719 1164 750 1164 l 358 1164 q 328 1136 328 1164 q 358 1111 328 1111 m 539 1246 q 555 1249 547 1246 q 568 1256 563 1253 l 703 1321 q 717 1334 713 1326 q 722 1354 722 1342 q 715 1377 722 1367 q 690 1388 707 1388 q 673 1384 681 1388 q 660 1376 665 1381 l 535 1283 q 526 1274 529 1279 q 522 1263 522 1269 q 526 1251 522 1257 q 539 1246 529 1246 "},"Ṑ":{"ha":1067,"x_min":69,"x_max":997,"o":"m 997 486 q 963 689 997 597 q 867 847 929 781 q 719 950 804 914 q 533 986 635 986 q 347 950 432 986 q 200 847 263 914 q 103 689 138 781 q 69 486 69 597 q 103 283 69 375 q 200 125 138 192 q 347 22 263 58 q 533 -14 432 -14 q 719 22 635 -14 q 867 125 804 58 q 963 283 929 192 q 997 486 997 375 m 939 486 q 887 253 939 353 q 744 97 835 153 q 533 42 653 42 q 324 97 415 42 q 180 253 232 153 q 128 486 128 353 q 180 719 128 619 q 324 875 232 819 q 533 931 415 931 q 744 875 653 931 q 887 719 835 819 q 939 486 939 619 m 358 1111 l 719 1111 q 750 1136 750 1111 q 719 1164 750 1164 l 358 1164 q 328 1136 328 1164 q 358 1111 328 1111 m 533 1246 q 547 1251 543 1246 q 550 1263 550 1257 q 547 1274 550 1269 q 538 1283 543 1279 l 413 1376 q 399 1384 407 1381 q 382 1388 392 1388 q 358 1377 365 1388 q 350 1354 350 1367 q 369 1321 350 1332 l 504 1256 q 518 1249 511 1253 q 533 1246 525 1246 "},"Ǫ":{"ha":1067,"x_min":69,"x_max":997,"o":"m 596 -257 q 647 -248 625 -257 q 683 -223 669 -239 q 696 -189 696 -207 q 691 -176 696 -182 q 676 -169 686 -169 q 657 -177 665 -169 q 640 -196 649 -185 q 626 -204 635 -203 q 603 -206 617 -206 q 550 -183 574 -206 q 526 -118 526 -160 q 547 -58 526 -86 q 597 -14 567 -31 q 654 1 626 3 l 593 24 q 550 3 571 17 q 512 -28 529 -10 q 484 -72 494 -46 q 474 -129 474 -97 q 512 -222 474 -187 q 596 -257 550 -257 m 997 486 q 963 689 997 597 q 867 847 929 781 q 719 950 804 914 q 533 986 635 986 q 347 950 432 986 q 200 847 263 914 q 103 689 138 781 q 69 486 69 597 q 103 283 69 375 q 200 125 138 192 q 347 22 263 58 q 533 -14 432 -14 q 719 22 635 -14 q 867 125 804 58 q 963 283 929 192 q 997 486 997 375 m 939 486 q 887 253 939 353 q 744 97 835 153 q 533 42 653 42 q 324 97 415 42 q 180 253 232 153 q 128 486 128 353 q 180 719 128 619 q 324 875 232 819 q 533 931 415 931 q 744 875 653 931 q 887 719 835 819 q 939 486 939 619 "},"Ø":{"ha":1001,"x_min":69,"x_max":997,"o":"m 124 -28 q 145 -21 138 -28 q 158 -6 153 -14 l 958 954 q 967 975 967 964 q 959 992 967 986 q 943 997 951 997 q 927 995 933 997 q 913 982 921 993 l 107 14 q 100 -4 100 4 q 107 -21 100 -14 q 124 -28 114 -28 m 997 486 q 963 689 997 597 q 867 847 929 781 q 719 950 804 914 q 533 986 635 986 q 347 950 432 986 q 200 847 263 914 q 103 689 138 781 q 69 486 69 597 q 103 283 69 375 q 200 125 138 192 q 347 22 263 58 q 533 -14 432 -14 q 719 22 635 -14 q 867 125 804 58 q 963 283 929 192 q 997 486 997 375 m 939 486 q 887 253 939 353 q 744 97 835 153 q 533 42 653 42 q 324 97 415 42 q 180 253 232 153 q 128 486 128 353 q 180 719 128 619 q 324 875 232 819 q 533 931 415 931 q 744 875 653 931 q 887 719 835 819 q 939 486 939 619 "},"Ǿ":{"ha":1001,"x_min":69,"x_max":997,"o":"m 124 -28 q 145 -21 138 -28 q 158 -6 153 -14 l 958 954 q 967 975 967 964 q 959 992 967 986 q 943 997 951 997 q 927 995 933 997 q 913 982 921 993 l 107 14 q 100 -4 100 4 q 107 -21 100 -14 q 124 -28 114 -28 m 997 486 q 963 689 997 597 q 867 847 929 781 q 719 950 804 914 q 533 986 635 986 q 347 950 432 986 q 200 847 263 914 q 103 689 138 781 q 69 486 69 597 q 103 283 69 375 q 200 125 138 192 q 347 22 263 58 q 533 -14 432 -14 q 719 22 635 -14 q 867 125 804 58 q 963 283 929 192 q 997 486 997 375 m 939 486 q 887 253 939 353 q 744 97 835 153 q 533 42 653 42 q 324 97 415 42 q 180 253 232 153 q 128 486 128 353 q 180 719 128 619 q 324 875 232 819 q 533 931 415 931 q 744 875 653 931 q 887 719 835 819 q 939 486 939 619 m 507 1039 q 523 1042 515 1039 q 536 1049 531 1046 l 671 1114 q 685 1127 681 1119 q 690 1147 690 1135 q 683 1170 690 1160 q 658 1181 675 1181 q 641 1177 649 1181 q 628 1169 633 1174 l 503 1076 q 494 1067 497 1072 q 490 1056 490 1063 q 494 1044 490 1050 q 507 1039 497 1039 "},"Õ":{"ha":1067,"x_min":69,"x_max":997,"o":"m 997 486 q 963 689 997 597 q 867 847 929 781 q 719 950 804 914 q 533 986 635 986 q 347 950 432 986 q 200 847 263 914 q 103 689 138 781 q 69 486 69 597 q 103 283 69 375 q 200 125 138 192 q 347 22 263 58 q 533 -14 432 -14 q 719 22 635 -14 q 867 125 804 58 q 963 283 929 192 q 997 486 997 375 m 939 486 q 887 253 939 353 q 744 97 835 153 q 533 42 653 42 q 324 97 415 42 q 180 253 232 153 q 128 486 128 353 q 180 719 128 619 q 324 875 232 819 q 533 931 415 931 q 744 875 653 931 q 887 719 835 819 q 939 486 939 619 m 357 1086 q 372 1091 364 1086 q 382 1106 379 1096 q 408 1152 392 1138 q 444 1167 424 1167 q 499 1148 468 1167 q 563 1110 531 1129 q 622 1090 596 1090 q 669 1099 647 1090 q 706 1127 690 1107 q 729 1181 722 1147 q 730 1215 733 1201 q 710 1228 726 1228 q 692 1221 699 1228 q 685 1203 686 1214 q 667 1158 681 1175 q 633 1140 654 1140 q 578 1160 610 1140 q 513 1199 546 1179 q 450 1219 479 1219 q 385 1200 417 1219 q 340 1135 353 1181 q 339 1099 335 1111 q 357 1086 343 1086 "},"Ṍ":{"ha":1067,"x_min":69,"x_max":997,"o":"m 997 486 q 963 689 997 597 q 867 847 929 781 q 719 950 804 914 q 533 986 635 986 q 347 950 432 986 q 200 847 263 914 q 103 689 138 781 q 69 486 69 597 q 103 283 69 375 q 200 125 138 192 q 347 22 263 58 q 533 -14 432 -14 q 719 22 635 -14 q 867 125 804 58 q 963 283 929 192 q 997 486 997 375 m 939 486 q 887 253 939 353 q 744 97 835 153 q 533 42 653 42 q 324 97 415 42 q 180 253 232 153 q 128 486 128 353 q 180 719 128 619 q 324 875 232 819 q 533 931 415 931 q 744 875 653 931 q 887 719 835 819 q 939 486 939 619 m 357 1086 q 372 1091 364 1086 q 382 1106 379 1096 q 408 1152 392 1138 q 444 1167 424 1167 q 499 1148 468 1167 q 563 1110 531 1129 q 622 1090 596 1090 q 669 1099 647 1090 q 706 1127 690 1107 q 729 1181 722 1147 q 730 1215 733 1201 q 710 1228 726 1228 q 692 1221 699 1228 q 685 1203 686 1214 q 667 1158 681 1175 q 633 1140 654 1140 q 578 1160 610 1140 q 513 1199 546 1179 q 450 1219 479 1219 q 385 1200 417 1219 q 340 1135 353 1181 q 339 1099 335 1111 q 357 1086 343 1086 m 539 1294 q 555 1298 547 1294 q 568 1304 563 1301 l 703 1369 q 717 1383 713 1375 q 722 1403 722 1390 q 715 1426 722 1415 q 690 1436 707 1436 q 673 1433 681 1436 q 660 1425 665 1429 l 535 1332 q 526 1323 529 1328 q 522 1311 522 1318 q 526 1300 522 1306 q 539 1294 529 1294 "},"Ṏ":{"ha":1067,"x_min":69,"x_max":997,"o":"m 997 486 q 963 689 997 597 q 867 847 929 781 q 719 950 804 914 q 533 986 635 986 q 347 950 432 986 q 200 847 263 914 q 103 689 138 781 q 69 486 69 597 q 103 283 69 375 q 200 125 138 192 q 347 22 263 58 q 533 -14 432 -14 q 719 22 635 -14 q 867 125 804 58 q 963 283 929 192 q 997 486 997 375 m 939 486 q 887 253 939 353 q 744 97 835 153 q 533 42 653 42 q 324 97 415 42 q 180 253 232 153 q 128 486 128 353 q 180 719 128 619 q 324 875 232 819 q 533 931 415 931 q 744 875 653 931 q 887 719 835 819 q 939 486 939 619 m 357 1086 q 372 1091 364 1086 q 382 1106 379 1096 q 408 1152 392 1138 q 444 1167 424 1167 q 499 1148 468 1167 q 563 1110 531 1129 q 622 1090 596 1090 q 669 1099 647 1090 q 706 1127 690 1107 q 729 1181 722 1147 q 730 1215 733 1201 q 710 1228 726 1228 q 692 1221 699 1228 q 685 1203 686 1214 q 667 1158 681 1175 q 633 1140 654 1140 q 578 1160 610 1140 q 513 1199 546 1179 q 450 1219 479 1219 q 385 1200 417 1219 q 340 1135 353 1181 q 339 1099 335 1111 q 357 1086 343 1086 m 647 1339 q 681 1353 668 1339 q 694 1389 694 1367 l 694 1400 q 681 1436 694 1422 q 649 1450 668 1450 q 613 1436 626 1450 q 599 1400 599 1422 l 599 1389 q 612 1353 599 1367 q 647 1339 625 1339 m 421 1339 q 455 1353 442 1339 q 468 1389 468 1367 l 468 1400 q 455 1436 468 1422 q 422 1450 442 1450 q 386 1436 400 1450 q 372 1400 372 1422 l 372 1389 q 385 1353 372 1367 q 421 1339 399 1339 "},"Ȭ":{"ha":1067,"x_min":69,"x_max":997,"o":"m 997 486 q 963 689 997 597 q 867 847 929 781 q 719 950 804 914 q 533 986 635 986 q 347 950 432 986 q 200 847 263 914 q 103 689 138 781 q 69 486 69 597 q 103 283 69 375 q 200 125 138 192 q 347 22 263 58 q 533 -14 432 -14 q 719 22 635 -14 q 867 125 804 58 q 963 283 929 192 q 997 486 997 375 m 939 486 q 887 253 939 353 q 744 97 835 153 q 533 42 653 42 q 324 97 415 42 q 180 253 232 153 q 128 486 128 353 q 180 719 128 619 q 324 875 232 819 q 533 931 415 931 q 744 875 653 931 q 887 719 835 819 q 939 486 939 619 m 357 1086 q 372 1091 364 1086 q 382 1106 379 1096 q 408 1152 392 1138 q 444 1167 424 1167 q 499 1148 468 1167 q 563 1110 531 1129 q 622 1090 596 1090 q 669 1099 647 1090 q 706 1127 690 1107 q 729 1181 722 1147 q 730 1215 733 1201 q 710 1228 726 1228 q 692 1221 699 1228 q 685 1203 686 1214 q 667 1158 681 1175 q 633 1140 654 1140 q 578 1160 610 1140 q 513 1199 546 1179 q 450 1219 479 1219 q 385 1200 417 1219 q 340 1135 353 1181 q 339 1099 335 1111 q 357 1086 343 1086 m 358 1367 l 719 1367 q 750 1392 750 1367 q 719 1419 750 1419 l 358 1419 q 328 1392 328 1419 q 358 1367 328 1367 "},"Œ":{"ha":1386,"x_min":69,"x_max":1317,"o":"m 1289 56 l 799 56 l 807 46 l 807 489 l 799 481 l 1226 481 q 1246 488 1238 481 q 1254 508 1254 496 q 1246 528 1254 519 q 1226 536 1238 536 l 799 536 l 807 521 l 807 922 l 800 917 l 1289 917 q 1308 924 1300 917 q 1317 944 1317 932 q 1308 964 1317 956 q 1289 972 1300 972 l 472 972 q 292 933 368 972 q 166 824 215 893 q 93 668 117 756 q 69 486 69 581 q 112 242 69 353 q 244 66 154 132 q 472 0 333 0 l 1289 0 q 1308 8 1300 0 q 1317 28 1317 15 q 1308 47 1317 39 q 1289 56 1300 56 m 760 56 l 486 56 q 280 113 360 56 q 163 269 200 171 q 125 486 125 367 q 146 649 125 571 q 210 787 167 726 q 322 882 254 847 q 486 917 390 917 l 756 917 l 750 925 l 750 42 l 760 56 "},"P":{"ha":825,"x_min":139,"x_max":763,"o":"m 500 972 l 167 972 q 147 964 156 972 q 139 944 139 956 l 139 28 q 147 8 139 17 q 168 0 154 0 q 188 8 179 0 q 197 28 197 17 l 197 442 l 192 432 l 500 432 q 638 468 579 432 q 730 567 697 504 q 763 707 763 629 q 730 846 763 786 q 638 939 697 906 q 500 972 579 972 m 500 488 l 192 488 l 197 483 l 197 924 l 193 917 l 500 917 q 609 890 564 917 q 679 817 654 864 q 704 707 704 771 q 679 594 704 644 q 609 516 654 544 q 500 488 564 488 "},"Þ":{"ha":810,"x_min":139,"x_max":747,"o":"m 194 28 l 194 1000 q 187 1019 194 1011 q 167 1028 179 1028 q 147 1019 156 1028 q 139 1000 139 1011 l 139 28 q 147 8 139 17 q 167 0 154 0 q 186 8 178 0 q 194 28 194 17 m 176 331 l 176 275 l 485 275 q 623 311 564 275 q 715 410 682 347 q 747 550 747 472 q 715 689 747 629 q 623 782 682 749 q 485 815 564 815 l 151 815 l 178 760 l 485 760 q 594 733 549 760 q 664 660 639 707 q 689 550 689 614 q 664 438 689 488 q 594 359 639 388 q 485 331 549 331 l 176 331 "},"Q":{"ha":1086,"x_min":69,"x_max":1107,"o":"m 1083 -90 q 1055 -105 1068 -90 q 1022 -131 1042 -119 q 961 -160 1000 -143 q 863 -176 922 -176 q 744 -158 796 -176 q 648 -116 693 -140 q 554 -74 603 -92 q 444 -56 506 -56 l 446 -67 l 650 0 l 522 -6 l 299 -83 q 283 -107 283 -90 q 292 -128 283 -119 q 311 -136 300 -136 q 338 -128 324 -136 q 373 -113 353 -121 q 418 -106 393 -106 q 531 -124 483 -106 q 623 -167 578 -143 q 724 -210 668 -192 q 863 -229 781 -229 q 944 -219 901 -229 q 1024 -192 986 -210 q 1084 -155 1061 -175 q 1107 -114 1107 -135 q 1101 -97 1107 -103 q 1083 -90 1094 -90 m 997 486 q 963 689 997 597 q 867 847 929 781 q 719 950 804 914 q 533 986 635 986 q 347 950 432 986 q 200 847 263 914 q 103 689 138 781 q 69 486 69 597 q 103 283 69 375 q 200 125 138 192 q 347 22 263 58 q 533 -14 432 -14 q 719 22 635 -14 q 867 125 804 58 q 963 283 929 192 q 997 486 997 375 m 939 486 q 887 253 939 353 q 744 97 835 153 q 533 42 653 42 q 324 97 415 42 q 180 253 232 153 q 128 486 128 353 q 180 719 128 619 q 324 875 232 819 q 533 931 415 931 q 744 875 653 931 q 887 719 835 819 q 939 486 939 619 "},"R":{"ha":922,"x_min":139,"x_max":847,"o":"m 168 0 q 189 8 181 0 q 197 28 197 17 l 197 451 l 185 435 l 522 435 q 587 428 551 435 q 653 400 622 421 q 705 340 685 379 q 725 236 725 301 q 738 106 725 151 q 769 38 750 60 q 807 4 788 15 q 822 1 815 0 q 835 8 829 3 q 844 21 842 13 q 843 40 847 32 q 831 54 839 49 q 806 81 817 64 q 790 133 796 97 q 783 236 783 168 q 751 370 783 315 q 669 453 719 425 q 564 482 619 482 l 628 471 q 722 520 681 486 q 785 606 763 554 q 808 721 808 657 q 774 850 808 793 q 677 940 739 907 q 533 972 615 972 l 167 972 q 147 964 156 972 q 139 944 139 956 l 139 28 q 147 8 139 17 q 168 0 154 0 m 183 490 l 197 475 l 197 926 l 190 917 l 526 917 q 690 860 629 917 q 750 719 750 804 q 720 601 750 651 q 643 524 690 551 q 540 490 596 496 l 183 490 "},"Ŕ":{"ha":922,"x_min":139,"x_max":847,"o":"m 168 0 q 189 8 181 0 q 197 28 197 17 l 197 451 l 185 435 l 522 435 q 587 428 551 435 q 653 400 622 421 q 705 340 685 379 q 725 236 725 301 q 738 106 725 151 q 769 38 750 60 q 807 4 788 15 q 822 1 815 0 q 835 8 829 3 q 844 21 842 13 q 843 40 847 32 q 831 54 839 49 q 806 81 817 64 q 790 133 796 97 q 783 236 783 168 q 751 370 783 315 q 669 453 719 425 q 564 482 619 482 l 628 471 q 722 520 681 486 q 785 606 763 554 q 808 721 808 657 q 774 850 808 793 q 677 940 739 907 q 533 972 615 972 l 167 972 q 147 964 156 972 q 139 944 139 956 l 139 28 q 147 8 139 17 q 168 0 154 0 m 183 490 l 197 475 l 197 926 l 190 917 l 526 917 q 690 860 629 917 q 750 719 750 804 q 720 601 750 651 q 643 524 690 551 q 540 490 596 496 l 183 490 m 460 1039 q 476 1042 468 1039 q 489 1049 483 1046 l 624 1114 q 638 1127 633 1119 q 643 1147 643 1135 q 635 1170 643 1160 q 611 1181 628 1181 q 594 1177 601 1181 q 581 1169 586 1174 l 456 1076 q 447 1067 450 1072 q 443 1056 443 1063 q 447 1044 443 1050 q 460 1039 450 1039 "},"Ř":{"ha":922,"x_min":139,"x_max":847,"o":"m 168 0 q 189 8 181 0 q 197 28 197 17 l 197 451 l 185 435 l 522 435 q 587 428 551 435 q 653 400 622 421 q 705 340 685 379 q 725 236 725 301 q 738 106 725 151 q 769 38 750 60 q 807 4 788 15 q 822 1 815 0 q 835 8 829 3 q 844 21 842 13 q 843 40 847 32 q 831 54 839 49 q 806 81 817 64 q 790 133 796 97 q 783 236 783 168 q 751 370 783 315 q 669 453 719 425 q 564 482 619 482 l 628 471 q 722 520 681 486 q 785 606 763 554 q 808 721 808 657 q 774 850 808 793 q 677 940 739 907 q 533 972 615 972 l 167 972 q 147 964 156 972 q 139 944 139 956 l 139 28 q 147 8 139 17 q 168 0 154 0 m 183 490 l 197 475 l 197 926 l 190 917 l 526 917 q 690 860 629 917 q 750 719 750 804 q 720 601 750 651 q 643 524 690 551 q 540 490 596 496 l 183 490 m 446 1104 l 461 1110 l 335 1208 q 308 1222 318 1222 q 297 1217 301 1222 q 292 1206 292 1213 q 294 1197 292 1201 q 300 1189 296 1193 l 413 1071 q 427 1058 419 1061 q 446 1054 435 1054 l 460 1054 q 479 1058 471 1054 q 493 1071 488 1061 l 606 1190 q 612 1199 610 1194 q 614 1207 614 1203 q 609 1219 614 1214 q 597 1224 604 1224 q 585 1220 592 1224 q 571 1210 578 1217 l 446 1104 "},"Ŗ":{"ha":922,"x_min":139,"x_max":847,"o":"m 168 0 q 189 8 181 0 q 197 28 197 17 l 197 451 l 185 435 l 522 435 q 587 428 551 435 q 653 400 622 421 q 705 340 685 379 q 725 236 725 301 q 738 106 725 151 q 769 38 750 60 q 807 4 788 15 q 822 1 815 0 q 835 8 829 3 q 844 21 842 13 q 843 40 847 32 q 831 54 839 49 q 806 81 817 64 q 790 133 796 97 q 783 236 783 168 q 751 370 783 315 q 669 453 719 425 q 564 482 619 482 l 628 471 q 722 520 681 486 q 785 606 763 554 q 808 721 808 657 q 774 850 808 793 q 677 940 739 907 q 533 972 615 972 l 167 972 q 147 964 156 972 q 139 944 139 956 l 139 28 q 147 8 139 17 q 168 0 154 0 m 183 490 l 197 475 l 197 926 l 190 917 l 526 917 q 690 860 629 917 q 750 719 750 804 q 720 601 750 651 q 643 524 690 551 q 540 490 596 496 l 183 490 m 525 -150 q 506 -92 525 -111 q 460 -74 488 -74 q 412 -87 429 -74 q 394 -121 394 -101 q 403 -142 394 -131 q 426 -153 411 -154 q 442 -147 438 -153 q 456 -142 447 -142 q 469 -158 469 -142 q 463 -190 469 -179 q 446 -204 457 -201 q 420 -204 428 -207 q 406 -201 413 -201 q 392 -208 397 -201 q 388 -225 388 -215 q 397 -242 388 -236 q 429 -247 407 -247 q 476 -235 454 -247 q 511 -200 497 -222 q 525 -150 525 -178 "},"Ȑ":{"ha":922,"x_min":139,"x_max":847,"o":"m 168 0 q 189 8 181 0 q 197 28 197 17 l 197 451 l 185 435 l 522 435 q 587 428 551 435 q 653 400 622 421 q 705 340 685 379 q 725 236 725 301 q 738 106 725 151 q 769 38 750 60 q 807 4 788 15 q 822 1 815 0 q 835 8 829 3 q 844 21 842 13 q 843 40 847 32 q 831 54 839 49 q 806 81 817 64 q 790 133 796 97 q 783 236 783 168 q 751 370 783 315 q 669 453 719 425 q 564 482 619 482 l 628 471 q 722 520 681 486 q 785 606 763 554 q 808 721 808 657 q 774 850 808 793 q 677 940 739 907 q 533 972 615 972 l 167 972 q 147 964 156 972 q 139 944 139 956 l 139 28 q 147 8 139 17 q 168 0 154 0 m 183 490 l 197 475 l 197 926 l 190 917 l 526 917 q 690 860 629 917 q 750 719 750 804 q 720 601 750 651 q 643 524 690 551 q 540 490 596 496 l 183 490 m 410 1050 q 423 1056 419 1050 q 426 1067 426 1061 q 423 1078 426 1074 q 414 1088 419 1083 l 289 1181 q 276 1188 283 1185 q 258 1192 268 1192 q 234 1181 242 1192 q 226 1158 226 1171 q 246 1125 226 1136 l 381 1060 q 394 1053 388 1057 q 410 1050 401 1050 m 625 1044 q 638 1050 635 1044 q 642 1061 642 1056 q 638 1073 642 1068 q 629 1082 635 1078 l 504 1175 q 491 1183 499 1179 q 474 1186 483 1186 q 449 1176 457 1186 q 442 1153 442 1165 q 461 1119 442 1131 l 596 1054 q 610 1048 603 1051 q 625 1044 617 1044 "},"Ṛ":{"ha":922,"x_min":139,"x_max":847,"o":"m 168 0 q 189 8 181 0 q 197 28 197 17 l 197 451 l 185 435 l 522 435 q 587 428 551 435 q 653 400 622 421 q 705 340 685 379 q 725 236 725 301 q 738 106 725 151 q 769 38 750 60 q 807 4 788 15 q 822 1 815 0 q 835 8 829 3 q 844 21 842 13 q 843 40 847 32 q 831 54 839 49 q 806 81 817 64 q 790 133 796 97 q 783 236 783 168 q 751 370 783 315 q 669 453 719 425 q 564 482 619 482 l 628 471 q 722 520 681 486 q 785 606 763 554 q 808 721 808 657 q 774 850 808 793 q 677 940 739 907 q 533 972 615 972 l 167 972 q 147 964 156 972 q 139 944 139 956 l 139 28 q 147 8 139 17 q 168 0 154 0 m 183 490 l 197 475 l 197 926 l 190 917 l 526 917 q 690 860 629 917 q 750 719 750 804 q 720 601 750 651 q 643 524 690 551 q 540 490 596 496 l 183 490 m 454 -190 q 488 -176 475 -190 q 501 -140 501 -162 l 501 -129 q 488 -93 501 -107 q 456 -79 475 -79 q 419 -93 433 -79 q 406 -129 406 -107 l 406 -140 q 419 -176 406 -162 q 454 -190 432 -190 "},"Ȓ":{"ha":922,"x_min":139,"x_max":847,"o":"m 168 0 q 189 8 181 0 q 197 28 197 17 l 197 451 l 185 435 l 522 435 q 587 428 551 435 q 653 400 622 421 q 705 340 685 379 q 725 236 725 301 q 738 106 725 151 q 769 38 750 60 q 807 4 788 15 q 822 1 815 0 q 835 8 829 3 q 844 21 842 13 q 843 40 847 32 q 831 54 839 49 q 806 81 817 64 q 790 133 796 97 q 783 236 783 168 q 751 370 783 315 q 669 453 719 425 q 564 482 619 482 l 628 471 q 722 520 681 486 q 785 606 763 554 q 808 721 808 657 q 774 850 808 793 q 677 940 739 907 q 533 972 615 972 l 167 972 q 147 964 156 972 q 139 944 139 956 l 139 28 q 147 8 139 17 q 168 0 154 0 m 183 490 l 197 475 l 197 926 l 190 917 l 526 917 q 690 860 629 917 q 750 719 750 804 q 720 601 750 651 q 643 524 690 551 q 540 490 596 496 l 183 490 m 451 1172 q 367 1153 406 1172 q 306 1101 329 1133 q 283 1033 283 1069 q 291 1016 283 1024 q 310 1008 299 1008 q 331 1016 324 1008 q 339 1036 338 1024 q 378 1098 346 1076 q 451 1119 410 1119 q 525 1098 493 1119 q 564 1036 557 1076 q 573 1016 567 1024 q 593 1008 579 1008 q 612 1016 604 1008 q 619 1033 619 1024 q 597 1101 619 1069 q 536 1153 574 1133 q 451 1172 499 1172 "},"Ṟ":{"ha":922,"x_min":139,"x_max":847,"o":"m 168 0 q 189 8 181 0 q 197 28 197 17 l 197 451 l 185 435 l 522 435 q 587 428 551 435 q 653 400 622 421 q 705 340 685 379 q 725 236 725 301 q 738 106 725 151 q 769 38 750 60 q 807 4 788 15 q 822 1 815 0 q 835 8 829 3 q 844 21 842 13 q 843 40 847 32 q 831 54 839 49 q 806 81 817 64 q 790 133 796 97 q 783 236 783 168 q 751 370 783 315 q 669 453 719 425 q 564 482 619 482 l 628 471 q 722 520 681 486 q 785 606 763 554 q 808 721 808 657 q 774 850 808 793 q 677 940 739 907 q 533 972 615 972 l 167 972 q 147 964 156 972 q 139 944 139 956 l 139 28 q 147 8 139 17 q 168 0 154 0 m 183 490 l 197 475 l 197 926 l 190 917 l 526 917 q 690 860 629 917 q 750 719 750 804 q 720 601 750 651 q 643 524 690 551 q 540 490 596 496 l 183 490 m 322 -162 l 600 -162 q 628 -137 628 -162 q 600 -111 628 -111 l 322 -111 q 294 -137 294 -111 q 322 -162 294 -162 "},"S":{"ha":764,"x_min":49,"x_max":693,"o":"m 393 -14 q 553 21 486 -12 q 656 108 619 54 q 693 226 693 163 q 668 349 693 300 q 601 429 643 397 q 506 483 558 461 q 401 522 454 504 q 285 572 342 544 q 191 640 228 599 q 154 744 154 681 q 188 845 154 804 q 276 908 221 886 q 400 931 332 931 q 494 917 450 931 q 574 880 539 904 q 635 822 610 856 q 653 814 642 814 q 676 824 665 814 q 686 843 686 833 q 672 872 686 853 q 554 958 629 929 q 400 986 479 986 q 237 953 306 986 q 131 866 168 921 q 94 743 94 811 q 118 631 94 676 q 182 556 142 586 q 272 506 222 526 q 374 465 322 485 q 498 414 439 442 q 594 343 557 386 q 633 229 632 300 q 601 130 633 172 q 514 65 569 88 q 388 42 458 42 q 233 75 307 42 q 103 172 158 108 q 79 185 92 185 q 58 174 68 185 q 49 153 49 164 q 51 140 49 144 q 57 132 54 135 q 207 22 129 60 q 393 -14 285 -15 "},"Ś":{"ha":764,"x_min":49,"x_max":693,"o":"m 393 -14 q 553 21 486 -12 q 656 108 619 54 q 693 226 693 163 q 668 349 693 300 q 601 429 643 397 q 506 483 558 461 q 401 522 454 504 q 285 572 342 544 q 191 640 228 599 q 154 744 154 681 q 188 845 154 804 q 276 908 221 886 q 400 931 332 931 q 494 917 450 931 q 574 880 539 904 q 635 822 610 856 q 653 814 642 814 q 676 824 665 814 q 686 843 686 833 q 672 872 686 853 q 554 958 629 929 q 400 986 479 986 q 237 953 306 986 q 131 866 168 921 q 94 743 94 811 q 118 631 94 676 q 182 556 142 586 q 272 506 222 526 q 374 465 322 485 q 498 414 439 442 q 594 343 557 386 q 633 229 632 300 q 601 130 633 172 q 514 65 569 88 q 388 42 458 42 q 233 75 307 42 q 103 172 158 108 q 79 185 92 185 q 58 174 68 185 q 49 153 49 164 q 51 140 49 144 q 57 132 54 135 q 207 22 129 60 q 393 -14 285 -15 m 388 1039 q 403 1042 396 1039 q 417 1049 411 1046 l 551 1114 q 566 1127 561 1119 q 571 1147 571 1135 q 563 1170 571 1160 q 539 1181 556 1181 q 522 1177 529 1181 q 508 1169 514 1174 l 383 1076 q 374 1067 378 1072 q 371 1056 371 1063 q 374 1044 371 1050 q 388 1039 378 1039 "},"Ṥ":{"ha":764,"x_min":49,"x_max":693,"o":"m 393 -14 q 553 21 486 -12 q 656 108 619 54 q 693 226 693 163 q 668 349 693 300 q 601 429 643 397 q 506 483 558 461 q 401 522 454 504 q 285 572 342 544 q 191 640 228 599 q 154 744 154 681 q 188 845 154 804 q 276 908 221 886 q 400 931 332 931 q 494 917 450 931 q 574 880 539 904 q 635 822 610 856 q 653 814 642 814 q 676 824 665 814 q 686 843 686 833 q 672 872 686 853 q 554 958 629 929 q 400 986 479 986 q 237 953 306 986 q 131 866 168 921 q 94 743 94 811 q 118 631 94 676 q 182 556 142 586 q 272 506 222 526 q 374 465 322 485 q 498 414 439 442 q 594 343 557 386 q 633 229 632 300 q 601 130 633 172 q 514 65 569 88 q 388 42 458 42 q 233 75 307 42 q 103 172 158 108 q 79 185 92 185 q 58 174 68 185 q 49 153 49 164 q 51 140 49 144 q 57 132 54 135 q 207 22 129 60 q 393 -14 285 -15 m 388 1039 q 403 1042 396 1039 q 417 1049 411 1046 l 551 1114 q 566 1127 561 1119 q 571 1147 571 1135 q 563 1170 571 1160 q 539 1181 556 1181 q 522 1177 529 1181 q 508 1169 514 1174 l 383 1076 q 374 1067 378 1072 q 371 1056 371 1063 q 374 1044 371 1050 q 388 1039 378 1039 m 442 1286 q 476 1300 463 1286 q 489 1336 489 1314 l 489 1347 q 476 1383 489 1369 q 443 1397 463 1397 q 407 1383 421 1397 q 393 1347 393 1369 l 393 1336 q 406 1300 393 1314 q 442 1286 419 1286 "},"Š":{"ha":764,"x_min":49,"x_max":693,"o":"m 393 -14 q 553 21 486 -12 q 656 108 619 54 q 693 226 693 163 q 668 349 693 300 q 601 429 643 397 q 506 483 558 461 q 401 522 454 504 q 285 572 342 544 q 191 640 228 599 q 154 744 154 681 q 188 845 154 804 q 276 908 221 886 q 400 931 332 931 q 494 917 450 931 q 574 880 539 904 q 635 822 610 856 q 653 814 642 814 q 676 824 665 814 q 686 843 686 833 q 672 872 686 853 q 554 958 629 929 q 400 986 479 986 q 237 953 306 986 q 131 866 168 921 q 94 743 94 811 q 118 631 94 676 q 182 556 142 586 q 272 506 222 526 q 374 465 322 485 q 498 414 439 442 q 594 343 557 386 q 633 229 632 300 q 601 130 633 172 q 514 65 569 88 q 388 42 458 42 q 233 75 307 42 q 103 172 158 108 q 79 185 92 185 q 58 174 68 185 q 49 153 49 164 q 51 140 49 144 q 57 132 54 135 q 207 22 129 60 q 393 -14 285 -15 m 374 1104 l 389 1110 l 263 1208 q 236 1222 246 1222 q 224 1217 229 1222 q 219 1206 219 1213 q 222 1197 219 1201 q 228 1189 224 1193 l 340 1071 q 355 1058 347 1061 q 374 1054 363 1054 l 388 1054 q 407 1058 399 1054 q 421 1071 415 1061 l 533 1190 q 540 1199 538 1194 q 542 1207 542 1203 q 537 1219 542 1214 q 525 1224 532 1224 q 513 1220 519 1224 q 499 1210 506 1217 l 374 1104 "},"Ṧ":{"ha":764,"x_min":49,"x_max":693,"o":"m 393 -14 q 553 21 486 -12 q 656 108 619 54 q 693 226 693 163 q 668 349 693 300 q 601 429 643 397 q 506 483 558 461 q 401 522 454 504 q 285 572 342 544 q 191 640 228 599 q 154 744 154 681 q 188 845 154 804 q 276 908 221 886 q 400 931 332 931 q 494 917 450 931 q 574 880 539 904 q 635 822 610 856 q 653 814 642 814 q 676 824 665 814 q 686 843 686 833 q 672 872 686 853 q 554 958 629 929 q 400 986 479 986 q 237 953 306 986 q 131 866 168 921 q 94 743 94 811 q 118 631 94 676 q 182 556 142 586 q 272 506 222 526 q 374 465 322 485 q 498 414 439 442 q 594 343 557 386 q 633 229 632 300 q 601 130 633 172 q 514 65 569 88 q 388 42 458 42 q 233 75 307 42 q 103 172 158 108 q 79 185 92 185 q 58 174 68 185 q 49 153 49 164 q 51 140 49 144 q 57 132 54 135 q 207 22 129 60 q 393 -14 285 -15 m 374 1104 l 389 1110 l 263 1208 q 236 1222 246 1222 q 224 1217 229 1222 q 219 1206 219 1213 q 222 1197 219 1201 q 228 1189 224 1193 l 340 1071 q 355 1058 347 1061 q 374 1054 363 1054 l 388 1054 q 407 1058 399 1054 q 421 1071 415 1061 l 533 1190 q 540 1199 538 1194 q 542 1207 542 1203 q 537 1219 542 1214 q 525 1224 532 1224 q 513 1220 519 1224 q 499 1210 506 1217 l 374 1104 m 382 1306 q 416 1319 403 1306 q 429 1356 429 1333 l 429 1367 q 416 1403 429 1389 q 383 1417 403 1417 q 347 1403 361 1417 q 333 1367 333 1389 l 333 1356 q 347 1319 333 1333 q 382 1306 360 1306 "},"Ş":{"ha":764,"x_min":49,"x_max":693,"o":"m 393 -14 q 553 21 486 -12 q 656 108 619 54 q 693 226 693 163 q 668 349 693 300 q 601 429 643 397 q 506 483 558 461 q 401 522 454 504 q 285 572 342 544 q 191 640 228 599 q 154 744 154 681 q 188 845 154 804 q 276 908 221 886 q 400 931 332 931 q 494 917 450 931 q 574 880 539 904 q 635 822 610 856 q 653 814 642 814 q 676 824 665 814 q 686 843 686 833 q 672 872 686 853 q 554 958 629 929 q 400 986 479 986 q 237 953 306 986 q 131 866 168 921 q 94 743 94 811 q 118 631 94 676 q 182 556 142 586 q 272 506 222 526 q 374 465 322 485 q 498 414 439 442 q 594 343 557 386 q 633 229 632 300 q 601 130 633 172 q 514 65 569 88 q 388 42 458 42 q 233 75 307 42 q 103 172 158 108 q 79 185 92 185 q 58 174 68 185 q 49 153 49 164 q 51 140 49 144 q 57 132 54 135 q 207 22 129 60 q 393 -14 285 -15 m 285 -196 q 314 -175 304 -196 l 407 14 l 368 14 l 243 -139 q 236 -158 236 -146 q 245 -177 236 -168 q 266 -191 254 -186 q 285 -196 278 -196 "},"Ŝ":{"ha":764,"x_min":49,"x_max":693,"o":"m 393 -14 q 553 21 486 -12 q 656 108 619 54 q 693 226 693 163 q 668 349 693 300 q 601 429 643 397 q 506 483 558 461 q 401 522 454 504 q 285 572 342 544 q 191 640 228 599 q 154 744 154 681 q 188 845 154 804 q 276 908 221 886 q 400 931 332 931 q 494 917 450 931 q 574 880 539 904 q 635 822 610 856 q 653 814 642 814 q 676 824 665 814 q 686 843 686 833 q 672 872 686 853 q 554 958 629 929 q 400 986 479 986 q 237 953 306 986 q 131 866 168 921 q 94 743 94 811 q 118 631 94 676 q 182 556 142 586 q 272 506 222 526 q 374 465 322 485 q 498 414 439 442 q 594 343 557 386 q 633 229 632 300 q 601 130 633 172 q 514 65 569 88 q 388 42 458 42 q 233 75 307 42 q 103 172 158 108 q 79 185 92 185 q 58 174 68 185 q 49 153 49 164 q 51 140 49 144 q 57 132 54 135 q 207 22 129 60 q 393 -14 285 -15 m 388 1186 l 372 1181 l 499 1082 q 513 1072 506 1076 q 525 1068 519 1068 q 537 1074 532 1068 q 542 1085 542 1079 q 540 1093 542 1089 q 533 1101 538 1097 l 421 1219 q 406 1232 413 1228 q 388 1236 399 1236 l 374 1236 q 356 1232 363 1236 q 340 1219 349 1228 l 228 1100 q 222 1092 224 1096 q 219 1083 219 1088 q 224 1072 219 1078 q 236 1067 229 1067 q 249 1071 243 1067 q 263 1081 256 1075 l 388 1186 "},"Ș":{"ha":764,"x_min":49,"x_max":693,"o":"m 393 -14 q 553 21 486 -12 q 656 108 619 54 q 693 226 693 163 q 668 349 693 300 q 601 429 643 397 q 506 483 558 461 q 401 522 454 504 q 285 572 342 544 q 191 640 228 599 q 154 744 154 681 q 188 845 154 804 q 276 908 221 886 q 400 931 332 931 q 494 917 450 931 q 574 880 539 904 q 635 822 610 856 q 653 814 642 814 q 676 824 665 814 q 686 843 686 833 q 672 872 686 853 q 554 958 629 929 q 400 986 479 986 q 237 953 306 986 q 131 866 168 921 q 94 743 94 811 q 118 631 94 676 q 182 556 142 586 q 272 506 222 526 q 374 465 322 485 q 498 414 439 442 q 594 343 557 386 q 633 229 632 300 q 601 130 633 172 q 514 65 569 88 q 388 42 458 42 q 233 75 307 42 q 103 172 158 108 q 79 185 92 185 q 58 174 68 185 q 49 153 49 164 q 51 140 49 144 q 57 132 54 135 q 207 22 129 60 q 393 -14 285 -15 m 453 -150 q 434 -92 453 -111 q 388 -74 415 -74 q 340 -87 357 -74 q 322 -121 322 -101 q 331 -142 322 -131 q 354 -153 339 -154 q 370 -147 365 -153 q 383 -142 375 -142 q 397 -158 397 -142 q 391 -190 397 -179 q 374 -204 385 -201 q 348 -204 356 -207 q 333 -201 340 -201 q 320 -208 325 -201 q 315 -225 315 -215 q 325 -242 315 -236 q 357 -247 335 -247 q 403 -235 382 -247 q 439 -200 425 -222 q 453 -150 453 -178 "},"Ṡ":{"ha":764,"x_min":49,"x_max":693,"o":"m 393 -14 q 553 21 486 -12 q 656 108 619 54 q 693 226 693 163 q 668 349 693 300 q 601 429 643 397 q 506 483 558 461 q 401 522 454 504 q 285 572 342 544 q 191 640 228 599 q 154 744 154 681 q 188 845 154 804 q 276 908 221 886 q 400 931 332 931 q 494 917 450 931 q 574 880 539 904 q 635 822 610 856 q 653 814 642 814 q 676 824 665 814 q 686 843 686 833 q 672 872 686 853 q 554 958 629 929 q 400 986 479 986 q 237 953 306 986 q 131 866 168 921 q 94 743 94 811 q 118 631 94 676 q 182 556 142 586 q 272 506 222 526 q 374 465 322 485 q 498 414 439 442 q 594 343 557 386 q 633 229 632 300 q 601 130 633 172 q 514 65 569 88 q 388 42 458 42 q 233 75 307 42 q 103 172 158 108 q 79 185 92 185 q 58 174 68 185 q 49 153 49 164 q 51 140 49 144 q 57 132 54 135 q 207 22 129 60 q 393 -14 285 -15 m 382 1083 q 416 1097 403 1083 q 429 1133 429 1111 l 429 1144 q 416 1181 429 1167 q 383 1194 403 1194 q 347 1181 361 1194 q 333 1144 333 1167 l 333 1133 q 347 1097 333 1111 q 382 1083 360 1083 "},"Ṣ":{"ha":764,"x_min":49,"x_max":693,"o":"m 393 -14 q 553 21 486 -12 q 656 108 619 54 q 693 226 693 163 q 668 349 693 300 q 601 429 643 397 q 506 483 558 461 q 401 522 454 504 q 285 572 342 544 q 191 640 228 599 q 154 744 154 681 q 188 845 154 804 q 276 908 221 886 q 400 931 332 931 q 494 917 450 931 q 574 880 539 904 q 635 822 610 856 q 653 814 642 814 q 676 824 665 814 q 686 843 686 833 q 672 872 686 853 q 554 958 629 929 q 400 986 479 986 q 237 953 306 986 q 131 866 168 921 q 94 743 94 811 q 118 631 94 676 q 182 556 142 586 q 272 506 222 526 q 374 465 322 485 q 498 414 439 442 q 594 343 557 386 q 633 229 632 300 q 601 130 633 172 q 514 65 569 88 q 388 42 458 42 q 233 75 307 42 q 103 172 158 108 q 79 185 92 185 q 58 174 68 185 q 49 153 49 164 q 51 140 49 144 q 57 132 54 135 q 207 22 129 60 q 393 -14 285 -15 m 382 -190 q 416 -176 403 -190 q 429 -140 429 -162 l 429 -129 q 416 -93 429 -107 q 383 -79 403 -79 q 347 -93 361 -79 q 333 -129 333 -107 l 333 -140 q 347 -176 333 -162 q 382 -190 360 -190 "},"Ṩ":{"ha":764,"x_min":49,"x_max":693,"o":"m 393 -14 q 553 21 486 -12 q 656 108 619 54 q 693 226 693 163 q 668 349 693 300 q 601 429 643 397 q 506 483 558 461 q 401 522 454 504 q 285 572 342 544 q 191 640 228 599 q 154 744 154 681 q 188 845 154 804 q 276 908 221 886 q 400 931 332 931 q 494 917 450 931 q 574 880 539 904 q 635 822 610 856 q 653 814 642 814 q 676 824 665 814 q 686 843 686 833 q 672 872 686 853 q 554 958 629 929 q 400 986 479 986 q 237 953 306 986 q 131 866 168 921 q 94 743 94 811 q 118 631 94 676 q 182 556 142 586 q 272 506 222 526 q 374 465 322 485 q 498 414 439 442 q 594 343 557 386 q 633 229 632 300 q 601 130 633 172 q 514 65 569 88 q 388 42 458 42 q 233 75 307 42 q 103 172 158 108 q 79 185 92 185 q 58 174 68 185 q 49 153 49 164 q 51 140 49 144 q 57 132 54 135 q 207 22 129 60 q 393 -14 285 -15 m 382 -190 q 416 -176 403 -190 q 429 -140 429 -162 l 429 -129 q 416 -93 429 -107 q 383 -79 403 -79 q 347 -93 361 -79 q 333 -129 333 -107 l 333 -140 q 347 -176 333 -162 q 382 -190 360 -190 m 382 1083 q 416 1097 403 1083 q 429 1133 429 1111 l 429 1144 q 416 1181 429 1167 q 383 1194 403 1194 q 347 1181 361 1194 q 333 1144 333 1167 l 333 1133 q 347 1097 333 1111 q 382 1083 360 1083 "},"ẞ":{"ha":961,"x_min":139,"x_max":890,"o":"m 632 -14 q 770 21 713 -12 q 859 108 828 54 q 890 226 890 163 q 873 331 890 288 q 826 406 856 375 q 763 459 797 436 q 693 503 728 482 q 622 549 656 525 q 567 606 588 572 q 546 689 546 639 q 575 770 546 733 q 663 833 604 807 q 808 869 721 860 q 823 874 817 871 q 833 882 829 876 q 836 896 836 888 q 813 931 836 911 q 695 987 767 965 q 550 1008 624 1008 q 353 975 432 1008 q 227 886 274 942 q 161 764 181 831 q 142 629 142 697 l 139 33 q 146 13 139 19 q 167 6 153 6 q 188 13 181 6 q 194 33 194 19 l 197 629 q 214 750 197 692 q 270 855 231 808 q 378 928 310 901 q 550 956 447 956 q 638 947 594 956 q 721 921 682 938 q 785 879 760 904 l 789 908 q 660 886 717 904 q 565 839 604 868 q 506 772 526 810 q 486 688 486 733 q 513 577 486 621 q 581 504 539 533 q 667 447 622 475 q 743 396 707 424 q 803 328 779 368 q 831 229 828 289 q 802 130 831 172 q 727 65 774 88 q 626 42 681 42 q 533 69 579 42 q 453 144 488 96 q 441 154 447 151 q 429 157 435 157 q 408 148 418 157 q 397 128 397 139 q 401 114 397 121 q 407 104 406 107 q 470 39 438 65 q 542 -1 503 13 q 632 -14 582 -14 "},"Ə":{"ha":1046,"x_min":69,"x_max":976,"o":"m 522 -14 q 699 25 617 -14 q 843 133 781 64 q 941 292 906 201 q 976 486 976 382 q 941 681 976 590 q 843 840 906 771 q 699 947 781 908 q 522 986 617 986 q 297 937 392 986 q 128 792 201 888 q 122 769 119 782 q 135 750 124 757 q 154 747 144 744 q 171 757 164 749 q 320 888 236 844 q 522 931 404 931 q 672 896 601 931 q 798 800 743 861 q 885 658 853 739 q 917 482 917 576 q 885 308 917 389 q 798 168 853 228 q 672 75 743 108 q 522 42 601 42 q 375 74 444 42 q 251 163 306 106 q 163 294 196 219 q 126 454 131 369 l 940 454 l 938 510 l 97 510 q 78 503 86 510 q 69 486 69 497 l 69 463 q 108 278 72 364 q 207 126 144 192 q 351 23 269 60 q 522 -14 432 -14 "},"T":{"ha":828,"x_min":49,"x_max":779,"o":"m 414 0 q 433 8 425 0 q 442 28 442 17 l 442 939 l 386 939 l 386 28 q 394 8 386 17 q 414 0 401 0 m 76 919 l 751 919 q 771 926 763 919 q 779 946 779 933 q 771 965 779 957 q 751 972 763 972 l 76 972 q 57 965 65 972 q 49 946 49 957 q 57 927 49 935 q 76 919 65 919 "},"Ŧ":{"ha":828,"x_min":49,"x_max":779,"o":"m 304 422 l 526 422 q 547 428 540 422 q 554 447 554 435 q 547 468 554 461 q 526 475 540 475 l 304 475 q 283 468 290 475 q 276 449 276 461 q 283 428 276 435 q 304 422 290 422 m 414 0 q 433 8 425 0 q 442 28 442 17 l 442 939 l 386 939 l 386 28 q 394 8 386 17 q 414 0 401 0 m 76 919 l 751 919 q 771 926 763 919 q 779 946 779 933 q 771 965 779 957 q 751 972 763 972 l 76 972 q 57 965 65 972 q 49 946 49 957 q 57 927 49 935 q 76 919 65 919 "},"Ť":{"ha":828,"x_min":49,"x_max":779,"o":"m 414 0 q 433 8 425 0 q 442 28 442 17 l 442 939 l 386 939 l 386 28 q 394 8 386 17 q 414 0 401 0 m 76 919 l 751 919 q 771 926 763 919 q 779 946 779 933 q 771 965 779 957 q 751 972 763 972 l 76 972 q 57 965 65 972 q 49 946 49 957 q 57 927 49 935 q 76 919 65 919 m 406 1104 l 421 1110 l 294 1208 q 268 1222 278 1222 q 256 1217 261 1222 q 251 1206 251 1213 q 253 1197 251 1201 q 260 1189 256 1193 l 372 1071 q 387 1058 379 1061 q 406 1054 394 1054 l 419 1054 q 439 1058 431 1054 q 453 1071 447 1061 l 565 1190 q 572 1199 569 1194 q 574 1207 574 1203 q 569 1219 574 1214 q 557 1224 564 1224 q 544 1220 551 1224 q 531 1210 538 1217 l 406 1104 "},"Ţ":{"ha":828,"x_min":49,"x_max":779,"o":"m 414 0 q 433 8 425 0 q 442 28 442 17 l 442 939 l 386 939 l 386 28 q 394 8 386 17 q 414 0 401 0 m 76 919 l 751 919 q 771 926 763 919 q 779 946 779 933 q 771 965 779 957 q 751 972 763 972 l 76 972 q 57 965 65 972 q 49 946 49 957 q 57 927 49 935 q 76 919 65 919 m 317 -196 q 346 -175 336 -196 l 439 14 l 400 14 l 275 -139 q 268 -158 268 -146 q 277 -177 268 -168 q 298 -191 286 -186 q 317 -196 310 -196 "},"Ṱ":{"ha":828,"x_min":49,"x_max":779,"o":"m 414 0 q 433 8 425 0 q 442 28 442 17 l 442 939 l 386 939 l 386 28 q 394 8 386 17 q 414 0 401 0 m 76 919 l 751 919 q 771 926 763 919 q 779 946 779 933 q 771 965 779 957 q 751 972 763 972 l 76 972 q 57 965 65 972 q 49 946 49 957 q 57 927 49 935 q 76 919 65 919 m 421 -158 l 406 -164 l 532 -262 q 546 -272 539 -268 q 558 -276 553 -276 q 570 -271 565 -276 q 575 -260 575 -265 q 573 -251 575 -256 q 567 -243 571 -247 l 454 -125 q 440 -112 449 -115 q 421 -108 432 -108 l 407 -108 q 374 -125 385 -108 l 261 -244 q 255 -253 257 -249 q 253 -261 253 -257 q 258 -272 253 -267 q 269 -278 263 -278 q 283 -274 276 -278 q 296 -264 289 -269 l 421 -158 "},"Ț":{"ha":828,"x_min":49,"x_max":779,"o":"m 414 0 q 433 8 425 0 q 442 28 442 17 l 442 939 l 386 939 l 386 28 q 394 8 386 17 q 414 0 401 0 m 76 919 l 751 919 q 771 926 763 919 q 779 946 779 933 q 771 965 779 957 q 751 972 763 972 l 76 972 q 57 965 65 972 q 49 946 49 957 q 57 927 49 935 q 76 919 65 919 m 485 -150 q 466 -92 485 -111 q 419 -74 447 -74 q 372 -87 389 -74 q 354 -121 354 -101 q 363 -142 354 -131 q 386 -153 371 -154 q 402 -147 397 -153 q 415 -142 407 -142 q 429 -158 429 -142 q 423 -190 429 -179 q 406 -204 417 -201 q 380 -204 388 -207 q 365 -201 372 -201 q 352 -208 357 -201 q 347 -225 347 -215 q 357 -242 347 -236 q 389 -247 367 -247 q 435 -235 414 -247 q 471 -200 457 -222 q 485 -150 485 -178 "},"Ṭ":{"ha":828,"x_min":49,"x_max":779,"o":"m 414 0 q 433 8 425 0 q 442 28 442 17 l 442 939 l 386 939 l 386 28 q 394 8 386 17 q 414 0 401 0 m 76 919 l 751 919 q 771 926 763 919 q 779 946 779 933 q 771 965 779 957 q 751 972 763 972 l 76 972 q 57 965 65 972 q 49 946 49 957 q 57 927 49 935 q 76 919 65 919 m 414 -190 q 448 -176 435 -190 q 461 -140 461 -162 l 461 -129 q 448 -93 461 -107 q 415 -79 435 -79 q 379 -93 393 -79 q 365 -129 365 -107 l 365 -140 q 378 -176 365 -162 q 414 -190 392 -190 "},"Ṯ":{"ha":828,"x_min":49,"x_max":779,"o":"m 414 0 q 433 8 425 0 q 442 28 442 17 l 442 939 l 386 939 l 386 28 q 394 8 386 17 q 414 0 401 0 m 76 919 l 751 919 q 771 926 763 919 q 779 946 779 933 q 771 965 779 957 q 751 972 763 972 l 76 972 q 57 965 65 972 q 49 946 49 957 q 57 927 49 935 q 76 919 65 919 m 282 -162 l 560 -162 q 588 -137 588 -162 q 560 -111 588 -111 l 282 -111 q 254 -137 254 -111 q 282 -162 254 -162 "},"U":{"ha":993,"x_min":139,"x_max":854,"o":"m 826 972 q 806 964 814 972 q 799 944 799 956 l 799 344 q 758 192 799 261 q 649 83 717 124 q 497 42 581 42 q 347 83 415 42 q 238 192 278 124 q 197 344 197 261 l 197 944 q 189 964 197 956 q 168 972 181 972 q 147 964 154 972 q 139 944 139 956 l 139 344 q 188 165 139 246 q 317 35 236 83 q 497 -14 399 -14 q 676 35 596 -14 q 806 165 757 83 q 854 344 854 246 l 854 944 q 847 964 854 956 q 826 972 839 972 "},"Ú":{"ha":993,"x_min":139,"x_max":854,"o":"m 826 972 q 806 964 814 972 q 799 944 799 956 l 799 344 q 758 192 799 261 q 649 83 717 124 q 497 42 581 42 q 347 83 415 42 q 238 192 278 124 q 197 344 197 261 l 197 944 q 189 964 197 956 q 168 972 181 972 q 147 964 154 972 q 139 944 139 956 l 139 344 q 188 165 139 246 q 317 35 236 83 q 497 -14 399 -14 q 676 35 596 -14 q 806 165 757 83 q 854 344 854 246 l 854 944 q 847 964 854 956 q 826 972 839 972 m 503 1039 q 519 1042 511 1039 q 532 1049 526 1046 l 667 1114 q 681 1127 676 1119 q 686 1147 686 1135 q 678 1170 686 1160 q 654 1181 671 1181 q 637 1177 644 1181 q 624 1169 629 1174 l 499 1076 q 490 1067 493 1072 q 486 1056 486 1063 q 490 1044 486 1050 q 503 1039 493 1039 "},"Ŭ":{"ha":993,"x_min":139,"x_max":854,"o":"m 826 972 q 806 964 814 972 q 799 944 799 956 l 799 344 q 758 192 799 261 q 649 83 717 124 q 497 42 581 42 q 347 83 415 42 q 238 192 278 124 q 197 344 197 261 l 197 944 q 189 964 197 956 q 168 972 181 972 q 147 964 154 972 q 139 944 139 956 l 139 344 q 188 165 139 246 q 317 35 236 83 q 497 -14 399 -14 q 676 35 596 -14 q 806 165 757 83 q 854 344 854 246 l 854 944 q 847 964 854 956 q 826 972 839 972 m 497 1083 q 614 1121 567 1083 q 678 1226 661 1158 q 676 1249 681 1242 q 656 1256 671 1256 q 638 1250 644 1256 q 628 1233 632 1244 q 497 1138 590 1138 q 417 1162 450 1138 q 365 1233 385 1186 q 356 1251 360 1246 q 338 1257 351 1257 q 319 1249 324 1257 q 317 1226 314 1240 q 381 1121 333 1158 q 497 1083 428 1083 "},"Ǔ":{"ha":993,"x_min":139,"x_max":854,"o":"m 826 972 q 806 964 814 972 q 799 944 799 956 l 799 344 q 758 192 799 261 q 649 83 717 124 q 497 42 581 42 q 347 83 415 42 q 238 192 278 124 q 197 344 197 261 l 197 944 q 189 964 197 956 q 168 972 181 972 q 147 964 154 972 q 139 944 139 956 l 139 344 q 188 165 139 246 q 317 35 236 83 q 497 -14 399 -14 q 676 35 596 -14 q 806 165 757 83 q 854 344 854 246 l 854 944 q 847 964 854 956 q 826 972 839 972 m 489 1104 l 504 1110 l 378 1208 q 351 1222 361 1222 q 340 1217 344 1222 q 335 1206 335 1213 q 337 1197 335 1201 q 343 1189 339 1193 l 456 1071 q 470 1058 463 1061 q 489 1054 478 1054 l 503 1054 q 522 1058 514 1054 q 536 1071 531 1061 l 649 1190 q 655 1199 653 1194 q 657 1207 657 1203 q 652 1219 657 1214 q 640 1224 647 1224 q 628 1220 635 1224 q 614 1210 621 1217 l 489 1104 "},"Û":{"ha":993,"x_min":139,"x_max":854,"o":"m 826 972 q 806 964 814 972 q 799 944 799 956 l 799 344 q 758 192 799 261 q 649 83 717 124 q 497 42 581 42 q 347 83 415 42 q 238 192 278 124 q 197 344 197 261 l 197 944 q 189 964 197 956 q 168 972 181 972 q 147 964 154 972 q 139 944 139 956 l 139 344 q 188 165 139 246 q 317 35 236 83 q 497 -14 399 -14 q 676 35 596 -14 q 806 165 757 83 q 854 344 854 246 l 854 944 q 847 964 854 956 q 826 972 839 972 m 503 1186 l 488 1181 l 614 1082 q 628 1072 621 1076 q 640 1068 635 1068 q 652 1074 647 1068 q 657 1085 657 1079 q 655 1093 657 1089 q 649 1101 653 1097 l 536 1219 q 521 1232 528 1228 q 503 1236 514 1236 l 489 1236 q 471 1232 478 1236 q 456 1219 464 1228 l 343 1100 q 337 1092 339 1096 q 335 1083 335 1088 q 340 1072 335 1078 q 351 1067 344 1067 q 365 1071 358 1067 q 378 1081 371 1075 l 503 1186 "},"Ȕ":{"ha":993,"x_min":139,"x_max":854,"o":"m 826 972 q 806 964 814 972 q 799 944 799 956 l 799 344 q 758 192 799 261 q 649 83 717 124 q 497 42 581 42 q 347 83 415 42 q 238 192 278 124 q 197 344 197 261 l 197 944 q 189 964 197 956 q 168 972 181 972 q 147 964 154 972 q 139 944 139 956 l 139 344 q 188 165 139 246 q 317 35 236 83 q 497 -14 399 -14 q 676 35 596 -14 q 806 165 757 83 q 854 344 854 246 l 854 944 q 847 964 854 956 q 826 972 839 972 m 453 1050 q 466 1056 463 1050 q 469 1067 469 1061 q 466 1078 469 1074 q 457 1088 463 1083 l 332 1181 q 319 1188 326 1185 q 301 1192 311 1192 q 277 1181 285 1192 q 269 1158 269 1171 q 289 1125 269 1136 l 424 1060 q 438 1053 431 1057 q 453 1050 444 1050 m 668 1044 q 681 1050 678 1044 q 685 1061 685 1056 q 681 1073 685 1068 q 672 1082 678 1078 l 547 1175 q 534 1183 542 1179 q 517 1186 526 1186 q 492 1176 500 1186 q 485 1153 485 1165 q 504 1119 485 1131 l 639 1054 q 653 1048 646 1051 q 668 1044 660 1044 "},"Ü":{"ha":993,"x_min":139,"x_max":854,"o":"m 826 972 q 806 964 814 972 q 799 944 799 956 l 799 344 q 758 192 799 261 q 649 83 717 124 q 497 42 581 42 q 347 83 415 42 q 238 192 278 124 q 197 344 197 261 l 197 944 q 189 964 197 956 q 168 972 181 972 q 147 964 154 972 q 139 944 139 956 l 139 344 q 188 165 139 246 q 317 35 236 83 q 497 -14 399 -14 q 676 35 596 -14 q 806 165 757 83 q 854 344 854 246 l 854 944 q 847 964 854 956 q 826 972 839 972 m 611 1083 q 645 1097 632 1083 q 658 1133 658 1111 l 658 1144 q 645 1181 658 1167 q 613 1194 632 1194 q 576 1181 590 1194 q 563 1144 563 1167 l 563 1133 q 576 1097 563 1111 q 611 1083 589 1083 m 385 1083 q 419 1097 406 1083 q 432 1133 432 1111 l 432 1144 q 419 1181 432 1167 q 386 1194 406 1194 q 350 1181 364 1194 q 336 1144 336 1167 l 336 1133 q 349 1097 336 1111 q 385 1083 363 1083 "},"Ụ":{"ha":993,"x_min":139,"x_max":854,"o":"m 826 972 q 806 964 814 972 q 799 944 799 956 l 799 344 q 758 192 799 261 q 649 83 717 124 q 497 42 581 42 q 347 83 415 42 q 238 192 278 124 q 197 344 197 261 l 197 944 q 189 964 197 956 q 168 972 181 972 q 147 964 154 972 q 139 944 139 956 l 139 344 q 188 165 139 246 q 317 35 236 83 q 497 -14 399 -14 q 676 35 596 -14 q 806 165 757 83 q 854 344 854 246 l 854 944 q 847 964 854 956 q 826 972 839 972 m 497 -190 q 531 -176 518 -190 q 544 -140 544 -162 l 544 -129 q 531 -93 544 -107 q 499 -79 518 -79 q 463 -93 476 -79 q 449 -129 449 -107 l 449 -140 q 462 -176 449 -162 q 497 -190 475 -190 "},"Ù":{"ha":993,"x_min":139,"x_max":854,"o":"m 826 972 q 806 964 814 972 q 799 944 799 956 l 799 344 q 758 192 799 261 q 649 83 717 124 q 497 42 581 42 q 347 83 415 42 q 238 192 278 124 q 197 344 197 261 l 197 944 q 189 964 197 956 q 168 972 181 972 q 147 964 154 972 q 139 944 139 956 l 139 344 q 188 165 139 246 q 317 35 236 83 q 497 -14 399 -14 q 676 35 596 -14 q 806 165 757 83 q 854 344 854 246 l 854 944 q 847 964 854 956 q 826 972 839 972 m 497 1039 q 510 1044 507 1039 q 514 1056 514 1050 q 510 1067 514 1063 q 501 1076 507 1072 l 376 1169 q 363 1177 371 1174 q 346 1181 356 1181 q 322 1170 329 1181 q 314 1147 314 1160 q 333 1114 314 1125 l 468 1049 q 482 1042 475 1046 q 497 1039 489 1039 "},"Ủ":{"ha":993,"x_min":139,"x_max":854,"o":"m 826 972 q 806 964 814 972 q 799 944 799 956 l 799 344 q 758 192 799 261 q 649 83 717 124 q 497 42 581 42 q 347 83 415 42 q 238 192 278 124 q 197 344 197 261 l 197 944 q 189 964 197 956 q 168 972 181 972 q 147 964 154 972 q 139 944 139 956 l 139 344 q 188 165 139 246 q 317 35 236 83 q 497 -14 399 -14 q 676 35 596 -14 q 806 165 757 83 q 854 344 854 246 l 854 944 q 847 964 854 956 q 826 972 839 972 m 400 1242 q 390 1223 390 1232 q 396 1207 390 1214 q 416 1199 404 1197 q 439 1210 428 1200 q 468 1228 451 1219 q 504 1236 485 1236 q 540 1224 525 1236 q 556 1192 556 1211 q 544 1161 556 1174 q 513 1129 532 1149 q 496 1100 499 1115 q 493 1074 493 1085 q 499 1058 493 1065 q 515 1051 504 1051 q 531 1056 525 1051 q 539 1071 538 1061 q 543 1090 540 1083 q 551 1103 546 1097 q 590 1146 575 1126 q 604 1190 604 1165 q 594 1232 604 1210 q 563 1270 585 1254 q 501 1286 540 1286 q 446 1274 472 1286 q 400 1242 419 1261 "},"Ư":{"ha":993,"x_min":139,"x_max":1011,"o":"m 826 972 q 806 964 814 972 q 799 944 799 956 l 799 344 q 758 192 799 261 q 649 83 717 124 q 497 42 581 42 q 347 83 415 42 q 238 192 278 124 q 197 344 197 261 l 197 944 q 189 964 197 956 q 168 972 181 972 q 147 964 154 972 q 139 944 139 956 l 139 344 q 188 165 139 246 q 317 35 236 83 q 497 -14 399 -14 q 676 35 596 -14 q 806 165 757 83 q 854 344 854 246 l 854 944 q 847 964 854 956 q 826 972 839 972 m 826 919 q 923 939 882 919 q 988 996 964 958 q 1011 1086 1011 1033 q 1007 1114 1011 1100 q 986 1128 1003 1128 q 967 1115 972 1128 q 961 1086 961 1103 q 928 998 961 1024 q 826 972 896 972 l 826 919 "},"Ứ":{"ha":993,"x_min":139,"x_max":1011,"o":"m 826 972 q 806 964 814 972 q 799 944 799 956 l 799 344 q 758 192 799 261 q 649 83 717 124 q 497 42 581 42 q 347 83 415 42 q 238 192 278 124 q 197 344 197 261 l 197 944 q 189 964 197 956 q 168 972 181 972 q 147 964 154 972 q 139 944 139 956 l 139 344 q 188 165 139 246 q 317 35 236 83 q 497 -14 399 -14 q 676 35 596 -14 q 806 165 757 83 q 854 344 854 246 l 854 944 q 847 964 854 956 q 826 972 839 972 m 826 919 q 923 939 882 919 q 988 996 964 958 q 1011 1086 1011 1033 q 1007 1114 1011 1100 q 986 1128 1003 1128 q 967 1115 972 1128 q 961 1086 961 1103 q 928 998 961 1024 q 826 972 896 972 l 826 919 m 503 1039 q 519 1042 511 1039 q 532 1049 526 1046 l 667 1114 q 681 1127 676 1119 q 686 1147 686 1135 q 678 1170 686 1160 q 654 1181 671 1181 q 637 1177 644 1181 q 624 1169 629 1174 l 499 1076 q 490 1067 493 1072 q 486 1056 486 1063 q 490 1044 486 1050 q 503 1039 493 1039 "},"Ự":{"ha":993,"x_min":139,"x_max":1011,"o":"m 826 972 q 806 964 814 972 q 799 944 799 956 l 799 344 q 758 192 799 261 q 649 83 717 124 q 497 42 581 42 q 347 83 415 42 q 238 192 278 124 q 197 344 197 261 l 197 944 q 189 964 197 956 q 168 972 181 972 q 147 964 154 972 q 139 944 139 956 l 139 344 q 188 165 139 246 q 317 35 236 83 q 497 -14 399 -14 q 676 35 596 -14 q 806 165 757 83 q 854 344 854 246 l 854 944 q 847 964 854 956 q 826 972 839 972 m 826 919 q 923 939 882 919 q 988 996 964 958 q 1011 1086 1011 1033 q 1007 1114 1011 1100 q 986 1128 1003 1128 q 967 1115 972 1128 q 961 1086 961 1103 q 928 998 961 1024 q 826 972 896 972 l 826 919 m 497 -190 q 531 -176 518 -190 q 544 -140 544 -162 l 544 -129 q 531 -93 544 -107 q 499 -79 518 -79 q 463 -93 476 -79 q 449 -129 449 -107 l 449 -140 q 462 -176 449 -162 q 497 -190 475 -190 "},"Ừ":{"ha":993,"x_min":139,"x_max":1011,"o":"m 826 972 q 806 964 814 972 q 799 944 799 956 l 799 344 q 758 192 799 261 q 649 83 717 124 q 497 42 581 42 q 347 83 415 42 q 238 192 278 124 q 197 344 197 261 l 197 944 q 189 964 197 956 q 168 972 181 972 q 147 964 154 972 q 139 944 139 956 l 139 344 q 188 165 139 246 q 317 35 236 83 q 497 -14 399 -14 q 676 35 596 -14 q 806 165 757 83 q 854 344 854 246 l 854 944 q 847 964 854 956 q 826 972 839 972 m 826 919 q 923 939 882 919 q 988 996 964 958 q 1011 1086 1011 1033 q 1007 1114 1011 1100 q 986 1128 1003 1128 q 967 1115 972 1128 q 961 1086 961 1103 q 928 998 961 1024 q 826 972 896 972 l 826 919 m 497 1039 q 510 1044 507 1039 q 514 1056 514 1050 q 510 1067 514 1063 q 501 1076 507 1072 l 376 1169 q 363 1177 371 1174 q 346 1181 356 1181 q 322 1170 329 1181 q 314 1147 314 1160 q 333 1114 314 1125 l 468 1049 q 482 1042 475 1046 q 497 1039 489 1039 "},"Ử":{"ha":993,"x_min":139,"x_max":1011,"o":"m 826 972 q 806 964 814 972 q 799 944 799 956 l 799 344 q 758 192 799 261 q 649 83 717 124 q 497 42 581 42 q 347 83 415 42 q 238 192 278 124 q 197 344 197 261 l 197 944 q 189 964 197 956 q 168 972 181 972 q 147 964 154 972 q 139 944 139 956 l 139 344 q 188 165 139 246 q 317 35 236 83 q 497 -14 399 -14 q 676 35 596 -14 q 806 165 757 83 q 854 344 854 246 l 854 944 q 847 964 854 956 q 826 972 839 972 m 826 919 q 923 939 882 919 q 988 996 964 958 q 1011 1086 1011 1033 q 1007 1114 1011 1100 q 986 1128 1003 1128 q 967 1115 972 1128 q 961 1086 961 1103 q 928 998 961 1024 q 826 972 896 972 l 826 919 m 400 1242 q 390 1223 390 1232 q 396 1207 390 1214 q 416 1199 404 1197 q 439 1210 428 1200 q 468 1228 451 1219 q 504 1236 485 1236 q 540 1224 525 1236 q 556 1192 556 1211 q 544 1161 556 1174 q 513 1129 532 1149 q 496 1100 499 1115 q 493 1074 493 1085 q 499 1058 493 1065 q 515 1051 504 1051 q 531 1056 525 1051 q 539 1071 538 1061 q 543 1090 540 1083 q 551 1103 546 1097 q 590 1146 575 1126 q 604 1190 604 1165 q 594 1232 604 1210 q 563 1270 585 1254 q 501 1286 540 1286 q 446 1274 472 1286 q 400 1242 419 1261 "},"Ữ":{"ha":993,"x_min":139,"x_max":1011,"o":"m 826 972 q 806 964 814 972 q 799 944 799 956 l 799 344 q 758 192 799 261 q 649 83 717 124 q 497 42 581 42 q 347 83 415 42 q 238 192 278 124 q 197 344 197 261 l 197 944 q 189 964 197 956 q 168 972 181 972 q 147 964 154 972 q 139 944 139 956 l 139 344 q 188 165 139 246 q 317 35 236 83 q 497 -14 399 -14 q 676 35 596 -14 q 806 165 757 83 q 854 344 854 246 l 854 944 q 847 964 854 956 q 826 972 839 972 m 826 919 q 923 939 882 919 q 988 996 964 958 q 1011 1086 1011 1033 q 1007 1114 1011 1100 q 986 1128 1003 1128 q 967 1115 972 1128 q 961 1086 961 1103 q 928 998 961 1024 q 826 972 896 972 l 826 919 m 321 1086 q 335 1091 328 1086 q 346 1106 343 1096 q 372 1152 356 1138 q 408 1167 388 1167 q 463 1148 432 1167 q 527 1110 494 1129 q 586 1090 560 1090 q 633 1099 611 1090 q 670 1127 654 1107 q 693 1181 686 1147 q 694 1215 697 1201 q 674 1228 690 1228 q 656 1221 663 1228 q 649 1203 650 1214 q 631 1158 644 1175 q 597 1140 618 1140 q 542 1160 574 1140 q 476 1199 510 1179 q 414 1219 443 1219 q 349 1200 381 1219 q 304 1135 317 1181 q 303 1099 299 1111 q 321 1086 307 1086 "},"Ű":{"ha":993,"x_min":139,"x_max":854,"o":"m 826 972 q 806 964 814 972 q 799 944 799 956 l 799 344 q 758 192 799 261 q 649 83 717 124 q 497 42 581 42 q 347 83 415 42 q 238 192 278 124 q 197 344 197 261 l 197 944 q 189 964 197 956 q 168 972 181 972 q 147 964 154 972 q 139 944 139 956 l 139 344 q 188 165 139 246 q 317 35 236 83 q 497 -14 399 -14 q 676 35 596 -14 q 806 165 757 83 q 854 344 854 246 l 854 944 q 847 964 854 956 q 826 972 839 972 m 356 1018 q 376 1025 367 1018 q 392 1039 385 1032 l 496 1146 q 503 1156 500 1151 q 506 1169 506 1161 q 495 1196 506 1188 q 469 1204 485 1204 q 447 1197 456 1204 q 433 1182 438 1189 l 347 1053 q 340 1035 340 1042 q 356 1018 340 1018 m 561 1018 q 581 1025 572 1018 q 597 1039 590 1032 l 701 1146 q 708 1156 706 1151 q 711 1169 711 1161 q 701 1196 711 1188 q 675 1204 690 1204 q 652 1197 661 1204 q 639 1182 643 1189 l 553 1053 q 546 1035 546 1042 q 561 1018 546 1018 "},"Ȗ":{"ha":993,"x_min":139,"x_max":854,"o":"m 826 972 q 806 964 814 972 q 799 944 799 956 l 799 344 q 758 192 799 261 q 649 83 717 124 q 497 42 581 42 q 347 83 415 42 q 238 192 278 124 q 197 344 197 261 l 197 944 q 189 964 197 956 q 168 972 181 972 q 147 964 154 972 q 139 944 139 956 l 139 344 q 188 165 139 246 q 317 35 236 83 q 497 -14 399 -14 q 676 35 596 -14 q 806 165 757 83 q 854 344 854 246 l 854 944 q 847 964 854 956 q 826 972 839 972 m 494 1172 q 410 1153 449 1172 q 349 1101 372 1133 q 326 1033 326 1069 q 334 1016 326 1024 q 353 1008 342 1008 q 374 1016 367 1008 q 382 1036 381 1024 q 421 1098 389 1076 q 494 1119 453 1119 q 568 1098 536 1119 q 607 1036 600 1076 q 616 1016 610 1024 q 636 1008 622 1008 q 655 1016 647 1008 q 663 1033 663 1024 q 640 1101 663 1069 q 579 1153 617 1133 q 494 1172 542 1172 "},"Ū":{"ha":993,"x_min":139,"x_max":854,"o":"m 826 972 q 806 964 814 972 q 799 944 799 956 l 799 344 q 758 192 799 261 q 649 83 717 124 q 497 42 581 42 q 347 83 415 42 q 238 192 278 124 q 197 344 197 261 l 197 944 q 189 964 197 956 q 168 972 181 972 q 147 964 154 972 q 139 944 139 956 l 139 344 q 188 165 139 246 q 317 35 236 83 q 497 -14 399 -14 q 676 35 596 -14 q 806 165 757 83 q 854 344 854 246 l 854 944 q 847 964 854 956 q 826 972 839 972 m 322 1111 l 683 1111 q 714 1136 714 1111 q 683 1164 714 1164 l 322 1164 q 292 1136 292 1164 q 322 1111 292 1111 "},"Ṻ":{"ha":993,"x_min":139,"x_max":854,"o":"m 826 972 q 806 964 814 972 q 799 944 799 956 l 799 344 q 758 192 799 261 q 649 83 717 124 q 497 42 581 42 q 347 83 415 42 q 238 192 278 124 q 197 344 197 261 l 197 944 q 189 964 197 956 q 168 972 181 972 q 147 964 154 972 q 139 944 139 956 l 139 344 q 188 165 139 246 q 317 35 236 83 q 497 -14 399 -14 q 676 35 596 -14 q 806 165 757 83 q 854 344 854 246 l 854 944 q 847 964 854 956 q 826 972 839 972 m 322 1111 l 683 1111 q 714 1136 714 1111 q 683 1164 714 1164 l 322 1164 q 292 1136 292 1164 q 322 1111 292 1111 m 611 1290 q 645 1304 632 1290 q 658 1340 658 1318 l 658 1351 q 645 1388 658 1374 q 613 1401 632 1401 q 576 1388 590 1401 q 563 1351 563 1374 l 563 1340 q 576 1304 563 1318 q 611 1290 589 1290 m 385 1290 q 419 1304 406 1290 q 432 1340 432 1318 l 432 1351 q 419 1388 432 1374 q 386 1401 406 1401 q 350 1388 364 1401 q 336 1351 336 1374 l 336 1340 q 349 1304 336 1318 q 385 1290 363 1290 "},"Ų":{"ha":993,"x_min":139,"x_max":854,"o":"m 596 -257 q 647 -248 625 -257 q 683 -223 669 -239 q 696 -189 696 -207 q 690 -176 696 -182 q 675 -169 685 -169 q 659 -175 665 -169 q 646 -192 653 -181 q 603 -206 638 -206 q 550 -183 574 -206 q 526 -118 526 -160 q 551 -42 526 -71 q 610 3 576 -14 q 665 29 643 19 q 766 104 724 56 q 831 215 808 153 q 854 344 854 276 l 854 944 q 847 964 854 956 q 826 972 839 972 q 806 964 814 972 q 799 944 799 956 l 799 344 q 759 192 799 261 q 651 83 719 124 q 497 42 583 42 q 347 83 415 42 q 238 192 278 124 q 197 344 197 261 l 197 944 q 189 964 197 956 q 168 972 181 972 q 147 964 154 972 q 139 944 139 956 l 139 344 q 188 165 139 246 q 317 35 236 83 q 497 -14 399 -14 q 524 -12 511 -14 q 550 -10 538 -11 l 599 26 q 554 6 576 19 q 514 -26 532 -7 q 485 -72 496 -46 q 474 -129 474 -97 q 512 -222 474 -187 q 596 -257 550 -257 "},"Ů":{"ha":993,"x_min":139,"x_max":854,"o":"m 826 972 q 806 964 814 972 q 799 944 799 956 l 799 344 q 758 192 799 261 q 649 83 717 124 q 497 42 581 42 q 347 83 415 42 q 238 192 278 124 q 197 344 197 261 l 197 944 q 189 964 197 956 q 168 972 181 972 q 147 964 154 972 q 139 944 139 956 l 139 344 q 188 165 139 246 q 317 35 236 83 q 497 -14 399 -14 q 676 35 596 -14 q 806 165 757 83 q 854 344 854 246 l 854 944 q 847 964 854 956 q 826 972 839 972 m 497 1028 q 565 1045 533 1028 q 615 1092 596 1063 q 633 1158 633 1122 q 615 1224 633 1194 q 565 1272 596 1254 q 497 1289 533 1289 q 430 1272 461 1289 q 380 1224 399 1254 q 361 1158 361 1194 q 380 1092 361 1122 q 430 1045 399 1063 q 497 1028 461 1028 m 497 1072 q 437 1098 463 1072 q 411 1158 411 1124 q 437 1219 411 1194 q 497 1244 463 1244 q 558 1219 533 1244 q 583 1158 583 1194 q 558 1098 583 1124 q 497 1072 533 1072 "},"Ũ":{"ha":993,"x_min":139,"x_max":854,"o":"m 826 972 q 806 964 814 972 q 799 944 799 956 l 799 344 q 758 192 799 261 q 649 83 717 124 q 497 42 581 42 q 347 83 415 42 q 238 192 278 124 q 197 344 197 261 l 197 944 q 189 964 197 956 q 168 972 181 972 q 147 964 154 972 q 139 944 139 956 l 139 344 q 188 165 139 246 q 317 35 236 83 q 497 -14 399 -14 q 676 35 596 -14 q 806 165 757 83 q 854 344 854 246 l 854 944 q 847 964 854 956 q 826 972 839 972 m 321 1086 q 335 1091 328 1086 q 346 1106 343 1096 q 372 1152 356 1138 q 408 1167 388 1167 q 463 1148 432 1167 q 527 1110 494 1129 q 586 1090 560 1090 q 633 1099 611 1090 q 670 1127 654 1107 q 693 1181 686 1147 q 694 1215 697 1201 q 674 1228 690 1228 q 656 1221 663 1228 q 649 1203 650 1214 q 631 1158 644 1175 q 597 1140 618 1140 q 542 1160 574 1140 q 476 1199 510 1179 q 414 1219 443 1219 q 349 1200 381 1219 q 304 1135 317 1181 q 303 1099 299 1111 q 321 1086 307 1086 "},"Ṹ":{"ha":993,"x_min":139,"x_max":854,"o":"m 826 972 q 806 964 814 972 q 799 944 799 956 l 799 344 q 758 192 799 261 q 649 83 717 124 q 497 42 581 42 q 347 83 415 42 q 238 192 278 124 q 197 344 197 261 l 197 944 q 189 964 197 956 q 168 972 181 972 q 147 964 154 972 q 139 944 139 956 l 139 344 q 188 165 139 246 q 317 35 236 83 q 497 -14 399 -14 q 676 35 596 -14 q 806 165 757 83 q 854 344 854 246 l 854 944 q 847 964 854 956 q 826 972 839 972 m 321 1086 q 335 1091 328 1086 q 346 1106 343 1096 q 372 1152 356 1138 q 408 1167 388 1167 q 463 1148 432 1167 q 527 1110 494 1129 q 586 1090 560 1090 q 633 1099 611 1090 q 670 1127 654 1107 q 693 1181 686 1147 q 694 1215 697 1201 q 674 1228 690 1228 q 656 1221 663 1228 q 649 1203 650 1214 q 631 1158 644 1175 q 597 1140 618 1140 q 542 1160 574 1140 q 476 1199 510 1179 q 414 1219 443 1219 q 349 1200 381 1219 q 304 1135 317 1181 q 303 1099 299 1111 q 321 1086 307 1086 m 503 1294 q 519 1298 511 1294 q 532 1304 526 1301 l 667 1369 q 681 1383 676 1375 q 686 1403 686 1390 q 678 1426 686 1415 q 654 1436 671 1436 q 637 1433 644 1436 q 624 1425 629 1429 l 499 1332 q 490 1323 493 1328 q 486 1311 486 1318 q 490 1300 486 1306 q 503 1294 493 1294 "},"V":{"ha":917,"x_min":50,"x_max":868,"o":"m 840 972 q 814 954 824 972 l 451 82 l 468 81 l 107 950 q 76 972 97 972 q 58 965 67 972 q 50 946 50 957 q 51 936 50 940 q 54 929 53 932 l 432 18 q 442 5 435 10 q 458 0 450 0 q 474 5 467 0 q 485 18 481 10 l 865 933 q 868 947 868 942 q 861 965 868 958 q 840 972 854 972 "},"W":{"ha":1353,"x_min":49,"x_max":1304,"o":"m 1275 975 q 1257 970 1264 975 q 1247 957 1250 965 l 949 88 l 961 89 l 703 739 q 692 752 700 747 q 676 757 685 757 q 660 752 667 757 q 650 739 653 747 l 394 93 l 404 94 l 106 957 q 95 970 103 965 q 79 975 88 975 q 59 968 69 975 q 49 947 49 961 q 51 935 49 943 l 369 18 q 379 5 372 10 q 393 0 386 0 q 410 3 403 0 q 422 17 418 7 l 682 672 l 671 672 l 931 17 q 941 3 933 7 q 958 0 949 0 q 973 5 965 0 q 983 18 981 10 l 1301 935 q 1304 949 1304 943 q 1296 969 1304 963 q 1275 975 1288 975 "},"Ẃ":{"ha":1353,"x_min":49,"x_max":1304,"o":"m 1275 975 q 1257 970 1264 975 q 1247 957 1250 965 l 949 88 l 961 89 l 703 739 q 692 752 700 747 q 676 757 685 757 q 660 752 667 757 q 650 739 653 747 l 394 93 l 404 94 l 106 957 q 95 970 103 965 q 79 975 88 975 q 59 968 69 975 q 49 947 49 961 q 51 935 49 943 l 369 18 q 379 5 372 10 q 393 0 386 0 q 410 3 403 0 q 422 17 418 7 l 682 672 l 671 672 l 931 17 q 941 3 933 7 q 958 0 949 0 q 973 5 965 0 q 983 18 981 10 l 1301 935 q 1304 949 1304 943 q 1296 969 1304 963 q 1275 975 1288 975 m 682 1039 q 698 1042 690 1039 q 711 1049 706 1046 l 846 1114 q 860 1127 856 1119 q 865 1147 865 1135 q 858 1170 865 1160 q 833 1181 850 1181 q 816 1177 824 1181 q 803 1169 808 1174 l 678 1076 q 669 1067 672 1072 q 665 1056 665 1063 q 669 1044 665 1050 q 682 1039 672 1039 "},"Ŵ":{"ha":1353,"x_min":49,"x_max":1304,"o":"m 1275 975 q 1257 970 1264 975 q 1247 957 1250 965 l 949 88 l 961 89 l 703 739 q 692 752 700 747 q 676 757 685 757 q 660 752 667 757 q 650 739 653 747 l 394 93 l 404 94 l 106 957 q 95 970 103 965 q 79 975 88 975 q 59 968 69 975 q 49 947 49 961 q 51 935 49 943 l 369 18 q 379 5 372 10 q 393 0 386 0 q 410 3 403 0 q 422 17 418 7 l 682 672 l 671 672 l 931 17 q 941 3 933 7 q 958 0 949 0 q 973 5 965 0 q 983 18 981 10 l 1301 935 q 1304 949 1304 943 q 1296 969 1304 963 q 1275 975 1288 975 m 682 1186 l 667 1181 l 793 1082 q 807 1072 800 1076 q 819 1068 814 1068 q 831 1074 826 1068 q 836 1085 836 1079 q 834 1093 836 1089 q 828 1101 832 1097 l 715 1219 q 700 1232 707 1228 q 682 1236 693 1236 l 668 1236 q 650 1232 657 1236 q 635 1219 643 1228 l 522 1100 q 516 1092 518 1096 q 514 1083 514 1088 q 519 1072 514 1078 q 531 1067 524 1067 q 544 1071 538 1067 q 557 1081 550 1075 l 682 1186 "},"Ẅ":{"ha":1353,"x_min":49,"x_max":1304,"o":"m 1275 975 q 1257 970 1264 975 q 1247 957 1250 965 l 949 88 l 961 89 l 703 739 q 692 752 700 747 q 676 757 685 757 q 660 752 667 757 q 650 739 653 747 l 394 93 l 404 94 l 106 957 q 95 970 103 965 q 79 975 88 975 q 59 968 69 975 q 49 947 49 961 q 51 935 49 943 l 369 18 q 379 5 372 10 q 393 0 386 0 q 410 3 403 0 q 422 17 418 7 l 682 672 l 671 672 l 931 17 q 941 3 933 7 q 958 0 949 0 q 973 5 965 0 q 983 18 981 10 l 1301 935 q 1304 949 1304 943 q 1296 969 1304 963 q 1275 975 1288 975 m 790 1083 q 824 1097 811 1083 q 838 1133 838 1111 l 838 1144 q 824 1181 838 1167 q 792 1194 811 1194 q 756 1181 769 1194 q 742 1144 742 1167 l 742 1133 q 755 1097 742 1111 q 790 1083 768 1083 m 564 1083 q 598 1097 585 1083 q 611 1133 611 1111 l 611 1144 q 598 1181 611 1167 q 565 1194 585 1194 q 529 1181 543 1194 q 515 1144 515 1167 l 515 1133 q 528 1097 515 1111 q 564 1083 542 1083 "},"Ẁ":{"ha":1353,"x_min":49,"x_max":1304,"o":"m 1275 975 q 1257 970 1264 975 q 1247 957 1250 965 l 949 88 l 961 89 l 703 739 q 692 752 700 747 q 676 757 685 757 q 660 752 667 757 q 650 739 653 747 l 394 93 l 404 94 l 106 957 q 95 970 103 965 q 79 975 88 975 q 59 968 69 975 q 49 947 49 961 q 51 935 49 943 l 369 18 q 379 5 372 10 q 393 0 386 0 q 410 3 403 0 q 422 17 418 7 l 682 672 l 671 672 l 931 17 q 941 3 933 7 q 958 0 949 0 q 973 5 965 0 q 983 18 981 10 l 1301 935 q 1304 949 1304 943 q 1296 969 1304 963 q 1275 975 1288 975 m 676 1039 q 690 1044 686 1039 q 693 1056 693 1050 q 690 1067 693 1063 q 681 1076 686 1072 l 556 1169 q 542 1177 550 1174 q 525 1181 535 1181 q 501 1170 508 1181 q 493 1147 493 1160 q 513 1114 493 1125 l 647 1049 q 661 1042 654 1046 q 676 1039 668 1039 "},"X":{"ha":818,"x_min":42,"x_max":776,"o":"m 749 978 q 728 967 736 978 l 407 526 l 438 479 l 769 936 q 776 956 776 946 q 768 972 776 967 q 749 978 760 978 m 69 976 q 50 969 58 976 q 42 949 42 961 q 47 932 42 939 l 725 7 q 747 -4 732 -4 q 767 3 758 -4 q 776 24 776 11 q 769 40 776 31 l 93 965 q 69 976 86 976 m 69 -4 q 90 7 83 -4 l 410 443 l 382 490 l 50 38 q 43 19 43 26 q 49 4 43 13 q 69 -4 56 -4 "},"Y":{"ha":760,"x_min":28,"x_max":732,"o":"m 704 978 q 681 965 689 978 l 375 547 l 389 544 l 81 965 q 57 978 72 978 q 38 970 47 978 q 28 951 28 963 q 29 942 28 946 q 33 933 31 938 l 358 488 l 351 517 l 351 28 q 359 8 351 17 q 381 0 367 0 q 401 8 393 0 q 410 28 410 17 l 410 526 l 397 486 l 726 933 q 731 942 729 938 q 732 951 732 946 q 725 968 732 958 q 704 978 718 978 "},"Ý":{"ha":760,"x_min":28,"x_max":732,"o":"m 704 978 q 681 965 689 978 l 375 547 l 389 544 l 81 965 q 57 978 72 978 q 38 970 47 978 q 28 951 28 963 q 29 942 28 946 q 33 933 31 938 l 358 488 l 351 517 l 351 28 q 359 8 351 17 q 381 0 367 0 q 401 8 393 0 q 410 28 410 17 l 410 526 l 397 486 l 726 933 q 731 942 729 938 q 732 951 732 946 q 725 968 732 958 q 704 978 718 978 m 386 1039 q 402 1042 394 1039 q 415 1049 410 1046 l 550 1114 q 565 1127 560 1119 q 569 1147 569 1135 q 562 1170 569 1160 q 538 1181 554 1181 q 520 1177 528 1181 q 507 1169 513 1174 l 382 1076 q 373 1067 376 1072 q 369 1056 369 1063 q 373 1044 369 1050 q 386 1039 376 1039 "},"Ŷ":{"ha":760,"x_min":28,"x_max":732,"o":"m 704 978 q 681 965 689 978 l 375 547 l 389 544 l 81 965 q 57 978 72 978 q 38 970 47 978 q 28 951 28 963 q 29 942 28 946 q 33 933 31 938 l 358 488 l 351 517 l 351 28 q 359 8 351 17 q 381 0 367 0 q 401 8 393 0 q 410 28 410 17 l 410 526 l 397 486 l 726 933 q 731 942 729 938 q 732 951 732 946 q 725 968 732 958 q 704 978 718 978 m 386 1186 l 371 1181 l 497 1082 q 511 1072 504 1076 q 524 1068 518 1068 q 535 1074 531 1068 q 540 1085 540 1079 q 538 1093 540 1089 q 532 1101 536 1097 l 419 1219 q 404 1232 411 1228 q 386 1236 397 1236 l 372 1236 q 354 1232 361 1236 q 339 1219 347 1228 l 226 1100 q 220 1092 222 1096 q 218 1083 218 1088 q 223 1072 218 1078 q 235 1067 228 1067 q 248 1071 242 1067 q 261 1081 254 1075 l 386 1186 "},"Ÿ":{"ha":760,"x_min":28,"x_max":732,"o":"m 704 978 q 681 965 689 978 l 375 547 l 389 544 l 81 965 q 57 978 72 978 q 38 970 47 978 q 28 951 28 963 q 29 942 28 946 q 33 933 31 938 l 358 488 l 351 517 l 351 28 q 359 8 351 17 q 381 0 367 0 q 401 8 393 0 q 410 28 410 17 l 410 526 l 397 486 l 726 933 q 731 942 729 938 q 732 951 732 946 q 725 968 732 958 q 704 978 718 978 m 494 1083 q 528 1097 515 1083 q 542 1133 542 1111 l 542 1144 q 528 1181 542 1167 q 496 1194 515 1194 q 460 1181 474 1194 q 446 1144 446 1167 l 446 1133 q 459 1097 446 1111 q 494 1083 472 1083 m 268 1083 q 302 1097 289 1083 q 315 1133 315 1111 l 315 1144 q 302 1181 315 1167 q 269 1194 289 1194 q 233 1181 247 1194 q 219 1144 219 1167 l 219 1133 q 233 1097 219 1111 q 268 1083 246 1083 "},"Ẏ":{"ha":760,"x_min":28,"x_max":732,"o":"m 704 978 q 681 965 689 978 l 375 547 l 389 544 l 81 965 q 57 978 72 978 q 38 970 47 978 q 28 951 28 963 q 29 942 28 946 q 33 933 31 938 l 358 488 l 351 517 l 351 28 q 359 8 351 17 q 381 0 367 0 q 401 8 393 0 q 410 28 410 17 l 410 526 l 397 486 l 726 933 q 731 942 729 938 q 732 951 732 946 q 725 968 732 958 q 704 978 718 978 m 381 1083 q 415 1097 401 1083 q 428 1133 428 1111 l 428 1144 q 415 1181 428 1167 q 382 1194 401 1194 q 346 1181 360 1194 q 332 1144 332 1167 l 332 1133 q 345 1097 332 1111 q 381 1083 358 1083 "},"Ỵ":{"ha":760,"x_min":28,"x_max":732,"o":"m 704 978 q 681 965 689 978 l 375 547 l 389 544 l 81 965 q 57 978 72 978 q 38 970 47 978 q 28 951 28 963 q 29 942 28 946 q 33 933 31 938 l 358 488 l 351 517 l 351 28 q 359 8 351 17 q 381 0 367 0 q 401 8 393 0 q 410 28 410 17 l 410 526 l 397 486 l 726 933 q 731 942 729 938 q 732 951 732 946 q 725 968 732 958 q 704 978 718 978 m 381 -190 q 415 -176 401 -190 q 428 -140 428 -162 l 428 -129 q 415 -93 428 -107 q 382 -79 401 -79 q 346 -93 360 -79 q 332 -129 332 -107 l 332 -140 q 345 -176 332 -162 q 381 -190 358 -190 "},"Ỳ":{"ha":760,"x_min":28,"x_max":732,"o":"m 704 978 q 681 965 689 978 l 375 547 l 389 544 l 81 965 q 57 978 72 978 q 38 970 47 978 q 28 951 28 963 q 29 942 28 946 q 33 933 31 938 l 358 488 l 351 517 l 351 28 q 359 8 351 17 q 381 0 367 0 q 401 8 393 0 q 410 28 410 17 l 410 526 l 397 486 l 726 933 q 731 942 729 938 q 732 951 732 946 q 725 968 732 958 q 704 978 718 978 m 381 1039 q 394 1044 390 1039 q 397 1056 397 1050 q 394 1067 397 1063 q 385 1076 390 1072 l 260 1169 q 247 1177 254 1174 q 229 1181 239 1181 q 205 1170 213 1181 q 197 1147 197 1160 q 217 1114 197 1125 l 351 1049 q 365 1042 358 1046 q 381 1039 372 1039 "},"Ỷ":{"ha":760,"x_min":28,"x_max":732,"o":"m 704 978 q 681 965 689 978 l 375 547 l 389 544 l 81 965 q 57 978 72 978 q 38 970 47 978 q 28 951 28 963 q 29 942 28 946 q 33 933 31 938 l 358 488 l 351 517 l 351 28 q 359 8 351 17 q 381 0 367 0 q 401 8 393 0 q 410 28 410 17 l 410 526 l 397 486 l 726 933 q 731 942 729 938 q 732 951 732 946 q 725 968 732 958 q 704 978 718 978 m 283 1242 q 274 1223 274 1232 q 279 1207 274 1214 q 299 1199 288 1197 q 322 1210 311 1200 q 351 1228 335 1219 q 388 1236 368 1236 q 424 1224 408 1236 q 439 1192 439 1211 q 427 1161 439 1174 q 396 1129 415 1149 q 379 1100 382 1115 q 376 1074 376 1085 q 382 1058 376 1065 q 399 1051 388 1051 q 415 1056 408 1051 q 422 1071 421 1061 q 426 1090 424 1083 q 435 1103 429 1097 q 473 1146 458 1126 q 488 1190 488 1165 q 478 1232 488 1210 q 446 1270 468 1254 q 385 1286 424 1286 q 329 1274 356 1286 q 283 1242 303 1261 "},"Ȳ":{"ha":760,"x_min":28,"x_max":732,"o":"m 704 978 q 681 965 689 978 l 375 547 l 389 544 l 81 965 q 57 978 72 978 q 38 970 47 978 q 28 951 28 963 q 29 942 28 946 q 33 933 31 938 l 358 488 l 351 517 l 351 28 q 359 8 351 17 q 381 0 367 0 q 401 8 393 0 q 410 28 410 17 l 410 526 l 397 486 l 726 933 q 731 942 729 938 q 732 951 732 946 q 725 968 732 958 q 704 978 718 978 m 206 1111 l 567 1111 q 597 1136 597 1111 q 567 1164 597 1164 l 206 1164 q 175 1136 175 1164 q 206 1111 175 1111 "},"Ỹ":{"ha":760,"x_min":28,"x_max":732,"o":"m 704 978 q 681 965 689 978 l 375 547 l 389 544 l 81 965 q 57 978 72 978 q 38 970 47 978 q 28 951 28 963 q 29 942 28 946 q 33 933 31 938 l 358 488 l 351 517 l 351 28 q 359 8 351 17 q 381 0 367 0 q 401 8 393 0 q 410 28 410 17 l 410 526 l 397 486 l 726 933 q 731 942 729 938 q 732 951 732 946 q 725 968 732 958 q 704 978 718 978 m 204 1086 q 219 1091 211 1086 q 229 1106 226 1096 q 255 1152 239 1138 q 292 1167 271 1167 q 347 1148 315 1167 q 410 1110 378 1129 q 469 1090 443 1090 q 516 1099 494 1090 q 553 1127 538 1107 q 576 1181 569 1147 q 577 1215 581 1201 q 557 1228 574 1228 q 540 1221 546 1228 q 532 1203 533 1214 q 515 1158 528 1175 q 481 1140 501 1140 q 425 1160 457 1140 q 360 1199 393 1179 q 297 1219 326 1219 q 232 1200 264 1219 q 188 1135 200 1181 q 186 1099 182 1111 q 204 1086 190 1086 "},"Z":{"ha":893,"x_min":83,"x_max":824,"o":"m 792 972 l 139 972 q 119 965 128 972 q 111 946 111 957 q 119 928 111 936 q 139 919 128 919 l 757 919 l 749 925 l 89 46 q 83 29 83 39 q 90 10 83 19 q 111 0 97 0 l 794 0 q 814 8 806 0 q 822 26 822 15 q 814 44 822 36 q 794 53 806 53 l 156 53 l 154 39 l 818 928 q 824 944 824 935 q 817 963 824 954 q 792 972 810 972 "},"Ź":{"ha":893,"x_min":83,"x_max":824,"o":"m 792 972 l 139 972 q 119 965 128 972 q 111 946 111 957 q 119 928 111 936 q 139 919 128 919 l 757 919 l 749 925 l 89 46 q 83 29 83 39 q 90 10 83 19 q 111 0 97 0 l 794 0 q 814 8 806 0 q 822 26 822 15 q 814 44 822 36 q 794 53 806 53 l 156 53 l 154 39 l 818 928 q 824 944 824 935 q 817 963 824 954 q 792 972 810 972 m 453 1039 q 469 1042 461 1039 q 482 1049 476 1046 l 617 1114 q 631 1127 626 1119 q 636 1147 636 1135 q 628 1170 636 1160 q 604 1181 621 1181 q 587 1177 594 1181 q 574 1169 579 1174 l 449 1076 q 440 1067 443 1072 q 436 1056 436 1063 q 440 1044 436 1050 q 453 1039 443 1039 "}}}
